ISO-10303-21;
HEADER;
FILE_DESCRIPTION (( 'STEP AP214' ),
    '1' );
FILE_NAME ('Gehäuse_Waveshare_Rückwand_Rand.STEP',
    '2026-09-03T05:20:23',
    ( '' ),
    ( '' ),
    'SwSTEP 2.0',
    'SolidWorks 2026',
    '' );
FILE_SCHEMA (( 'AUTOMOTIVE_DESIGN' ));
ENDSEC;

DATA;
#1 = ADVANCED_FACE ( 'NONE', ( #760 ), #138, .T. ) ;
#2 = ORIENTED_EDGE ( 'NONE', *, *, #282, .T. ) ;
#3 = ADVANCED_FACE ( 'NONE', ( #118 ), #1161, .T. ) ;
#4 = CIRCLE ( 'NONE', #1208, 2.000000000000000000 ) ;
#5 = AXIS2_PLACEMENT_3D ( 'NONE', #233, #901, #433 ) ;
#6 = CARTESIAN_POINT ( 'NONE',  ( 15.23000000000000043, 2.000000000000000000, -140.2500000000000000 ) ) ;
#7 = AXIS2_PLACEMENT_3D ( 'NONE', #917, #821, #332 ) ;
#8 = FACE_OUTER_BOUND ( 'NONE', #583, .T. ) ;
#9 = EDGE_CURVE ( 'NONE', #140, #159, #618, .T. ) ;
#10 =( NAMED_UNIT ( * ) SI_UNIT ( $, .STERADIAN. ) SOLID_ANGLE_UNIT ( ) );
#11 = CARTESIAN_POINT ( 'NONE',  ( 233.3299999999999841, 0.000000000000000000, -142.0000000000000284 ) ) ;
#12 = EDGE_CURVE ( 'NONE', #364, #42, #498, .T. ) ;
#13 = VERTEX_POINT ( 'NONE', #852 ) ;
#14 = DIRECTION ( 'NONE',  ( -0.000000000000000000, 1.000000000000000000, -0.000000000000000000 ) ) ;
#15 = ADVANCED_FACE ( 'NONE', ( #565 ), #472, .T. ) ;
#16 = VECTOR ( 'NONE', #283, 1000.000000000000000 ) ;
#17 = CARTESIAN_POINT ( 'NONE',  ( 233.3299999999999841, 0.000000000000000000, -9.000000000000001776 ) ) ;
#18 = CIRCLE ( 'NONE', #168, 1.000000000000000888 ) ;
#19 = DIRECTION ( 'NONE',  ( -1.000000000000000000, 0.000000000000000000, 0.000000000000000000 ) ) ;
#20 = VECTOR ( 'NONE', #81, 1000.000000000000000 ) ;
#21 = CARTESIAN_POINT ( 'NONE',  ( 0.000000000000000000, 2.000000000000000000, -147.0000000000000284 ) ) ;
#22 = FACE_OUTER_BOUND ( 'NONE', #139, .T. ) ;
#23 = VECTOR ( 'NONE', #376, 1000.000000000000000 ) ;
#24 = VECTOR ( 'NONE', #450, 1000.000000000000000 ) ;
#25 = APPLICATION_PROTOCOL_DEFINITION ( 'draft international standard', 'automotive_design', 1998, #582 ) ;
#26 = DIRECTION ( 'NONE',  ( 0.000000000000000000, 1.000000000000000000, 0.000000000000000000 ) ) ;
#27 = EDGE_LOOP ( 'NONE', ( #920, #1030, #818, #167 ) ) ;
#28 = LINE ( 'NONE', #791, #826 ) ;
#29 = CARTESIAN_POINT ( 'NONE',  ( 233.3299999999999841, 2.000000000000000000, -140.2500000000000000 ) ) ;
#30 = VERTEX_POINT ( 'NONE', #1239 ) ;
#31 = EDGE_CURVE ( 'NONE', #120, #915, #953, .T. ) ;
#32 = ORIENTED_EDGE ( 'NONE', *, *, #957, .F. ) ;
#33 = VERTEX_POINT ( 'NONE', #771 ) ;
#34 = FACE_OUTER_BOUND ( 'NONE', #254, .T. ) ;
#35 = DIRECTION ( 'NONE',  ( 0.000000000000000000, 1.000000000000000000, 0.000000000000000000 ) ) ;
#36 = ADVANCED_FACE ( 'NONE', ( #1154 ), #1148, .T. ) ;
#37 = EDGE_CURVE ( 'NONE', #1009, #382, #518, .T. ) ;
#38 = VERTEX_POINT ( 'NONE', #400 ) ;
#39 = DIRECTION ( 'NONE',  ( 0.000000000000000000, -1.000000000000000000, 0.000000000000000000 ) ) ;
#40 = DIRECTION ( 'NONE',  ( -0.000000000000000000, 1.000000000000000000, -0.000000000000000000 ) ) ;
#41 = CIRCLE ( 'NONE', #1105, 3.000000000000002665 ) ;
#42 = VERTEX_POINT ( 'NONE', #956 ) ;
#43 = DIRECTION ( 'NONE',  ( 0.000000000000000000, 0.000000000000000000, -1.000000000000000000 ) ) ;
#44 = LINE ( 'NONE', #464, #441 ) ;
#45 = AXIS2_PLACEMENT_3D ( 'NONE', #611, #329, #994 ) ;
#46 = AXIS2_PLACEMENT_3D ( 'NONE', #892, #584, #798 ) ;
#47 = VERTEX_POINT ( 'NONE', #112 ) ;
#48 = CARTESIAN_POINT ( 'NONE',  ( 241.0000000000000000, 2.000000000000000000, -2.000000000000000000 ) ) ;
#49 = CARTESIAN_POINT ( 'NONE',  ( 20.00000000000000000, 2.000000000000000000, -139.0000000000000000 ) ) ;
#50 = DIRECTION ( 'NONE',  ( -1.000000000000000000, 0.000000000000000000, 0.000000000000000000 ) ) ;
#51 = ORIENTED_EDGE ( 'NONE', *, *, #721, .T. ) ;
#52 = ORIENTED_EDGE ( 'NONE', *, *, #1210, .T. ) ;
#53 = FACE_OUTER_BOUND ( 'NONE', #1097, .T. ) ;
#54 = ORIENTED_EDGE ( 'NONE', *, *, #148, .T. ) ;
#55 = SURFACE_STYLE_FILL_AREA ( #1206 ) ;
#56 = ADVANCED_FACE ( 'NONE', ( #490 ), #785, .F. ) ;
#57 = CARTESIAN_POINT ( 'NONE',  ( 223.0000000000000000, 2.000000000000000000, -14.00000000000000000 ) ) ;
#58 = EDGE_CURVE ( 'NONE', #308, #1039, #236, .T. ) ;
#59 = EDGE_LOOP ( 'NONE', ( #735, #1192, #418, #1221 ) ) ;
#60 = ORIENTED_EDGE ( 'NONE', *, *, #1185, .T. ) ;
#61 = CYLINDRICAL_SURFACE ( 'NONE', #405, 1.000000000000000000 ) ;
#62 = CYLINDRICAL_SURFACE ( 'NONE', #1238, 2.000000000000000000 ) ;
#63 = AXIS2_PLACEMENT_3D ( 'NONE', #967, #875, #576 ) ;
#64 = CARTESIAN_POINT ( 'NONE',  ( 4.000000000000000000, 0.000000000000000000, -151.0000000000000284 ) ) ;
#65 = ORIENTED_EDGE ( 'NONE', *, *, #746, .T. ) ;
#66 = TOROIDAL_SURFACE ( 'NONE', #922, 3.000000000000000000, 1.000000000000000000 ) ;
#67 = ORIENTED_EDGE ( 'NONE', *, *, #388, .F. ) ;
#68 = VERTEX_POINT ( 'NONE', #402 ) ;
#69 = LINE ( 'NONE', #1033, #597 ) ;
#70 = CYLINDRICAL_SURFACE ( 'NONE', #950, 1.000000000000000000 ) ;
#71 = AXIS2_PLACEMENT_3D ( 'NONE', #1145, #635, #426 ) ;
#72 = FACE_OUTER_BOUND ( 'NONE', #1100, .T. ) ;
#73 = ORIENTED_EDGE ( 'NONE', *, *, #702, .T. ) ;
#74 = DIRECTION ( 'NONE',  ( 0.000000000000000000, 1.000000000000000000, 0.000000000000000000 ) ) ;
#75 = ORIENTED_EDGE ( 'NONE', *, *, #553, .F. ) ;
#76 = CARTESIAN_POINT ( 'NONE',  ( 239.0000000000000000, 0.000000000000000000, 0.000000000000000000 ) ) ;
#77 = ADVANCED_FACE ( 'NONE', ( #336 ), #1178, .T. ) ;
#78 = DIRECTION ( 'NONE',  ( 0.000000000000000000, 1.000000000000000000, 0.000000000000000000 ) ) ;
#79 = CARTESIAN_POINT ( 'NONE',  ( 3.999999999999999112, 16.50000000000000000, -2.000000000000000000 ) ) ;
#80 = VERTEX_POINT ( 'NONE', #803 ) ;
#81 = DIRECTION ( 'NONE',  ( -0.000000000000000000, -1.000000000000000000, -0.000000000000000000 ) ) ;
#82 = CARTESIAN_POINT ( 'NONE',  ( 20.00000000000000000, 2.000000000000000000, -14.00000000000000000 ) ) ;
#83 = CARTESIAN_POINT ( 'NONE',  ( 15.23000000000000043, 0.000000000000000000, -142.0000000000000284 ) ) ;
#84 = LINE ( 'NONE', #281, #1085 ) ;
#85 = CARTESIAN_POINT ( 'NONE',  ( 242.0000000000000000, 15.50000000000000000, 0.000000000000000000 ) ) ;
#86 = VECTOR ( 'NONE', #486, 1000.000000000000000 ) ;
#87 = AXIS2_PLACEMENT_3D ( 'NONE', #229, #601, #614 ) ;
#88 = EDGE_CURVE ( 'NONE', #1118, #447, #222, .T. ) ;
#89 = DIRECTION ( 'NONE',  ( -1.000000000000000000, 0.000000000000000000, 0.000000000000000000 ) ) ;
#90 = DIRECTION ( 'NONE',  ( 0.000000000000000000, 0.000000000000000000, -1.000000000000000000 ) ) ;
#91 = ORIENTED_EDGE ( 'NONE', *, *, #305, .F. ) ;
#92 = DIRECTION ( 'NONE',  ( -0.000000000000000000, 1.000000000000000000, -0.000000000000000000 ) ) ;
#93 = EDGE_CURVE ( 'NONE', #197, #1180, #492, .T. ) ;
#94 = DIRECTION ( 'NONE',  ( -0.000000000000000000, 1.000000000000000000, -0.000000000000000000 ) ) ;
#95 = EDGE_CURVE ( 'NONE', #334, #149, #500, .T. ) ;
#96 = ORIENTED_EDGE ( 'NONE', *, *, #629, .T. ) ;
#97 = EDGE_CURVE ( 'NONE', #42, #703, #781, .T. ) ;
#98 = DIRECTION ( 'NONE',  ( 0.000000000000000000, 0.000000000000000000, -1.000000000000000000 ) ) ;
#99 = CARTESIAN_POINT ( 'NONE',  ( 2.000000000000000000, 2.000000000000000000, -3.999999999999999112 ) ) ;
#100 = DIRECTION ( 'NONE',  ( 0.000000000000000000, 0.000000000000000000, -1.000000000000000000 ) ) ;
#101 = AXIS2_PLACEMENT_3D ( 'NONE', #85, #466, #19 ) ;
#102 = VECTOR ( 'NONE', #848, 1000.000000000000000 ) ;
#103 = FACE_BOUND ( 'NONE', #995, .T. ) ;
#104 = CYLINDRICAL_SURFACE ( 'NONE', #1129, 2.000000000000001776 ) ;
#105 = ORIENTED_EDGE ( 'NONE', *, *, #313, .T. ) ;
#106 = CARTESIAN_POINT ( 'NONE',  ( 241.0000000000000000, 16.50000000000000000, -4.000000000000000000 ) ) ;
#107 = AXIS2_PLACEMENT_3D ( 'NONE', #537, #246, #436 ) ;
#108 = CARTESIAN_POINT ( 'NONE',  ( 0.000000000000000000, 0.000000000000000000, 0.000000000000000000 ) ) ;
#109 = ADVANCED_FACE ( 'NONE', ( #34, #984 ), #706, .F. ) ;
#110 = CARTESIAN_POINT ( 'NONE',  ( 0.000000000000000000, 2.000000000000000000, 0.000000000000000000 ) ) ;
#111 = CARTESIAN_POINT ( 'NONE',  ( 223.0000000000000000, 2.000000000000000000, -14.00000000000000000 ) ) ;
#112 = CARTESIAN_POINT ( 'NONE',  ( 233.3299999999999841, 2.000000000000000000, -7.249999999999991118 ) ) ;
#113 = DIRECTION ( 'NONE',  ( 0.000000000000000000, -0.000000000000000000, -1.000000000000000000 ) ) ;
#114 = PLANE ( 'NONE',  #353 ) ;
#115 = DIRECTION ( 'NONE',  ( 0.000000000000000000, -0.000000000000000000, -1.000000000000000000 ) ) ;
#116 = CARTESIAN_POINT ( 'NONE',  ( 0.000000000000000000, 15.50000000000000000, -151.0000000000000284 ) ) ;
#117 = AXIS2_PLACEMENT_3D ( 'NONE', #286, #194, #767 ) ;
#118 = FACE_OUTER_BOUND ( 'NONE', #652, .T. ) ;
#119 = CIRCLE ( 'NONE', #369, 3.000000000000000000 ) ;
#120 = VERTEX_POINT ( 'NONE', #409 ) ;
#121 = DIRECTION ( 'NONE',  ( 0.000000000000000000, 0.000000000000000000, 1.000000000000000000 ) ) ;
#122 = LINE ( 'NONE', #485, #1218 ) ;
#123 = EDGE_CURVE ( 'NONE', #560, #170, #1090, .T. ) ;
#124 = AXIS2_PLACEMENT_3D ( 'NONE', #458, #273, #655 ) ;
#125 = ORIENTED_EDGE ( 'NONE', *, *, #888, .T. ) ;
#126 = ORIENTED_EDGE ( 'NONE', *, *, #445, .F. ) ;
#127 = CARTESIAN_POINT ( 'NONE',  ( 241.0000000000000000, 2.000000000000000000, -146.9999999999999432 ) ) ;
#128 = CARTESIAN_POINT ( 'NONE',  ( 2.000000000000000000, 16.50000000000000000, -149.0000000000000284 ) ) ;
#129 = EDGE_CURVE ( 'NONE', #1180, #68, #877, .T. ) ;
#130 = VERTEX_POINT ( 'NONE', #216 ) ;
#131 = ORIENTED_EDGE ( 'NONE', *, *, #205, .F. ) ;
#132 = ORIENTED_EDGE ( 'NONE', *, *, #1062, .T. ) ;
#133 = DIRECTION ( 'NONE',  ( 1.000000000000000000, 0.000000000000000000, -0.000000000000000000 ) ) ;
#134 = DIRECTION ( 'NONE',  ( 8.326672684688666480E-14, 0.000000000000000000, -1.000000000000000000 ) ) ;
#135 = ORIENTED_EDGE ( 'NONE', *, *, #604, .T. ) ;
#136 = CARTESIAN_POINT ( 'NONE',  ( 4.000000000000000000, 15.50000000000000000, -147.0000000000000284 ) ) ;
#137 = ORIENTED_EDGE ( 'NONE', *, *, #927, .T. ) ;
#138 = TOROIDAL_SURFACE ( 'NONE', #1022, 3.000000000000000000, 1.000000000000000000 ) ;
#139 = EDGE_LOOP ( 'NONE', ( #1051, #839, #889, #411 ) ) ;
#140 = VERTEX_POINT ( 'NONE', #607 ) ;
#141 = CARTESIAN_POINT ( 'NONE',  ( 0.000000000000000000, 15.50000000000000000, 0.000000000000000000 ) ) ;
#142 = CARTESIAN_POINT ( 'NONE',  ( 239.0000000000000000, 16.50000000000000000, -147.0000000000000284 ) ) ;
#143 = VECTOR ( 'NONE', #1157, 1000.000000000000000 ) ;
#144 = ADVANCED_FACE ( 'NONE', ( #989 ), #224, .F. ) ;
#145 = TOROIDAL_SURFACE ( 'NONE', #244, 3.000000000000000000, 1.000000000000000000 ) ;
#146 = DIRECTION ( 'NONE',  ( 0.000000000000000000, 0.000000000000000000, 1.000000000000000000 ) ) ;
#147 = ORIENTED_EDGE ( 'NONE', *, *, #808, .F. ) ;
#148 = EDGE_CURVE ( 'NONE', #33, #636, #28, .T. ) ;
#149 = VERTEX_POINT ( 'NONE', #127 ) ;
#150 = AXIS2_PLACEMENT_3D ( 'NONE', #158, #1122, #523 ) ;
#151 = CARTESIAN_POINT ( 'NONE',  ( 239.0000000000000000, 15.50000000000000000, -151.0000000000000284 ) ) ;
#152 = EDGE_CURVE ( 'NONE', #13, #1180, #483, .T. ) ;
#153 = VECTOR ( 'NONE', #230, 1000.000000000000000 ) ;
#154 = EDGE_LOOP ( 'NONE', ( #987, #802, #708, #1080 ) ) ;
#155 = ORIENTED_EDGE ( 'NONE', *, *, #1156, .T. ) ;
#156 = LINE ( 'NONE', #440, #24 ) ;
#157 = EDGE_CURVE ( 'NONE', #703, #932, #554, .T. ) ;
#158 = CARTESIAN_POINT ( 'NONE',  ( 15.23000000000000043, 0.000000000000000000, -142.0000000000000284 ) ) ;
#159 = VERTEX_POINT ( 'NONE', #477 ) ;
#160 = EDGE_LOOP ( 'NONE', ( #948, #1196, #1086, #1188 ) ) ;
#161 = CARTESIAN_POINT ( 'NONE',  ( 1.000000000000000000, 15.50000000000000000, 0.000000000000000000 ) ) ;
#162 = DIRECTION ( 'NONE',  ( 0.000000000000000000, 0.000000000000000000, 1.000000000000000000 ) ) ;
#163 = CARTESIAN_POINT ( 'NONE',  ( 3.999999999999999112, 2.000000000000000000, -149.0000000000000284 ) ) ;
#164 = ORIENTED_EDGE ( 'NONE', *, *, #1038, .F. ) ;
#165 = ORIENTED_EDGE ( 'NONE', *, *, #58, .F. ) ;
#166 = ORIENTED_EDGE ( 'NONE', *, *, #1231, .F. ) ;
#167 = ORIENTED_EDGE ( 'NONE', *, *, #275, .T. ) ;
#168 = AXIS2_PLACEMENT_3D ( 'NONE', #366, #89, #1141 ) ;
#169 = LINE ( 'NONE', #545, #208 ) ;
#170 = VERTEX_POINT ( 'NONE', #206 ) ;
#171 = VECTOR ( 'NONE', #1193, 1000.000000000000000 ) ;
#172 = CARTESIAN_POINT ( 'NONE',  ( 15.22999999999999332, 0.000000000000000000, -9.000000000000001776 ) ) ;
#173 = ADVANCED_FACE ( 'NONE', ( #8 ), #145, .T. ) ;
#174 = ORIENTED_EDGE ( 'NONE', *, *, #796, .F. ) ;
#175 = DIRECTION ( 'NONE',  ( 0.000000000000000000, 0.000000000000000000, -1.000000000000000000 ) ) ;
#176 = CARTESIAN_POINT ( 'NONE',  ( 4.000000000000000000, 15.50000000000000000, -4.000000000000000000 ) ) ;
#177 = AXIS2_PLACEMENT_3D ( 'NONE', #992, #513, #162 ) ;
#178 = CARTESIAN_POINT ( 'NONE',  ( 20.00000000000000000, -0.000000000000000000, -139.0000000000000000 ) ) ;
#179 = ADVANCED_FACE ( 'NONE', ( #398 ), #677, .F. ) ;
#180 = ORIENTED_EDGE ( 'NONE', *, *, #721, .F. ) ;
#181 = CARTESIAN_POINT ( 'NONE',  ( 4.000000000000000000, 2.000000000000000000, -4.000000000000000000 ) ) ;
#182 = CARTESIAN_POINT ( 'NONE',  ( 241.0000000000000000, 16.50000000000000000, -2.000000000000000000 ) ) ;
#183 = DIRECTION ( 'NONE',  ( -1.000000000000000000, -0.000000000000000000, -0.000000000000000000 ) ) ;
#184 = CARTESIAN_POINT ( 'NONE',  ( 4.000000000000000000, 15.50000000000000000, -4.000000000000000000 ) ) ;
#185 = ORIENTED_EDGE ( 'NONE', *, *, #284, .F. ) ;
#186 = CARTESIAN_POINT ( 'NONE',  ( 20.00000000000000000, 2.000000000000000000, -14.00000000000000000 ) ) ;
#187 = LINE ( 'NONE', #559, #621 ) ;
#188 = DIRECTION ( 'NONE',  ( 0.000000000000000000, 0.000000000000000000, 1.000000000000000000 ) ) ;
#189 = FACE_BOUND ( 'NONE', #810, .T. ) ;
#190 = DIRECTION ( 'NONE',  ( 0.000000000000000000, -1.000000000000000000, 0.000000000000000000 ) ) ;
#191 = AXIS2_PLACEMENT_3D ( 'NONE', #380, #78, #292 ) ;
#192 = AXIS2_PLACEMENT_3D ( 'NONE', #595, #121, #133 ) ;
#193 = EDGE_CURVE ( 'NONE', #140, #223, #394, .T. ) ;
#194 = DIRECTION ( 'NONE',  ( 0.000000000000000000, 0.000000000000000000, 1.000000000000000000 ) ) ;
#195 = CARTESIAN_POINT ( 'NONE',  ( 239.0000000000000000, 15.50000000000000000, -147.0000000000000284 ) ) ;
#196 = CIRCLE ( 'NONE', #424, 2.000000000000000000 ) ;
#197 = VERTEX_POINT ( 'NONE', #685 ) ;
#198 = AXIS2_PLACEMENT_3D ( 'NONE', #596, #779, #682 ) ;
#199 = DIRECTION ( 'NONE',  ( 0.000000000000000000, 1.000000000000000000, 0.000000000000000000 ) ) ;
#200 = EDGE_LOOP ( 'NONE', ( #126, #1016, #132, #220 ) ) ;
#201 = FACE_BOUND ( 'NONE', #692, .T. ) ;
#202 = CARTESIAN_POINT ( 'NONE',  ( 15.22999999999999332, 0.000000000000000000, -9.000000000000001776 ) ) ;
#203 = DIRECTION ( 'NONE',  ( 0.000000000000000000, 0.000000000000000000, -1.000000000000000000 ) ) ;
#204 = VECTOR ( 'NONE', #300, 1000.000000000000000 ) ;
#205 = EDGE_CURVE ( 'NONE', #636, #140, #670, .T. ) ;
#206 = CARTESIAN_POINT ( 'NONE',  ( 243.0000000000000000, 0.000000000000000000, -4.000000000000000000 ) ) ;
#207 = CARTESIAN_POINT ( 'NONE',  ( 15.23000000000000043, 2.000000000000000000, -142.0000000000000284 ) ) ;
#208 = VECTOR ( 'NONE', #924, 1000.000000000000000 ) ;
#209 = AXIS2_PLACEMENT_3D ( 'NONE', #207, #35, #501 ) ;
#210 = DIRECTION ( 'NONE',  ( -0.000000000000000000, -1.000000000000000000, -0.000000000000000000 ) ) ;
#211 = CARTESIAN_POINT ( 'NONE',  ( 239.0000000000000000, 16.50000000000000000, -150.0000000000000284 ) ) ;
#212 = DIRECTION ( 'NONE',  ( 0.000000000000000000, -1.000000000000000000, 0.000000000000000000 ) ) ;
#213 = LINE ( 'NONE', #497, #204 ) ;
#214 = CARTESIAN_POINT ( 'NONE',  ( 239.0000000000000000, 15.50000000000000000, -147.0000000000000284 ) ) ;
#215 = ORIENTED_EDGE ( 'NONE', *, *, #888, .F. ) ;
#216 = CARTESIAN_POINT ( 'NONE',  ( 233.3299999999999841, 0.000000000000000000, -143.7500000000000284 ) ) ;
#217 = CARTESIAN_POINT ( 'NONE',  ( 20.00000000000000000, 2.000000000000000000, -139.0000000000000000 ) ) ;
#218 = ADVANCED_FACE ( 'NONE', ( #871, #1064, #1055, #1060, #961, #103 ), #866, .T. ) ;
#219 = LINE ( 'NONE', #1175, #1047 ) ;
#220 = ORIENTED_EDGE ( 'NONE', *, *, #239, .T. ) ;
#221 = ADVANCED_FACE ( 'NONE', ( #496 ), #757, .T. ) ;
#222 = CIRCLE ( 'NONE', #87, 3.000000000000000000 ) ;
#223 = VERTEX_POINT ( 'NONE', #76 ) ;
#224 = PLANE ( 'NONE',  #192 ) ;
#225 = DIRECTION ( 'NONE',  ( -0.000000000000000000, 1.000000000000000000, -0.000000000000000000 ) ) ;
#226 = CIRCLE ( 'NONE', #71, 1.750000000000001554 ) ;
#227 = ORIENTED_EDGE ( 'NONE', *, *, #123, .F. ) ;
#228 = ORIENTED_EDGE ( 'NONE', *, *, #957, .T. ) ;
#229 = CARTESIAN_POINT ( 'NONE',  ( 4.000000000000000000, 16.50000000000000000, -4.000000000000000000 ) ) ;
#230 = DIRECTION ( 'NONE',  ( -0.000000000000000000, -1.000000000000000000, -0.000000000000000000 ) ) ;
#231 = ADVANCED_FACE ( 'NONE', ( #1124 ), #653, .T. ) ;
#232 = ORIENTED_EDGE ( 'NONE', *, *, #37, .T. ) ;
#233 = CARTESIAN_POINT ( 'NONE',  ( 2.000000000000000000, 16.50000000000000000, -2.000000000000000000 ) ) ;
#234 = ORIENTED_EDGE ( 'NONE', *, *, #904, .F. ) ;
#235 = ORIENTED_EDGE ( 'NONE', *, *, #764, .T. ) ;
#236 = LINE ( 'NONE', #589, #1067 ) ;
#237 = CARTESIAN_POINT ( 'NONE',  ( 243.0000000000000000, 15.50000000000000000, -4.000000000000000000 ) ) ;
#238 = VERTEX_POINT ( 'NONE', #456 ) ;
#239 = EDGE_CURVE ( 'NONE', #650, #1201, #187, .T. ) ;
#240 = EDGE_LOOP ( 'NONE', ( #1032, #1232, #1081, #710 ) ) ;
#241 = ORIENTED_EDGE ( 'NONE', *, *, #835, .T. ) ;
#242 = DIRECTION ( 'NONE',  ( 1.000000000000000000, 0.000000000000000000, -0.000000000000000000 ) ) ;
#243 = CIRCLE ( 'NONE', #664, 4.000000000000000000 ) ;
#244 = AXIS2_PLACEMENT_3D ( 'NONE', #874, #690, #1149 ) ;
#245 = LINE ( 'NONE', #813, #867 ) ;
#246 = DIRECTION ( 'NONE',  ( 0.000000000000000000, 1.000000000000000000, 0.000000000000000000 ) ) ;
#247 = ORIENTED_EDGE ( 'NONE', *, *, #1040, .F. ) ;
#248 = CIRCLE ( 'NONE', #467, 4.000000000000003553 ) ;
#249 = CIRCLE ( 'NONE', #1054, 3.000000000000002665 ) ;
#250 = ORIENTED_EDGE ( 'NONE', *, *, #278, .F. ) ;
#251 = CARTESIAN_POINT ( 'NONE',  ( 238.9999999999999432, 16.50000000000000000, -149.0000000000000284 ) ) ;
#252 = CARTESIAN_POINT ( 'NONE',  ( 0.000000000000000000, 2.000000000000000000, -4.000000000000000000 ) ) ;
#253 = ORIENTED_EDGE ( 'NONE', *, *, #12, .T. ) ;
#254 = EDGE_LOOP ( 'NONE', ( #991, #910, #60, #532, #1198, #339, #475, #241 ) ) ;
#255 = ORIENTED_EDGE ( 'NONE', *, *, #148, .F. ) ;
#256 = DIRECTION ( 'NONE',  ( -0.000000000000000000, 1.000000000000000000, -0.000000000000000000 ) ) ;
#257 = CARTESIAN_POINT ( 'NONE',  ( 239.0000000000000000, 16.50000000000000000, -4.000000000000000000 ) ) ;
#258 = LINE ( 'NONE', #1021, #1189 ) ;
#259 = EDGE_CURVE ( 'NONE', #718, #538, #352, .T. ) ;
#260 = ORIENTED_EDGE ( 'NONE', *, *, #1020, .F. ) ;
#261 = ORIENTED_EDGE ( 'NONE', *, *, #919, .T. ) ;
#262 = DIRECTION ( 'NONE',  ( 1.000000000000000000, 0.000000000000000000, 0.000000000000000000 ) ) ;
#263 = DIRECTION ( 'NONE',  ( 1.000000000000000000, 0.000000000000000000, 0.000000000000000000 ) ) ;
#264 = VECTOR ( 'NONE', #937, 1000.000000000000000 ) ;
#265 = EDGE_CURVE ( 'NONE', #1094, #326, #1140, .T. ) ;
#266 = AXIS2_PLACEMENT_3D ( 'NONE', #744, #1125, #263 ) ;
#267 = CARTESIAN_POINT ( 'NONE',  ( 241.0000000000000000, 16.50000000000000000, -2.000000000000000000 ) ) ;
#268 = VERTEX_POINT ( 'NONE', #277 ) ;
#269 = EDGE_LOOP ( 'NONE', ( #713, #135 ) ) ;
#270 = DIRECTION ( 'NONE',  ( 0.000000000000000000, 0.000000000000000000, -1.000000000000000000 ) ) ;
#271 = CARTESIAN_POINT ( 'NONE',  ( 15.22999999999999332, 2.000000000000000000, -9.000000000000001776 ) ) ;
#272 = AXIS2_PLACEMENT_3D ( 'NONE', #1153, #94, #945 ) ;
#273 = DIRECTION ( 'NONE',  ( 0.000000000000000000, 1.000000000000000000, 0.000000000000000000 ) ) ;
#274 = ORIENTED_EDGE ( 'NONE', *, *, #463, .T. ) ;
#275 = EDGE_CURVE ( 'NONE', #47, #268, #397, .T. ) ;
#276 = ORIENTED_EDGE ( 'NONE', *, *, #1059, .F. ) ;
#277 = CARTESIAN_POINT ( 'NONE',  ( 233.3299999999999841, 2.000000000000000000, -10.75000000000001066 ) ) ;
#278 = EDGE_CURVE ( 'NONE', #982, #909, #1204, .T. ) ;
#279 = LINE ( 'NONE', #82, #647 ) ;
#280 = DIRECTION ( 'NONE',  ( 0.000000000000000000, -0.000000000000000000, -1.000000000000000000 ) ) ;
#281 = CARTESIAN_POINT ( 'NONE',  ( 2.000000000000000000, 16.50000000000000000, -149.0000000000000284 ) ) ;
#282 = EDGE_CURVE ( 'NONE', #342, #326, #638, .T. ) ;
#283 = DIRECTION ( 'NONE',  ( 0.000000000000000000, 0.000000000000000000, -1.000000000000000000 ) ) ;
#284 = EDGE_CURVE ( 'NONE', #1200, #612, #371, .T. ) ;
#285 = EDGE_CURVE ( 'NONE', #382, #1058, #69, .T. ) ;
#286 = CARTESIAN_POINT ( 'NONE',  ( 242.0000000000000000, 15.50000000000000000, -4.000000000000000000 ) ) ;
#287 = LINE ( 'NONE', #1050, #351 ) ;
#288 = ORIENTED_EDGE ( 'NONE', *, *, #746, .F. ) ;
#289 = VECTOR ( 'NONE', #210, 1000.000000000000000 ) ;
#290 = VECTOR ( 'NONE', #455, 1000.000000000000000 ) ;
#291 = CARTESIAN_POINT ( 'NONE',  ( 243.0000000000000000, 2.000000000000000000, -147.0000000000000284 ) ) ;
#292 = DIRECTION ( 'NONE',  ( 0.000000000000000000, 0.000000000000000000, 1.000000000000000000 ) ) ;
#293 = CARTESIAN_POINT ( 'NONE',  ( 239.0000000000000000, 2.000000000000000000, -4.000000000000000000 ) ) ;
#294 = AXIS2_PLACEMENT_3D ( 'NONE', #1069, #320, #346 ) ;
#295 = DIRECTION ( 'NONE',  ( -0.000000000000000000, -1.000000000000000000, 0.000000000000000000 ) ) ;
#296 = AXIS2_PLACEMENT_3D ( 'NONE', #11, #1083, #775 ) ;
#297 = DIRECTION ( 'NONE',  ( 0.000000000000000000, 0.000000000000000000, 1.000000000000000000 ) ) ;
#298 = LINE ( 'NONE', #106, #502 ) ;
#299 = EDGE_CURVE ( 'NONE', #238, #120, #119, .T. ) ;
#300 = DIRECTION ( 'NONE',  ( -0.000000000000000000, -0.000000000000000000, 1.000000000000000000 ) ) ;
#301 = CARTESIAN_POINT ( 'NONE',  ( 15.22999999999999332, 2.000000000000000000, -7.250000000000000000 ) ) ;
#302 =( GEOMETRIC_REPRESENTATION_CONTEXT ( 3 ) GLOBAL_UNCERTAINTY_ASSIGNED_CONTEXT ( ( #1063 ) ) GLOBAL_UNIT_ASSIGNED_CONTEXT ( ( #1162, #691, #10 ) ) REPRESENTATION_CONTEXT ( 'NONE', 'WORKASPACE' ) );
#303 = VECTOR ( 'NONE', #310, 1000.000000000000000 ) ;
#304 = CARTESIAN_POINT ( 'NONE',  ( 0.000000000000000000, 2.000000000000000000, 0.000000000000000000 ) ) ;
#305 = EDGE_CURVE ( 'NONE', #823, #830, #729, .T. ) ;
#306 = AXIS2_PLACEMENT_3D ( 'NONE', #952, #1230, #90 ) ;
#307 = FACE_OUTER_BOUND ( 'NONE', #444, .T. ) ;
#308 = VERTEX_POINT ( 'NONE', #350 ) ;
#309 = EDGE_LOOP ( 'NONE', ( #276, #572, #51, #250 ) ) ;
#310 = DIRECTION ( 'NONE',  ( -0.000000000000000000, -1.000000000000000000, 0.000000000000000000 ) ) ;
#311 = LINE ( 'NONE', #878, #448 ) ;
#312 = ADVANCED_FACE ( 'NONE', ( #840 ), #1228, .T. ) ;
#313 = EDGE_CURVE ( 'NONE', #1201, #1094, #44, .T. ) ;
#314 = DIRECTION ( 'NONE',  ( 1.000000000000000000, 0.000000000000000000, 0.000000000000000000 ) ) ;
#315 = ORIENTED_EDGE ( 'NONE', *, *, #609, .F. ) ;
#316 = ORIENTED_EDGE ( 'NONE', *, *, #1075, .T. ) ;
#317 = DIRECTION ( 'NONE',  ( -1.000000000000000000, -0.000000000000000000, -0.000000000000000000 ) ) ;
#318 = DIRECTION ( 'NONE',  ( 0.000000000000000000, 0.000000000000000000, -1.000000000000000000 ) ) ;
#319 = MECHANICAL_DESIGN_GEOMETRIC_PRESENTATION_REPRESENTATION (  '', ( #367 ), #481 ) ;
#320 = DIRECTION ( 'NONE',  ( 0.000000000000000000, -0.000000000000000000, 1.000000000000000000 ) ) ;
#321 = ORIENTED_EDGE ( 'NONE', *, *, #904, .T. ) ;
#322 = CIRCLE ( 'NONE', #45, 1.000000000000000000 ) ;
#323 = VERTEX_POINT ( 'NONE', #763 ) ;
#324 = CARTESIAN_POINT ( 'NONE',  ( 20.00000000000000000, 2.000000000000000000, -14.00000000000000000 ) ) ;
#325 = CARTESIAN_POINT ( 'NONE',  ( 233.3299999999999841, 0.000000000000000000, -9.000000000000001776 ) ) ;
#326 = VERTEX_POINT ( 'NONE', #947 ) ;
#327 = CIRCLE ( 'NONE', #1031, 1.750000000000010214 ) ;
#328 = VERTEX_POINT ( 'NONE', #1143 ) ;
#329 = DIRECTION ( 'NONE',  ( -1.000000000000000000, 0.000000000000000000, 0.000000000000000000 ) ) ;
#330 = ORIENTED_EDGE ( 'NONE', *, *, #857, .F. ) ;
#331 = APPLICATION_CONTEXT ( 'automotive_design' ) ;
#332 = DIRECTION ( 'NONE',  ( 0.000000000000000000, 0.000000000000000000, -1.000000000000000000 ) ) ;
#333 = ORIENTED_EDGE ( 'NONE', *, *, #1119, .T. ) ;
#334 = VERTEX_POINT ( 'NONE', #1135 ) ;
#335 = EDGE_LOOP ( 'NONE', ( #925, #1026, #315, #1222 ) ) ;
#336 = FACE_OUTER_BOUND ( 'NONE', #676, .T. ) ;
#337 = DIRECTION ( 'NONE',  ( 0.000000000000000000, 0.000000000000000000, -1.000000000000000000 ) ) ;
#338 = CARTESIAN_POINT ( 'NONE',  ( 238.9999999999999432, 16.50000000000000000, -2.000000000000000000 ) ) ;
#339 = ORIENTED_EDGE ( 'NONE', *, *, #970, .T. ) ;
#340 = ORIENTED_EDGE ( 'NONE', *, *, #835, .F. ) ;
#341 = CARTESIAN_POINT ( 'NONE',  ( 239.0000000000000000, 16.50000000000000000, -4.000000000000000000 ) ) ;
#342 = VERTEX_POINT ( 'NONE', #1045 ) ;
#343 = CARTESIAN_POINT ( 'NONE',  ( 239.0000000000000000, 16.50000000000000000, -147.0000000000000000 ) ) ;
#344 = CIRCLE ( 'NONE', #1184, 4.000000000000000000 ) ;
#345 = AXIS2_PLACEMENT_3D ( 'NONE', #882, #753, #973 ) ;
#346 = DIRECTION ( 'NONE',  ( 1.000000000000000000, 0.000000000000000000, 0.000000000000000000 ) ) ;
#347 = ORIENTED_EDGE ( 'NONE', *, *, #524, .F. ) ;
#348 = EDGE_LOOP ( 'NONE', ( #1077, #437, #790, #52 ) ) ;
#349 = EDGE_LOOP ( 'NONE', ( #131, #600, #509, #807 ) ) ;
#350 = CARTESIAN_POINT ( 'NONE',  ( 2.000000000000000000, 16.50000000000000000, -3.999999999999999112 ) ) ;
#351 = VECTOR ( 'NONE', #569, 1000.000000000000000 ) ;
#352 = LINE ( 'NONE', #1109, #1107 ) ;
#353 = AXIS2_PLACEMENT_3D ( 'NONE', #304, #410, #1068 ) ;
#354 = CARTESIAN_POINT ( 'NONE',  ( 243.0000000000000000, 15.50000000000000000, -147.0000000000000284 ) ) ;
#355 = DIRECTION ( 'NONE',  ( 0.000000000000000000, 0.000000000000000000, 1.000000000000000000 ) ) ;
#356 = LINE ( 'NONE', #422, #548 ) ;
#357 = CARTESIAN_POINT ( 'NONE',  ( 243.0000000000000000, 0.000000000000000000, 0.000000000000000000 ) ) ;
#358 = ORIENTED_EDGE ( 'NONE', *, *, #37, .F. ) ;
#359 = ORIENTED_EDGE ( 'NONE', *, *, #651, .F. ) ;
#360 = ADVANCED_FACE ( 'NONE', ( #1242 ), #66, .T. ) ;
#361 = DIRECTION ( 'NONE',  ( 0.000000000000000000, 0.000000000000000000, 1.000000000000000000 ) ) ;
#362 = EDGE_CURVE ( 'NONE', #928, #1106, #84, .T. ) ;
#363 = DIRECTION ( 'NONE',  ( 0.000000000000000000, 0.000000000000000000, 1.000000000000000000 ) ) ;
#364 = VERTEX_POINT ( 'NONE', #151 ) ;
#365 = ORIENTED_EDGE ( 'NONE', *, *, #1008, .T. ) ;
#366 = CARTESIAN_POINT ( 'NONE',  ( 4.000000000000000000, 15.50000000000000000, -150.0000000000000284 ) ) ;
#367 = STYLED_ITEM ( 'NONE', ( #615 ), #966 ) ;
#368 = PLANE ( 'NONE',  #1112 ) ;
#369 = AXIS2_PLACEMENT_3D ( 'NONE', #341, #824, #1018 ) ;
#370 = ORIENTED_EDGE ( 'NONE', *, *, #533, .F. ) ;
#371 = LINE ( 'NONE', #439, #879 ) ;
#372 = AXIS2_PLACEMENT_3D ( 'NONE', #1195, #1006, #452 ) ;
#373 = LINE ( 'NONE', #1043, #999 ) ;
#374 = EDGE_CURVE ( 'NONE', #1002, #928, #427, .T. ) ;
#375 = CIRCLE ( 'NONE', #296, 1.750000000000001554 ) ;
#376 = DIRECTION ( 'NONE',  ( -1.000000000000000000, -0.000000000000000000, -0.000000000000000000 ) ) ;
#377 = ADVANCED_FACE ( 'NONE', ( #53 ), #1203, .T. ) ;
#378 = EDGE_LOOP ( 'NONE', ( #232, #431 ) ) ;
#379 = EDGE_CURVE ( 'NONE', #33, #238, #322, .T. ) ;
#380 = CARTESIAN_POINT ( 'NONE',  ( 233.3299999999999841, 0.000000000000000000, -142.0000000000000284 ) ) ;
#381 = CYLINDRICAL_SURFACE ( 'NONE', #1004, 4.000000000000000000 ) ;
#382 = VERTEX_POINT ( 'NONE', #829 ) ;
#383 = DIRECTION ( 'NONE',  ( 0.000000000000000000, 1.000000000000000000, 0.000000000000000000 ) ) ;
#384 = CARTESIAN_POINT ( 'NONE',  ( 243.0000000000000000, 0.000000000000000000, -147.0000000000000284 ) ) ;
#385 = VERTEX_POINT ( 'NONE', #163 ) ;
#386 = VECTOR ( 'NONE', #1169, 1000.000000000000000 ) ;
#387 = DIRECTION ( 'NONE',  ( 0.000000000000000000, 1.000000000000000000, -0.000000000000000000 ) ) ;
#388 = EDGE_CURVE ( 'NONE', #170, #703, #912, .T. ) ;
#389 = CYLINDRICAL_SURFACE ( 'NONE', #671, 1.750000000000001554 ) ;
#390 = CIRCLE ( 'NONE', #372, 4.000000000000003553 ) ;
#391 = EDGE_CURVE ( 'NONE', #268, #47, #709, .T. ) ;
#392 = ADVANCED_FACE ( 'NONE', ( #632 ), #62, .F. ) ;
#393 = DIRECTION ( 'NONE',  ( -0.000000000000000000, 1.000000000000000000, -0.000000000000000000 ) ) ;
#394 = LINE ( 'NONE', #679, #731 ) ;
#395 = ORIENTED_EDGE ( 'NONE', *, *, #1152, .F. ) ;
#396 = DIRECTION ( 'NONE',  ( -0.000000000000000000, 1.000000000000000000, -0.000000000000000000 ) ) ;
#397 = CIRCLE ( 'NONE', #1187, 1.750000000000010214 ) ;
#398 = FACE_OUTER_BOUND ( 'NONE', #240, .T. ) ;
#399 = CARTESIAN_POINT ( 'NONE',  ( 4.000000000000000000, 15.50000000000000000, -151.0000000000000284 ) ) ;
#400 = CARTESIAN_POINT ( 'NONE',  ( 241.0000000000000000, 16.50000000000000000, -146.9999999999999432 ) ) ;
#401 = ORIENTED_EDGE ( 'NONE', *, *, #588, .F. ) ;
#402 = CARTESIAN_POINT ( 'NONE',  ( 0.000000000000000000, 0.000000000000000000, -147.0000000000000284 ) ) ;
#403 = PLANE ( 'NONE',  #469 ) ;
#404 = ADVANCED_FACE ( 'NONE', ( #451 ), #1013, .T. ) ;
#405 = AXIS2_PLACEMENT_3D ( 'NONE', #1091, #1095, #337 ) ;
#406 = LINE ( 'NONE', #972, #86 ) ;
#407 = ORIENTED_EDGE ( 'NONE', *, *, #940, .T. ) ;
#408 = ORIENTED_EDGE ( 'NONE', *, *, #421, .F. ) ;
#409 = CARTESIAN_POINT ( 'NONE',  ( 242.0000000000000000, 16.50000000000000000, -4.000000000000000000 ) ) ;
#410 = DIRECTION ( 'NONE',  ( 1.000000000000000000, -0.000000000000000000, 0.000000000000000000 ) ) ;
#411 = ORIENTED_EDGE ( 'NONE', *, *, #588, .T. ) ;
#412 = LINE ( 'NONE', #512, #926 ) ;
#413 = EDGE_LOOP ( 'NONE', ( #542, #988, #73, #407 ) ) ;
#414 = ORIENTED_EDGE ( 'NONE', *, *, #574, .T. ) ;
#415 = CARTESIAN_POINT ( 'NONE',  ( 1.000000000000000000, 15.50000000000000000, -147.0000000000000284 ) ) ;
#416 = DIRECTION ( 'NONE',  ( 0.000000000000000000, 0.000000000000000000, 1.000000000000000000 ) ) ;
#417 = ORIENTED_EDGE ( 'NONE', *, *, #1210, .F. ) ;
#418 = ORIENTED_EDGE ( 'NONE', *, *, #1166, .F. ) ;
#419 = DIRECTION ( 'NONE',  ( 1.000000000000000000, 0.000000000000000000, 0.000000000000000000 ) ) ;
#420 = SURFACE_STYLE_USAGE ( .BOTH. , #1121 ) ;
#421 = EDGE_CURVE ( 'NONE', #382, #1009, #1137, .T. ) ;
#422 = CARTESIAN_POINT ( 'NONE',  ( 2.000000000000000000, 2.000000000000000000, -149.0000000000000284 ) ) ;
#423 = AXIS2_PLACEMENT_3D ( 'NONE', #856, #479, #774 ) ;
#424 = AXIS2_PLACEMENT_3D ( 'NONE', #805, #530, #1114 ) ;
#425 = ORIENTED_EDGE ( 'NONE', *, *, #1191, .T. ) ;
#426 = DIRECTION ( 'NONE',  ( 0.000000000000000000, 0.000000000000000000, 1.000000000000000000 ) ) ;
#427 = LINE ( 'NONE', #526, #544 ) ;
#428 = ORIENTED_EDGE ( 'NONE', *, *, #586, .T. ) ;
#429 = DIRECTION ( 'NONE',  ( 0.000000000000000000, 0.000000000000000000, 1.000000000000000000 ) ) ;
#430 = DIRECTION ( 'NONE',  ( 0.000000000000000000, 1.000000000000000000, -0.000000000000000000 ) ) ;
#431 = ORIENTED_EDGE ( 'NONE', *, *, #421, .T. ) ;
#432 = ORIENTED_EDGE ( 'NONE', *, *, #1042, .T. ) ;
#433 = DIRECTION ( 'NONE',  ( 0.000000000000000000, 0.000000000000000000, -1.000000000000000000 ) ) ;
#434 = ORIENTED_EDGE ( 'NONE', *, *, #978, .T. ) ;
#435 = FACE_OUTER_BOUND ( 'NONE', #349, .T. ) ;
#436 = DIRECTION ( 'NONE',  ( 0.000000000000000000, 0.000000000000000000, 1.000000000000000000 ) ) ;
#437 = ORIENTED_EDGE ( 'NONE', *, *, #93, .T. ) ;
#438 = EDGE_LOOP ( 'NONE', ( #519, #395, #1099, #2 ) ) ;
#439 = CARTESIAN_POINT ( 'NONE',  ( 15.23000000000000043, 0.000000000000000000, -140.2500000000000000 ) ) ;
#440 = CARTESIAN_POINT ( 'NONE',  ( 15.22999999999999332, 0.000000000000000000, -7.250000000000000000 ) ) ;
#441 = VECTOR ( 'NONE', #1037, 1000.000000000000000 ) ;
#442 = EDGE_CURVE ( 'NONE', #909, #1015, #226, .T. ) ;
#443 = LINE ( 'NONE', #1219, #1052 ) ;
#444 = EDGE_LOOP ( 'NONE', ( #174, #75, #359, #401 ) ) ;
#445 = EDGE_CURVE ( 'NONE', #697, #1201, #412, .T. ) ;
#446 = ORIENTED_EDGE ( 'NONE', *, *, #960, .T. ) ;
#447 = VERTEX_POINT ( 'NONE', #893 ) ;
#448 = VECTOR ( 'NONE', #488, 1000.000000000000000 ) ;
#449 = EDGE_CURVE ( 'NONE', #1118, #197, #687, .T. ) ;
#450 = DIRECTION ( 'NONE',  ( -0.000000000000000000, 1.000000000000000000, -0.000000000000000000 ) ) ;
#451 = FACE_OUTER_BOUND ( 'NONE', #200, .T. ) ;
#452 = DIRECTION ( 'NONE',  ( 0.000000000000000000, 0.000000000000000000, -1.000000000000000000 ) ) ;
#453 = EDGE_LOOP ( 'NONE', ( #428, #918, #65, #599, #643, #261, #414, #883 ) ) ;
#454 = VERTEX_POINT ( 'NONE', #57 ) ;
#455 = DIRECTION ( 'NONE',  ( -1.000000000000000000, 0.000000000000000000, 0.000000000000000000 ) ) ;
#456 = CARTESIAN_POINT ( 'NONE',  ( 239.0000000000000000, 16.50000000000000000, -1.000000000000000000 ) ) ;
#457 = FACE_OUTER_BOUND ( 'NONE', #309, .T. ) ;
#458 = CARTESIAN_POINT ( 'NONE',  ( 233.3299999999999841, 2.000000000000000000, -142.0000000000000284 ) ) ;
#459 = ADVANCED_FACE ( 'NONE', ( #72 ), #734, .T. ) ;
#460 = ORIENTED_EDGE ( 'NONE', *, *, #97, .F. ) ;
#461 = LINE ( 'NONE', #751, #562 ) ;
#462 = DIRECTION ( 'NONE',  ( -0.000000000000000000, 1.000000000000000000, -0.000000000000000000 ) ) ;
#463 = EDGE_CURVE ( 'NONE', #68, #527, #390, .T. ) ;
#464 = CARTESIAN_POINT ( 'NONE',  ( 20.00000000000000000, 0.000000000000000000, -14.00000000000000000 ) ) ;
#465 = AXIS2_PLACEMENT_3D ( 'NONE', #202, #26, #575 ) ;
#466 = DIRECTION ( 'NONE',  ( 0.000000000000000000, 0.000000000000000000, -1.000000000000000000 ) ) ;
#467 = AXIS2_PLACEMENT_3D ( 'NONE', #136, #898, #43 ) ;
#468 = CARTESIAN_POINT ( 'NONE',  ( 0.000000000000000000, 15.50000000000000000, -150.0000000000000284 ) ) ;
#469 = AXIS2_PLACEMENT_3D ( 'NONE', #128, #505, #870 ) ;
#470 = LINE ( 'NONE', #1147, #23 ) ;
#471 = CARTESIAN_POINT ( 'NONE',  ( 239.0000000000000000, 15.50000000000000000, -4.000000000000000000 ) ) ;
#472 = CYLINDRICAL_SURFACE ( 'NONE', #101, 1.000000000000000888 ) ;
#473 = CARTESIAN_POINT ( 'NONE',  ( 15.22999999999999332, 2.000000000000000000, -10.75000000000000178 ) ) ;
#474 = DIRECTION ( 'NONE',  ( 0.000000000000000000, 1.000000000000000000, 0.000000000000000000 ) ) ;
#475 = ORIENTED_EDGE ( 'NONE', *, *, #305, .T. ) ;
#476 = ADVANCED_FACE ( 'NONE', ( #1199 ), #837, .F. ) ;
#477 = CARTESIAN_POINT ( 'NONE',  ( 0.000000000000000000, 0.000000000000000000, -4.000000000000000000 ) ) ;
#478 = CARTESIAN_POINT ( 'NONE',  ( 20.00000000000000000, 0.000000000000000000, -14.00000000000000000 ) ) ;
#479 = DIRECTION ( 'NONE',  ( 0.000000000000000000, -1.000000000000000000, 0.000000000000000000 ) ) ;
#480 = EDGE_CURVE ( 'NONE', #1200, #323, #566, .T. ) ;
#481 =( GEOMETRIC_REPRESENTATION_CONTEXT ( 3 ) GLOBAL_UNCERTAINTY_ASSIGNED_CONTEXT ( ( #980 ) ) GLOBAL_UNIT_ASSIGNED_CONTEXT ( ( #714, #608, #1194 ) ) REPRESENTATION_CONTEXT ( 'NONE', 'WORKASPACE' ) );
#482 = EDGE_CURVE ( 'NONE', #718, #308, #196, .T. ) ;
#483 = CIRCLE ( 'NONE', #1049, 1.000000000000000000 ) ;
#484 = CARTESIAN_POINT ( 'NONE',  ( 15.23000000000000043, 0.000000000000000000, -140.2500000000000000 ) ) ;
#485 = CARTESIAN_POINT ( 'NONE',  ( 243.0000000000000000, 15.50000000000000000, 0.000000000000000000 ) ) ;
#486 = DIRECTION ( 'NONE',  ( -1.000000000000000000, -0.000000000000000000, -0.000000000000000000 ) ) ;
#487 = ORIENTED_EDGE ( 'NONE', *, *, #712, .F. ) ;
#488 = DIRECTION ( 'NONE',  ( 1.000000000000000000, 0.000000000000000000, 0.000000000000000000 ) ) ;
#489 = EDGE_CURVE ( 'NONE', #159, #197, #1014, .T. ) ;
#490 = FACE_OUTER_BOUND ( 'NONE', #908, .T. ) ;
#491 = ADVANCED_FACE ( 'NONE', ( #435 ), #1104, .T. ) ;
#492 = LINE ( 'NONE', #141, #701 ) ;
#493 = DIRECTION ( 'NONE',  ( -0.000000000000000000, -0.000000000000000000, 1.000000000000000000 ) ) ;
#494 = EDGE_CURVE ( 'NONE', #834, #1058, #962, .T. ) ;
#495 = AXIS2_PLACEMENT_3D ( 'NONE', #343, #567, #648 ) ;
#496 = FACE_OUTER_BOUND ( 'NONE', #656, .T. ) ;
#497 = CARTESIAN_POINT ( 'NONE',  ( 0.000000000000000000, 0.000000000000000000, 0.000000000000000000 ) ) ;
#498 = LINE ( 'NONE', #593, #264 ) ;
#499 = ORIENTED_EDGE ( 'NONE', *, *, #494, .F. ) ;
#500 = LINE ( 'NONE', #48, #171 ) ;
#501 = DIRECTION ( 'NONE',  ( 0.000000000000000000, 0.000000000000000000, 1.000000000000000000 ) ) ;
#502 = VECTOR ( 'NONE', #396, 1000.000000000000000 ) ;
#503 = EDGE_LOOP ( 'NONE', ( #938, #137 ) ) ;
#504 = EDGE_LOOP ( 'NONE', ( #499, #557 ) ) ;
#505 = DIRECTION ( 'NONE',  ( 0.000000000000000000, 0.000000000000000000, 1.000000000000000000 ) ) ;
#506 = ORIENTED_EDGE ( 'NONE', *, *, #960, .F. ) ;
#507 = ADVANCED_FACE ( 'NONE', ( #722 ), #1224, .F. ) ;
#508 = ORIENTED_EDGE ( 'NONE', *, *, #1024, .T. ) ;
#509 = ORIENTED_EDGE ( 'NONE', *, *, #489, .F. ) ;
#510 = CARTESIAN_POINT ( 'NONE',  ( 243.0000000000000000, 2.000000000000000000, -4.000000000000000000 ) ) ;
#511 = FACE_OUTER_BOUND ( 'NONE', #154, .T. ) ;
#512 = CARTESIAN_POINT ( 'NONE',  ( 20.00000000000000000, 0.000000000000000000, -14.00000000000000000 ) ) ;
#513 = DIRECTION ( 'NONE',  ( 0.000000000000000000, 1.000000000000000000, 0.000000000000000000 ) ) ;
#514 = CLOSED_SHELL ( 'NONE', ( #1074, #1167, #179, #728, #699, #218, #806, #812, #56, #144, #404, #77, #231, #974, #109, #377, #312, #459, #869, #965, #476, #766, #717, #507, #392, #776, #1164, #36, #221, #672, #491, #1, #1126, #15, #173, #360, #942, #929, #3 ) ) ;
#515 = CIRCLE ( 'NONE', #665, 1.750000000000000666 ) ;
#516 = ORIENTED_EDGE ( 'NONE', *, *, #1152, .T. ) ;
#517 = DIRECTION ( 'NONE',  ( -1.000000000000000000, 0.000000000000000000, -0.000000000000000000 ) ) ;
#518 = CIRCLE ( 'NONE', #465, 1.750000000000000666 ) ;
#519 = ORIENTED_EDGE ( 'NONE', *, *, #265, .F. ) ;
#520 = ORIENTED_EDGE ( 'NONE', *, *, #1075, .F. ) ;
#521 = DIRECTION ( 'NONE',  ( 0.000000000000000000, 0.000000000000000000, -1.000000000000000000 ) ) ;
#522 = DIRECTION ( 'NONE',  ( -0.000000000000000000, 1.000000000000000000, -0.000000000000000000 ) ) ;
#523 = DIRECTION ( 'NONE',  ( 0.000000000000000000, 0.000000000000000000, 1.000000000000000000 ) ) ;
#524 = EDGE_CURVE ( 'NONE', #38, #149, #1096, .T. ) ;
#525 = AXIS2_PLACEMENT_3D ( 'NONE', #1216, #534, #1103 ) ;
#526 = CARTESIAN_POINT ( 'NONE',  ( 239.0000000000000000, 16.50000000000000000, -149.0000000000000284 ) ) ;
#527 = VERTEX_POINT ( 'NONE', #64 ) ;
#528 = ORIENTED_EDGE ( 'NONE', *, *, #265, .T. ) ;
#529 = FACE_OUTER_BOUND ( 'NONE', #531, .T. ) ;
#530 = DIRECTION ( 'NONE',  ( 0.000000000000000000, -1.000000000000000000, 0.000000000000000000 ) ) ;
#531 = EDGE_LOOP ( 'NONE', ( #166, #778, #838, #235 ) ) ;
#532 = ORIENTED_EDGE ( 'NONE', *, *, #299, .T. ) ;
#533 = EDGE_CURVE ( 'NONE', #223, #33, #443, .T. ) ;
#534 = DIRECTION ( 'NONE',  ( -1.000000000000000000, 0.000000000000000000, 0.000000000000000000 ) ) ;
#535 = EDGE_CURVE ( 'NONE', #1180, #1197, #248, .T. ) ;
#536 = CARTESIAN_POINT ( 'NONE',  ( 4.000000000000000000, 16.50000000000000000, -4.000000000000000000 ) ) ;
#537 = CARTESIAN_POINT ( 'NONE',  ( 233.3299999999999841, 2.000000000000000000, -9.000000000000001776 ) ) ;
#538 = VERTEX_POINT ( 'NONE', #338 ) ;
#539 = ORIENTED_EDGE ( 'NONE', *, *, #1062, .F. ) ;
#540 = AXIS2_PLACEMENT_3D ( 'NONE', #184, #765, #1243 ) ;
#541 = CIRCLE ( 'NONE', #495, 2.000000000000001776 ) ;
#542 = ORIENTED_EDGE ( 'NONE', *, *, #1156, .F. ) ;
#543 = LINE ( 'NONE', #990, #1071 ) ;
#544 = VECTOR ( 'NONE', #711, 1000.000000000000000 ) ;
#545 = CARTESIAN_POINT ( 'NONE',  ( 4.000000000000000000, 2.000000000000000000, -149.0000000000000284 ) ) ;
#546 = EDGE_LOOP ( 'NONE', ( #1000, #716, #508, #185 ) ) ;
#547 = ORIENTED_EDGE ( 'NONE', *, *, #725, .F. ) ;
#548 = VECTOR ( 'NONE', #617, 1000.000000000000000 ) ;
#549 = DIRECTION ( 'NONE',  ( 0.000000000000000000, 1.000000000000000000, 0.000000000000000000 ) ) ;
#550 = DIRECTION ( 'NONE',  ( 0.000000000000000000, 0.000000000000000000, -1.000000000000000000 ) ) ;
#551 = FACE_BOUND ( 'NONE', #504, .T. ) ;
#552 = EDGE_LOOP ( 'NONE', ( #737, #1093, #506, #724 ) ) ;
#553 = EDGE_CURVE ( 'NONE', #975, #606, #245, .T. ) ;
#554 = LINE ( 'NONE', #291, #386 ) ;
#555 = DIRECTION ( 'NONE',  ( 0.000000000000000000, 0.000000000000000000, 1.000000000000000000 ) ) ;
#556 = DIRECTION ( 'NONE',  ( 0.000000000000000000, 0.000000000000000000, -1.000000000000000000 ) ) ;
#557 = ORIENTED_EDGE ( 'NONE', *, *, #1119, .F. ) ;
#558 = ORIENTED_EDGE ( 'NONE', *, *, #58, .T. ) ;
#559 = CARTESIAN_POINT ( 'NONE',  ( 20.00000000000000000, 2.000000000000000000, -14.00000000000000000 ) ) ;
#560 = VERTEX_POINT ( 'NONE', #237 ) ;
#561 = CARTESIAN_POINT ( 'NONE',  ( 233.3299999999999841, 0.000000000000000000, -140.2500000000000000 ) ) ;
#562 = VECTOR ( 'NONE', #836, 1000.000000000000000 ) ;
#563 = DIRECTION ( 'NONE',  ( 0.000000000000000000, 0.000000000000000000, 1.000000000000000000 ) ) ;
#564 = VECTOR ( 'NONE', #256, 1000.000000000000000 ) ;
#565 = FACE_OUTER_BOUND ( 'NONE', #833, .T. ) ;
#566 = CIRCLE ( 'NONE', #150, 1.750000000000001554 ) ;
#567 = DIRECTION ( 'NONE',  ( 0.000000000000000000, -1.000000000000000000, 0.000000000000000000 ) ) ;
#568 = AXIS2_PLACEMENT_3D ( 'NONE', #325, #624, #1111 ) ;
#569 = DIRECTION ( 'NONE',  ( -0.000000000000000000, 1.000000000000000000, -0.000000000000000000 ) ) ;
#570 = DIRECTION ( 'NONE',  ( 0.000000000000000000, -1.000000000000000000, 0.000000000000000000 ) ) ;
#571 = CARTESIAN_POINT ( 'NONE',  ( 233.3299999999999841, 0.000000000000000000, -143.7500000000000284 ) ) ;
#572 = ORIENTED_EDGE ( 'NONE', *, *, #1038, .T. ) ;
#573 = DIRECTION ( 'NONE',  ( 0.000000000000000000, -1.000000000000000000, 0.000000000000000000 ) ) ;
#574 = EDGE_CURVE ( 'NONE', #1002, #385, #356, .T. ) ;
#575 = DIRECTION ( 'NONE',  ( 0.000000000000000000, 0.000000000000000000, 1.000000000000000000 ) ) ;
#576 = DIRECTION ( 'NONE',  ( 1.000000000000000000, 0.000000000000000000, 0.000000000000000000 ) ) ;
#577 = CARTESIAN_POINT ( 'NONE',  ( 233.3299999999999841, 0.000000000000000000, -7.249999999999991118 ) ) ;
#578 = VECTOR ( 'NONE', #598, 1000.000000000000000 ) ;
#579 = EDGE_CURVE ( 'NONE', #637, #30, #327, .T. ) ;
#580 = CARTESIAN_POINT ( 'NONE',  ( 15.22999999999999332, 0.000000000000000000, -9.000000000000001776 ) ) ;
#581 = CIRCLE ( 'NONE', #306, 2.000000000000001776 ) ;
#582 = APPLICATION_CONTEXT ( 'automotive_design' ) ;
#583 = EDGE_LOOP ( 'NONE', ( #316, #799, #895, #340 ) ) ;
#584 = DIRECTION ( 'NONE',  ( 0.000000000000000000, 1.000000000000000000, -0.000000000000000000 ) ) ;
#585 = CIRCLE ( 'NONE', #568, 1.750000000000010214 ) ;
#586 = EDGE_CURVE ( 'NONE', #975, #1039, #258, .T. ) ;
#587 = LINE ( 'NONE', #777, #750 ) ;
#588 = EDGE_CURVE ( 'NONE', #1106, #385, #169, .T. ) ;
#589 = CARTESIAN_POINT ( 'NONE',  ( 2.000000000000000000, 2.000000000000000000, -4.000000000000000000 ) ) ;
#590 = CARTESIAN_POINT ( 'NONE',  ( 4.000000000000000000, 16.50000000000000000, -147.0000000000000284 ) ) ;
#591 = DIRECTION ( 'NONE',  ( 0.000000000000000000, 0.000000000000000000, 1.000000000000000000 ) ) ;
#592 = CARTESIAN_POINT ( 'NONE',  ( 0.000000000000000000, 15.50000000000000000, -147.0000000000000284 ) ) ;
#593 = CARTESIAN_POINT ( 'NONE',  ( 239.0000000000000000, 2.000000000000000000, -151.0000000000000284 ) ) ;
#594 = ORIENTED_EDGE ( 'NONE', *, *, #31, .F. ) ;
#595 = CARTESIAN_POINT ( 'NONE',  ( 0.000000000000000000, 2.000000000000000000, -151.0000000000000284 ) ) ;
#596 = CARTESIAN_POINT ( 'NONE',  ( 4.000000000000000000, 16.50000000000000000, -147.0000000000000284 ) ) ;
#597 = VECTOR ( 'NONE', #1202, 1000.000000000000000 ) ;
#598 = DIRECTION ( 'NONE',  ( 1.000000000000000000, -0.000000000000000000, -0.000000000000000000 ) ) ;
#599 = ORIENTED_EDGE ( 'NONE', *, *, #609, .T. ) ;
#600 = ORIENTED_EDGE ( 'NONE', *, *, #1020, .T. ) ;
#601 = DIRECTION ( 'NONE',  ( -0.000000000000000000, 1.000000000000000000, -0.000000000000000000 ) ) ;
#602 = FACE_OUTER_BOUND ( 'NONE', #1023, .T. ) ;
#603 = AXIS2_PLACEMENT_3D ( 'NONE', #172, #74, #1226 ) ;
#604 = EDGE_CURVE ( 'NONE', #323, #1200, #949, .T. ) ;
#605 = ORIENTED_EDGE ( 'NONE', *, *, #442, .F. ) ;
#606 = VERTEX_POINT ( 'NONE', #1044 ) ;
#607 = CARTESIAN_POINT ( 'NONE',  ( 4.000000000000000000, 0.000000000000000000, 0.000000000000000000 ) ) ;
#608 =( NAMED_UNIT ( * ) PLANE_ANGLE_UNIT ( ) SI_UNIT ( $, .RADIAN. ) );
#609 = EDGE_CURVE ( 'NONE', #328, #334, #1134, .T. ) ;
#610 = EDGE_LOOP ( 'NONE', ( #921, #487, #247, #165 ) ) ;
#611 = CARTESIAN_POINT ( 'NONE',  ( 239.0000000000000000, 15.50000000000000000, -1.000000000000000000 ) ) ;
#612 = VERTEX_POINT ( 'NONE', #6 ) ;
#613 = ORIENTED_EDGE ( 'NONE', *, *, #391, .F. ) ;
#614 = DIRECTION ( 'NONE',  ( 8.673617379884035472E-16, 0.000000000000000000, -1.000000000000000000 ) ) ;
#615 = PRESENTATION_STYLE_ASSIGNMENT (( #420 ) ) ;
#616 = ORIENTED_EDGE ( 'NONE', *, *, #919, .F. ) ;
#617 = DIRECTION ( 'NONE',  ( -1.000000000000000000, -0.000000000000000000, -0.000000000000000000 ) ) ;
#618 = CIRCLE ( 'NONE', #645, 4.000000000000000000 ) ;
#619 = VECTOR ( 'NONE', #1223, 1000.000000000000000 ) ;
#620 = ORIENTED_EDGE ( 'NONE', *, *, #193, .F. ) ;
#621 = VECTOR ( 'NONE', #846, 1000.000000000000000 ) ;
#622 = ORIENTED_EDGE ( 'NONE', *, *, #946, .T. ) ;
#623 = VERTEX_POINT ( 'NONE', #759 ) ;
#624 = DIRECTION ( 'NONE',  ( 0.000000000000000000, 1.000000000000000000, 0.000000000000000000 ) ) ;
#625 = DIRECTION ( 'NONE',  ( 0.000000000000000000, -1.000000000000000000, 0.000000000000000000 ) ) ;
#626 = AXIS2_PLACEMENT_3D ( 'NONE', #195, #844, #100 ) ;
#627 = CIRCLE ( 'NONE', #198, 2.000000000000001776 ) ;
#628 = EDGE_LOOP ( 'NONE', ( #446, #738, #520, #91 ) ) ;
#629 = EDGE_CURVE ( 'NONE', #560, #33, #853, .T. ) ;
#630 = ORIENTED_EDGE ( 'NONE', *, *, #259, .T. ) ;
#631 = CARTESIAN_POINT ( 'NONE',  ( 242.0000000000000000, 16.50000000000000000, -147.0000000000000284 ) ) ;
#632 = FACE_OUTER_BOUND ( 'NONE', #335, .T. ) ;
#633 = CARTESIAN_POINT ( 'NONE',  ( 241.0000000000000000, 2.000000000000000000, -147.0000000000000000 ) ) ;
#634 = ORIENTED_EDGE ( 'NONE', *, *, #946, .F. ) ;
#635 = DIRECTION ( 'NONE',  ( 0.000000000000000000, 1.000000000000000000, 0.000000000000000000 ) ) ;
#636 = VERTEX_POINT ( 'NONE', #666 ) ;
#637 = VERTEX_POINT ( 'NONE', #860 ) ;
#638 = LINE ( 'NONE', #933, #20 ) ;
#639 = CARTESIAN_POINT ( 'NONE',  ( 239.0000000000000000, 2.000000000000000000, -147.0000000000000000 ) ) ;
#640 = DIRECTION ( 'NONE',  ( 0.000000000000000000, 1.000000000000000000, 0.000000000000000000 ) ) ;
#641 = PRODUCT ( 'Geh\X2\00e4\X0\use_Waveshare_R\X2\00fc\X0\ckwand_Rand', 'Geh\X2\00e4\X0\use_Waveshare_R\X2\00fc\X0\ckwand_Rand', '', ( #1159 ) ) ;
#642 = DIRECTION ( 'NONE',  ( -0.000000000000000000, 1.000000000000000000, -0.000000000000000000 ) ) ;
#643 = ORIENTED_EDGE ( 'NONE', *, *, #95, .T. ) ;
#644 = ORIENTED_EDGE ( 'NONE', *, *, #278, .T. ) ;
#645 = AXIS2_PLACEMENT_3D ( 'NONE', #1046, #190, #876 ) ;
#646 = CARTESIAN_POINT ( 'NONE',  ( 0.000000000000000000, 16.50000000000000000, -150.0000000000000284 ) ) ;
#647 = VECTOR ( 'NONE', #943, 1000.000000000000000 ) ;
#648 = DIRECTION ( 'NONE',  ( 0.000000000000000000, 0.000000000000000000, -1.000000000000000000 ) ) ;
#649 = CARTESIAN_POINT ( 'NONE',  ( 0.000000000000000000, 0.000000000000000000, -151.0000000000000284 ) ) ;
#650 = VERTEX_POINT ( 'NONE', #769 ) ;
#651 = EDGE_CURVE ( 'NONE', #385, #975, #581, .T. ) ;
#652 = EDGE_LOOP ( 'NONE', ( #755, #260, #321, #1212 ) ) ;
#653 = PLANE ( 'NONE',  #1163 ) ;
#654 = CYLINDRICAL_SURFACE ( 'NONE', #1233, 1.000000000000000888 ) ;
#655 = DIRECTION ( 'NONE',  ( 0.000000000000000000, 0.000000000000000000, 1.000000000000000000 ) ) ;
#656 = EDGE_LOOP ( 'NONE', ( #1172, #797, #1190, #460 ) ) ;
#657 = ORIENTED_EDGE ( 'NONE', *, *, #1059, .T. ) ;
#658 = CARTESIAN_POINT ( 'NONE',  ( 223.0000000000000000, 2.000000000000000000, -14.00000000000000000 ) ) ;
#659 = CARTESIAN_POINT ( 'NONE',  ( 3.999999999999999112, 16.50000000000000000, -149.0000000000000284 ) ) ;
#660 = LINE ( 'NONE', #182, #831 ) ;
#661 = DIRECTION ( 'NONE',  ( 0.000000000000000000, -1.000000000000000000, 0.000000000000000000 ) ) ;
#662 = CARTESIAN_POINT ( 'NONE',  ( 4.000000000000000000, 2.000000000000000000, -147.0000000000000284 ) ) ;
#663 = CYLINDRICAL_SURFACE ( 'NONE', #1084, 1.750000000000001554 ) ;
#664 = AXIS2_PLACEMENT_3D ( 'NONE', #176, #673, #550 ) ;
#665 = AXIS2_PLACEMENT_3D ( 'NONE', #271, #383, #188 ) ;
#666 = CARTESIAN_POINT ( 'NONE',  ( 4.000000000000000000, 15.50000000000000000, 0.000000000000000000 ) ) ;
#667 = VECTOR ( 'NONE', #175, 1000.000000000000000 ) ;
#668 = DIRECTION ( 'NONE',  ( 0.000000000000000000, 0.000000000000000000, -1.000000000000000000 ) ) ;
#669 = PRODUCT_RELATED_PRODUCT_CATEGORY ( 'part', '', ( #641 ) ) ;
#670 = LINE ( 'NONE', #1076, #944 ) ;
#671 = AXIS2_PLACEMENT_3D ( 'NONE', #1133, #1036, #1158 ) ;
#672 = ADVANCED_FACE ( 'NONE', ( #1029 ), #381, .T. ) ;
#673 = DIRECTION ( 'NONE',  ( 0.000000000000000000, -1.000000000000000000, 0.000000000000000000 ) ) ;
#674 = AXIS2_PLACEMENT_3D ( 'NONE', #788, #1078, #976 ) ;
#675 = CARTESIAN_POINT ( 'NONE',  ( 15.23000000000000043, 0.000000000000000000, -142.0000000000000284 ) ) ;
#676 = EDGE_LOOP ( 'NONE', ( #1088, #1220, #432, #516 ) ) ;
#677 = CYLINDRICAL_SURFACE ( 'NONE', #1027, 1.750000000000010214 ) ;
#678 = CARTESIAN_POINT ( 'NONE',  ( 15.22999999999999332, 0.000000000000000000, -9.000000000000001776 ) ) ;
#679 = CARTESIAN_POINT ( 'NONE',  ( 0.000000000000000000, 0.000000000000000000, 0.000000000000000000 ) ) ;
#680 = DIRECTION ( 'NONE',  ( 0.000000000000000000, 0.000000000000000000, 1.000000000000000000 ) ) ;
#681 = ORIENTED_EDGE ( 'NONE', *, *, #1166, .T. ) ;
#682 = DIRECTION ( 'NONE',  ( 0.000000000000000000, 0.000000000000000000, -1.000000000000000000 ) ) ;
#683 = AXIS2_PLACEMENT_3D ( 'NONE', #662, #295, #668 ) ;
#684 = EDGE_CURVE ( 'NONE', #364, #932, #1168, .T. ) ;
#685 = CARTESIAN_POINT ( 'NONE',  ( 0.000000000000000000, 15.50000000000000000, -4.000000000000000000 ) ) ;
#686 = DIRECTION ( 'NONE',  ( -0.000000000000000000, 1.000000000000000000, -0.000000000000000000 ) ) ;
#687 = CIRCLE ( 'NONE', #294, 1.000000000000000000 ) ;
#688 = DIRECTION ( 'NONE',  ( -1.000000000000000000, 0.000000000000000000, -0.000000000000000000 ) ) ;
#689 = VECTOR ( 'NONE', #203, 1000.000000000000000 ) ;
#690 = DIRECTION ( 'NONE',  ( 0.000000000000000000, -1.000000000000000000, 0.000000000000000000 ) ) ;
#691 =( NAMED_UNIT ( * ) PLANE_ANGLE_UNIT ( ) SI_UNIT ( $, .RADIAN. ) );
#692 = EDGE_LOOP ( 'NONE', ( #539, #1213, #147, #696 ) ) ;
#693 = EDGE_LOOP ( 'NONE', ( #605, #180 ) ) ;
#694 = CYLINDRICAL_SURFACE ( 'NONE', #906, 1.750000000000000666 ) ;
#695 = FACE_OUTER_BOUND ( 'NONE', #742, .T. ) ;
#696 = ORIENTED_EDGE ( 'NONE', *, *, #1042, .F. ) ;
#697 = VERTEX_POINT ( 'NONE', #178 ) ;
#698 = FACE_OUTER_BOUND ( 'NONE', #348, .T. ) ;
#699 = ADVANCED_FACE ( 'NONE', ( #1057, #551, #189, #752, #931, #201 ), #368, .F. ) ;
#700 = CIRCLE ( 'NONE', #191, 1.750000000000001554 ) ;
#701 = VECTOR ( 'NONE', #1082, 1000.000000000000000 ) ;
#702 = EDGE_CURVE ( 'NONE', #342, #749, #470, .T. ) ;
#703 = VERTEX_POINT ( 'NONE', #384 ) ;
#704 = EDGE_CURVE ( 'NONE', #42, #527, #955, .T. ) ;
#705 = ORIENTED_EDGE ( 'NONE', *, *, #841, .T. ) ;
#706 = PLANE ( 'NONE',  #770 ) ;
#707 = LINE ( 'NONE', #1019, #153 ) ;
#708 = ORIENTED_EDGE ( 'NONE', *, *, #449, .F. ) ;
#709 = CIRCLE ( 'NONE', #107, 1.750000000000010214 ) ;
#710 = ORIENTED_EDGE ( 'NONE', *, *, #814, .F. ) ;
#711 = DIRECTION ( 'NONE',  ( 0.000000000000000000, 1.000000000000000000, -0.000000000000000000 ) ) ;
#712 = EDGE_CURVE ( 'NONE', #80, #718, #287, .T. ) ;
#713 = ORIENTED_EDGE ( 'NONE', *, *, #480, .T. ) ;
#714 =( LENGTH_UNIT ( ) NAMED_UNIT ( * ) SI_UNIT ( .MILLI., .METRE. ) );
#715 = DIRECTION ( 'NONE',  ( 0.000000000000000000, 1.000000000000000000, 0.000000000000000000 ) ) ;
#716 = ORIENTED_EDGE ( 'NONE', *, *, #1231, .T. ) ;
#717 = ADVANCED_FACE ( 'NONE', ( #1245 ), #389, .F. ) ;
#718 = VERTEX_POINT ( 'NONE', #79 ) ;
#719 = ORIENTED_EDGE ( 'NONE', *, *, #205, .T. ) ;
#720 = DIRECTION ( 'NONE',  ( 0.000000000000000000, 0.000000000000000000, 1.000000000000000000 ) ) ;
#721 = EDGE_CURVE ( 'NONE', #1015, #909, #1217, .T. ) ;
#722 = FACE_OUTER_BOUND ( 'NONE', #610, .T. ) ;
#723 = DIRECTION ( 'NONE',  ( 0.000000000000000000, 0.000000000000000000, -1.000000000000000000 ) ) ;
#724 = ORIENTED_EDGE ( 'NONE', *, *, #970, .F. ) ;
#725 = EDGE_CURVE ( 'NONE', #623, #38, #660, .T. ) ;
#726 = CIRCLE ( 'NONE', #117, 1.000000000000000888 ) ;
#727 = EDGE_LOOP ( 'NONE', ( #809, #1186, #234, #255 ) ) ;
#728 = ADVANCED_FACE ( 'NONE', ( #1237 ), #936, .F. ) ;
#729 = LINE ( 'NONE', #646, #290 ) ;
#730 = DIRECTION ( 'NONE',  ( 0.000000000000000000, 0.000000000000000000, -1.000000000000000000 ) ) ;
#731 = VECTOR ( 'NONE', #782, 1000.000000000000000 ) ;
#732 = ORIENTED_EDGE ( 'NONE', *, *, #1138, .F. ) ;
#733 = DIRECTION ( 'NONE',  ( 0.000000000000000000, 0.000000000000000000, -1.000000000000000000 ) ) ;
#734 = PLANE ( 'NONE',  #772 ) ;
#735 = ORIENTED_EDGE ( 'NONE', *, *, #129, .F. ) ;
#736 = VECTOR ( 'NONE', #625, 1000.000000000000000 ) ;
#737 = ORIENTED_EDGE ( 'NONE', *, *, #1116, .F. ) ;
#738 = ORIENTED_EDGE ( 'NONE', *, *, #1191, .F. ) ;
#739 = CARTESIAN_POINT ( 'NONE',  ( 233.3299999999999841, 2.000000000000000000, -9.000000000000001776 ) ) ;
#740 = CYLINDRICAL_SURFACE ( 'NONE', #941, 1.750000000000001554 ) ;
#741 = DIRECTION ( 'NONE',  ( 0.000000000000000000, 1.000000000000000000, 0.000000000000000000 ) ) ;
#742 = EDGE_LOOP ( 'NONE', ( #408, #1177, #333, #32 ) ) ;
#743 = DIRECTION ( 'NONE',  ( -0.000000000000000000, 1.000000000000000000, -0.000000000000000000 ) ) ;
#744 = CARTESIAN_POINT ( 'NONE',  ( 242.0000000000000000, 15.50000000000000000, -147.0000000000000284 ) ) ;
#745 = DIRECTION ( 'NONE',  ( 0.000000000000000000, 0.000000000000000000, 1.000000000000000000 ) ) ;
#746 = EDGE_CURVE ( 'NONE', #80, #328, #311, .T. ) ;
#747 = DIRECTION ( 'NONE',  ( -0.000000000000000000, -0.000000000000000000, 1.000000000000000000 ) ) ;
#748 = EDGE_LOOP ( 'NONE', ( #125, #657 ) ) ;
#749 = VERTEX_POINT ( 'NONE', #217 ) ;
#750 = VECTOR ( 'NONE', #314, 1000.000000000000000 ) ;
#751 = CARTESIAN_POINT ( 'NONE',  ( 20.00000000000000000, 2.000000000000000000, -14.00000000000000000 ) ) ;
#752 = FACE_BOUND ( 'NONE', #1001, .T. ) ;
#753 = DIRECTION ( 'NONE',  ( -1.000000000000000000, 0.000000000000000000, 0.000000000000000000 ) ) ;
#754 = VECTOR ( 'NONE', #723, 1000.000000000000000 ) ;
#755 = ORIENTED_EDGE ( 'NONE', *, *, #449, .T. ) ;
#756 = CIRCLE ( 'NONE', #674, 1.000000000000000000 ) ;
#757 = CYLINDRICAL_SURFACE ( 'NONE', #865, 4.000000000000003553 ) ;
#758 = CARTESIAN_POINT ( 'NONE',  ( 233.3299999999999841, 2.000000000000000000, -143.7500000000000284 ) ) ;
#759 = CARTESIAN_POINT ( 'NONE',  ( 241.0000000000000000, 16.50000000000000000, -3.999999999999999112 ) ) ;
#760 = FACE_OUTER_BOUND ( 'NONE', #552, .T. ) ;
#761 = DIRECTION ( 'NONE',  ( 0.000000000000000000, 0.000000000000000000, 1.000000000000000000 ) ) ;
#762 = CARTESIAN_POINT ( 'NONE',  ( 0.000000000000000000, 2.000000000000000000, 0.000000000000000000 ) ) ;
#763 = CARTESIAN_POINT ( 'NONE',  ( 15.23000000000000043, 0.000000000000000000, -143.7500000000000284 ) ) ;
#764 = EDGE_CURVE ( 'NONE', #612, #894, #832, .T. ) ;
#765 = DIRECTION ( 'NONE',  ( 0.000000000000000000, -1.000000000000000000, 0.000000000000000000 ) ) ;
#766 = ADVANCED_FACE ( 'NONE', ( #602 ), #694, .F. ) ;
#767 = DIRECTION ( 'NONE',  ( 1.000000000000000000, 0.000000000000000000, 0.000000000000000000 ) ) ;
#768 = PRODUCT_DEFINITION_FORMATION_WITH_SPECIFIED_SOURCE ( 'ANY', '', #641, .NOT_KNOWN. ) ;
#769 = CARTESIAN_POINT ( 'NONE',  ( 20.00000000000000000, 2.000000000000000000, -14.00000000000000000 ) ) ;
#770 = AXIS2_PLACEMENT_3D ( 'NONE', #1173, #39, #113 ) ;
#771 = CARTESIAN_POINT ( 'NONE',  ( 239.0000000000000000, 15.50000000000000000, 0.000000000000000000 ) ) ;
#772 = AXIS2_PLACEMENT_3D ( 'NONE', #267, #50, #745 ) ;
#773 = LINE ( 'NONE', #863, #143 ) ;
#774 = DIRECTION ( 'NONE',  ( 0.000000000000000000, 0.000000000000000000, -1.000000000000000000 ) ) ;
#775 = DIRECTION ( 'NONE',  ( 0.000000000000000000, 0.000000000000000000, 1.000000000000000000 ) ) ;
#776 = ADVANCED_FACE ( 'NONE', ( #873 ), #886, .F. ) ;
#777 = CARTESIAN_POINT ( 'NONE',  ( 0.000000000000000000, 16.50000000000000000, -1.000000000000000000 ) ) ;
#778 = ORIENTED_EDGE ( 'NONE', *, *, #480, .F. ) ;
#779 = DIRECTION ( 'NONE',  ( 0.000000000000000000, -1.000000000000000000, 0.000000000000000000 ) ) ;
#780 = PRESENTATION_LAYER_ASSIGNMENT (  '', '', ( #367 ) ) ;
#781 = CIRCLE ( 'NONE', #849, 4.000000000000003553 ) ;
#782 = DIRECTION ( 'NONE',  ( 1.000000000000000000, 0.000000000000000000, 0.000000000000000000 ) ) ;
#783 = CYLINDRICAL_SURFACE ( 'NONE', #977, 1.750000000000000666 ) ;
#784 = AXIS2_PLACEMENT_3D ( 'NONE', #536, #715, #363 ) ;
#785 = PLANE ( 'NONE',  #345 ) ;
#786 = ORIENTED_EDGE ( 'NONE', *, *, #95, .F. ) ;
#787 = DIRECTION ( 'NONE',  ( 0.000000000000000000, -1.000000000000000000, 0.000000000000000000 ) ) ;
#788 = CARTESIAN_POINT ( 'NONE',  ( 4.000000000000000000, 15.50000000000000000, -1.000000000000000000 ) ) ;
#789 = AXIS2_PLACEMENT_3D ( 'NONE', #985, #959, #969 ) ;
#790 = ORIENTED_EDGE ( 'NONE', *, *, #129, .T. ) ;
#791 = CARTESIAN_POINT ( 'NONE',  ( 0.000000000000000000, 15.50000000000000000, 0.000000000000000000 ) ) ;
#792 = CARTESIAN_POINT ( 'NONE',  ( 223.0000000000000000, 2.000000000000000000, -14.00000000000000000 ) ) ;
#793 = ORIENTED_EDGE ( 'NONE', *, *, #259, .F. ) ;
#794 = EDGE_CURVE ( 'NONE', #334, #623, #298, .T. ) ;
#795 = ORIENTED_EDGE ( 'NONE', *, *, #445, .T. ) ;
#796 = EDGE_CURVE ( 'NONE', #606, #1106, #627, .T. ) ;
#797 = ORIENTED_EDGE ( 'NONE', *, *, #684, .T. ) ;
#798 = DIRECTION ( 'NONE',  ( 0.000000000000000000, 0.000000000000000000, 1.000000000000000000 ) ) ;
#799 = ORIENTED_EDGE ( 'NONE', *, *, #535, .F. ) ;
#800 = CIRCLE ( 'NONE', #266, 1.000000000000000888 ) ;
#801 = ORIENTED_EDGE ( 'NONE', *, *, #553, .T. ) ;
#802 = ORIENTED_EDGE ( 'NONE', *, *, #93, .F. ) ;
#803 = CARTESIAN_POINT ( 'NONE',  ( 3.999999999999999112, 2.000000000000000000, -2.000000000000000000 ) ) ;
#804 = AXIS2_PLACEMENT_3D ( 'NONE', #675, #474, #563 ) ;
#805 = CARTESIAN_POINT ( 'NONE',  ( 4.000000000000000000, 16.50000000000000000, -4.000000000000000000 ) ) ;
#806 = ADVANCED_FACE ( 'NONE', ( #698 ), #114, .F. ) ;
#807 = ORIENTED_EDGE ( 'NONE', *, *, #9, .F. ) ;
#808 = EDGE_CURVE ( 'NONE', #454, #342, #1061, .T. ) ;
#809 = ORIENTED_EDGE ( 'NONE', *, *, #379, .T. ) ;
#810 = EDGE_LOOP ( 'NONE', ( #822, #613 ) ) ;
#811 = DIRECTION ( 'NONE',  ( 0.000000000000000000, -1.000000000000000000, 0.000000000000000000 ) ) ;
#812 = ADVANCED_FACE ( 'NONE', ( #1174 ), #1165, .F. ) ;
#813 = CARTESIAN_POINT ( 'NONE',  ( 2.000000000000000000, 16.50000000000000000, -147.0000000000000284 ) ) ;
#814 = EDGE_CURVE ( 'NONE', #637, #47, #1073, .T. ) ;
#815 = ORIENTED_EDGE ( 'NONE', *, *, #362, .F. ) ;
#816 = EDGE_LOOP ( 'NONE', ( #890, #1110, #616, #347 ) ) ;
#817 = DIRECTION ( 'NONE',  ( 0.000000000000000000, 0.000000000000000000, 1.000000000000000000 ) ) ;
#818 = ORIENTED_EDGE ( 'NONE', *, *, #814, .T. ) ;
#819 = ORIENTED_EDGE ( 'NONE', *, *, #9, .T. ) ;
#820 = CARTESIAN_POINT ( 'NONE',  ( 2.000000000000000000, 2.000000000000000000, -146.9999999999999716 ) ) ;
#821 = DIRECTION ( 'NONE',  ( 0.000000000000000000, -1.000000000000000000, 0.000000000000000000 ) ) ;
#822 = ORIENTED_EDGE ( 'NONE', *, *, #275, .F. ) ;
#823 = VERTEX_POINT ( 'NONE', #211 ) ;
#824 = DIRECTION ( 'NONE',  ( -0.000000000000000000, 1.000000000000000000, -0.000000000000000000 ) ) ;
#825 = CARTESIAN_POINT ( 'NONE',  ( 239.0000000000000000, 2.000000000000000000, -147.0000000000000284 ) ) ;
#826 = VECTOR ( 'NONE', #317, 1000.000000000000000 ) ;
#827 = DIRECTION ( 'NONE',  ( -0.000000000000000000, 1.000000000000000000, -0.000000000000000000 ) ) ;
#828 = DIRECTION ( 'NONE',  ( -0.000000000000000000, 1.000000000000000000, -0.000000000000000000 ) ) ;
#829 = CARTESIAN_POINT ( 'NONE',  ( 15.22999999999999332, 0.000000000000000000, -10.75000000000000178 ) ) ;
#830 = VERTEX_POINT ( 'NONE', #1160 ) ;
#831 = VECTOR ( 'NONE', #556, 1000.000000000000000 ) ;
#832 = CIRCLE ( 'NONE', #209, 1.750000000000001554 ) ;
#833 = EDGE_LOOP ( 'NONE', ( #1130, #594, #732, #330 ) ) ;
#834 = VERTEX_POINT ( 'NONE', #301 ) ;
#835 = EDGE_CURVE ( 'NONE', #830, #13, #249, .T. ) ;
#836 = DIRECTION ( 'NONE',  ( -0.000000000000000000, -0.000000000000000000, 1.000000000000000000 ) ) ;
#837 = CYLINDRICAL_SURFACE ( 'NONE', #1087, 1.750000000000010214 ) ;
#838 = ORIENTED_EDGE ( 'NONE', *, *, #284, .T. ) ;
#839 = ORIENTED_EDGE ( 'NONE', *, *, #374, .T. ) ;
#840 = FACE_OUTER_BOUND ( 'NONE', #1108, .T. ) ;
#841 = EDGE_CURVE ( 'NONE', #623, #538, #1113, .T. ) ;
#842 = ORIENTED_EDGE ( 'NONE', *, *, #193, .T. ) ;
#843 = CARTESIAN_POINT ( 'NONE',  ( 233.3299999999999841, 0.000000000000000000, -10.75000000000001066 ) ) ;
#844 = DIRECTION ( 'NONE',  ( 0.000000000000000000, -1.000000000000000000, 0.000000000000000000 ) ) ;
#845 = ORIENTED_EDGE ( 'NONE', *, *, #764, .F. ) ;
#846 = DIRECTION ( 'NONE',  ( -0.000000000000000000, -1.000000000000000000, -0.000000000000000000 ) ) ;
#847 = VECTOR ( 'NONE', #686, 1000.000000000000000 ) ;
#848 = DIRECTION ( 'NONE',  ( -0.000000000000000000, 1.000000000000000000, -0.000000000000000000 ) ) ;
#849 = AXIS2_PLACEMENT_3D ( 'NONE', #968, #787, #891 ) ;
#850 = DIRECTION ( 'NONE',  ( 0.000000000000000000, 0.000000000000000000, 1.000000000000000000 ) ) ;
#851 = DIRECTION ( 'NONE',  ( 0.000000000000000000, 0.000000000000000000, -1.000000000000000000 ) ) ;
#852 = CARTESIAN_POINT ( 'NONE',  ( 1.000000000000000000, 16.50000000000000000, -147.0000000000000284 ) ) ;
#853 = CIRCLE ( 'NONE', #423, 4.000000000000000000 ) ;
#854 = VECTOR ( 'NONE', #225, 1000.000000000000000 ) ;
#855 = CARTESIAN_POINT ( 'NONE',  ( 15.23000000000000043, 2.000000000000000000, -142.0000000000000284 ) ) ;
#856 = CARTESIAN_POINT ( 'NONE',  ( 239.0000000000000000, 15.50000000000000000, -4.000000000000000000 ) ) ;
#857 = EDGE_CURVE ( 'NONE', #932, #560, #122, .T. ) ;
#858 = ORIENTED_EDGE ( 'NONE', *, *, #796, .T. ) ;
#859 = LINE ( 'NONE', #843, #102 ) ;
#860 = CARTESIAN_POINT ( 'NONE',  ( 233.3299999999999841, 0.000000000000000000, -7.249999999999991118 ) ) ;
#861 = ORIENTED_EDGE ( 'NONE', *, *, #97, .T. ) ;
#862 = DIRECTION ( 'NONE',  ( -0.000000000000000000, 1.000000000000000000, -0.000000000000000000 ) ) ;
#863 = CARTESIAN_POINT ( 'NONE',  ( 239.0000000000000000, 2.000000000000000000, -2.000000000000000000 ) ) ;
#864 = DIRECTION ( 'NONE',  ( -1.000000000000000000, -0.000000000000000000, -0.000000000000000000 ) ) ;
#865 = AXIS2_PLACEMENT_3D ( 'NONE', #825, #1011, #730 ) ;
#866 = PLANE ( 'NONE',  #1211 ) ;
#867 = VECTOR ( 'NONE', #911, 1000.000000000000000 ) ;
#868 = DIRECTION ( 'NONE',  ( -0.000000000000000000, 1.000000000000000000, -0.000000000000000000 ) ) ;
#869 = ADVANCED_FACE ( 'NONE', ( #22 ), #403, .T. ) ;
#870 = DIRECTION ( 'NONE',  ( 1.000000000000000000, 0.000000000000000000, -0.000000000000000000 ) ) ;
#871 = FACE_BOUND ( 'NONE', #748, .T. ) ;
#872 = DIRECTION ( 'NONE',  ( -0.000000000000000000, 1.000000000000000000, -0.000000000000000000 ) ) ;
#873 = FACE_OUTER_BOUND ( 'NONE', #816, .T. ) ;
#874 = CARTESIAN_POINT ( 'NONE',  ( 4.000000000000000000, 15.50000000000000000, -147.0000000000000284 ) ) ;
#875 = DIRECTION ( 'NONE',  ( 0.000000000000000000, 0.000000000000000000, 1.000000000000000000 ) ) ;
#876 = DIRECTION ( 'NONE',  ( 0.000000000000000000, 0.000000000000000000, -1.000000000000000000 ) ) ;
#877 = LINE ( 'NONE', #21, #303 ) ;
#878 = CARTESIAN_POINT ( 'NONE',  ( 2.000000000000000000, 2.000000000000000000, -2.000000000000000000 ) ) ;
#879 = VECTOR ( 'NONE', #743, 1000.000000000000000 ) ;
#880 = LINE ( 'NONE', #963, #847 ) ;
#881 = VECTOR ( 'NONE', #864, 1000.000000000000000 ) ;
#882 = CARTESIAN_POINT ( 'NONE',  ( 243.0000000000000000, 2.000000000000000000, 0.000000000000000000 ) ) ;
#883 = ORIENTED_EDGE ( 'NONE', *, *, #651, .T. ) ;
#884 = DIRECTION ( 'NONE',  ( 0.000000000000000000, -1.000000000000000000, 0.000000000000000000 ) ) ;
#885 = PRODUCT_DEFINITION ( 'UNKNOWN', '', #768, #1098 ) ;
#886 = CYLINDRICAL_SURFACE ( 'NONE', #46, 2.000000000000001776 ) ;
#887 = CIRCLE ( 'NONE', #525, 1.000000000000000888 ) ;
#888 = EDGE_CURVE ( 'NONE', #982, #130, #375, .T. ) ;
#889 = ORIENTED_EDGE ( 'NONE', *, *, #362, .T. ) ;
#890 = ORIENTED_EDGE ( 'NONE', *, *, #978, .F. ) ;
#891 = DIRECTION ( 'NONE',  ( 0.000000000000000000, 0.000000000000000000, -1.000000000000000000 ) ) ;
#892 = CARTESIAN_POINT ( 'NONE',  ( 239.0000000000000000, 16.50000000000000000, -147.0000000000000000 ) ) ;
#893 = CARTESIAN_POINT ( 'NONE',  ( 4.000000000000000000, 16.50000000000000000, -1.000000000000000000 ) ) ;
#894 = VERTEX_POINT ( 'NONE', #964 ) ;
#895 = ORIENTED_EDGE ( 'NONE', *, *, #152, .F. ) ;
#896 = DIRECTION ( 'NONE',  ( 0.000000000000000000, -0.000000000000000000, 1.000000000000000000 ) ) ;
#897 = FILL_AREA_STYLE_COLOUR ( '', #899 ) ;
#898 = DIRECTION ( 'NONE',  ( 0.000000000000000000, -1.000000000000000000, 0.000000000000000000 ) ) ;
#899 = COLOUR_RGB ( '',0.7921568627450980005, 0.8196078431372548767, 0.9333333333333333481 ) ;
#900 = ORIENTED_EDGE ( 'NONE', *, *, #704, .T. ) ;
#901 = DIRECTION ( 'NONE',  ( 1.000000000000000000, -0.000000000000000000, 0.000000000000000000 ) ) ;
#902 = ORIENTED_EDGE ( 'NONE', *, *, #533, .T. ) ;
#903 = FACE_OUTER_BOUND ( 'NONE', #413, .T. ) ;
#904 = EDGE_CURVE ( 'NONE', #636, #447, #756, .T. ) ;
#905 = AXIS2_PLACEMENT_3D ( 'NONE', #186, #1053, #98 ) ;
#906 = AXIS2_PLACEMENT_3D ( 'NONE', #678, #14, #416 ) ;
#907 = DIRECTION ( 'NONE',  ( -0.000000000000000000, -0.000000000000000000, 1.000000000000000000 ) ) ;
#908 = EDGE_LOOP ( 'NONE', ( #1010, #913, #1225, #1123 ) ) ;
#909 = VERTEX_POINT ( 'NONE', #29 ) ;
#910 = ORIENTED_EDGE ( 'NONE', *, *, #88, .T. ) ;
#911 = DIRECTION ( 'NONE',  ( 0.000000000000000000, 1.000000000000000000, -0.000000000000000000 ) ) ;
#912 = LINE ( 'NONE', #357, #754 ) ;
#913 = ORIENTED_EDGE ( 'NONE', *, *, #857, .T. ) ;
#914 = ORIENTED_EDGE ( 'NONE', *, *, #285, .F. ) ;
#915 = VERTEX_POINT ( 'NONE', #631 ) ;
#916 = CARTESIAN_POINT ( 'NONE',  ( 15.23000000000000043, 0.000000000000000000, -142.0000000000000284 ) ) ;
#917 = CARTESIAN_POINT ( 'NONE',  ( 4.000000000000000000, 2.000000000000000000, -4.000000000000000000 ) ) ;
#918 = ORIENTED_EDGE ( 'NONE', *, *, #1040, .T. ) ;
#919 = EDGE_CURVE ( 'NONE', #149, #1002, #1170, .T. ) ;
#920 = ORIENTED_EDGE ( 'NONE', *, *, #1092, .F. ) ;
#921 = ORIENTED_EDGE ( 'NONE', *, *, #482, .F. ) ;
#922 = AXIS2_PLACEMENT_3D ( 'NONE', #471, #661, #851 ) ;
#923 = DIRECTION ( 'NONE',  ( -0.000000000000000000, -0.000000000000000000, 1.000000000000000000 ) ) ;
#924 = DIRECTION ( 'NONE',  ( -0.000000000000000000, -1.000000000000000000, 0.000000000000000000 ) ) ;
#925 = ORIENTED_EDGE ( 'NONE', *, *, #841, .F. ) ;
#926 = VECTOR ( 'NONE', #747, 1000.000000000000000 ) ;
#927 = EDGE_CURVE ( 'NONE', #30, #637, #585, .T. ) ;
#928 = VERTEX_POINT ( 'NONE', #251 ) ;
#929 = ADVANCED_FACE ( 'NONE', ( #1012 ), #61, .T. ) ;
#930 = DIRECTION ( 'NONE',  ( 0.000000000000000000, 0.000000000000000000, -1.000000000000000000 ) ) ;
#931 = FACE_OUTER_BOUND ( 'NONE', #453, .T. ) ;
#932 = VERTEX_POINT ( 'NONE', #354 ) ;
#933 = CARTESIAN_POINT ( 'NONE',  ( 223.0000000000000000, 2.000000000000000000, -139.0000000000000000 ) ) ;
#934 = CARTESIAN_POINT ( 'NONE',  ( 15.22999999999999332, 0.000000000000000000, -7.250000000000000000 ) ) ;
#935 = ADVANCED_BREP_SHAPE_REPRESENTATION ( 'Geh\X2\00e4\X0\use_Waveshare_R\X2\00fc\X0\ckwand_Rand', ( #966, #63 ), #302 ) ;
#936 = CYLINDRICAL_SURFACE ( 'NONE', #1155, 1.750000000000001554 ) ;
#937 = DIRECTION ( 'NONE',  ( 0.000000000000000000, -1.000000000000000000, 0.000000000000000000 ) ) ;
#938 = ORIENTED_EDGE ( 'NONE', *, *, #579, .T. ) ;
#939 = PRODUCT_DEFINITION_SHAPE ( 'NONE', 'NONE',  #885 ) ;
#940 = EDGE_CURVE ( 'NONE', #749, #697, #707, .T. ) ;
#941 = AXIS2_PLACEMENT_3D ( 'NONE', #916, #827, #1003 ) ;
#942 = ADVANCED_FACE ( 'NONE', ( #511 ), #70, .T. ) ;
#943 = DIRECTION ( 'NONE',  ( 1.000000000000000000, 0.000000000000000000, 0.000000000000000000 ) ) ;
#944 = VECTOR ( 'NONE', #212, 1000.000000000000000 ) ;
#945 = DIRECTION ( 'NONE',  ( 0.000000000000000000, 0.000000000000000000, -1.000000000000000000 ) ) ;
#946 = EDGE_CURVE ( 'NONE', #606, #308, #543, .T. ) ;
#947 = CARTESIAN_POINT ( 'NONE',  ( 223.0000000000000000, 0.000000000000000000, -139.0000000000000000 ) ) ;
#948 = ORIENTED_EDGE ( 'NONE', *, *, #1138, .T. ) ;
#949 = CIRCLE ( 'NONE', #804, 1.750000000000001554 ) ;
#950 = AXIS2_PLACEMENT_3D ( 'NONE', #161, #429, #997 ) ;
#951 = LINE ( 'NONE', #571, #619 ) ;
#952 = CARTESIAN_POINT ( 'NONE',  ( 4.000000000000000000, 2.000000000000000000, -147.0000000000000284 ) ) ;
#953 = LINE ( 'NONE', #1144, #16 ) ;
#954 = CARTESIAN_POINT ( 'NONE',  ( 239.0000000000000000, 0.000000000000000000, -4.000000000000000000 ) ) ;
#955 = LINE ( 'NONE', #649, #881 ) ;
#956 = CARTESIAN_POINT ( 'NONE',  ( 239.0000000000000000, 0.000000000000000000, -151.0000000000000284 ) ) ;
#957 = EDGE_CURVE ( 'NONE', #1009, #834, #156, .T. ) ;
#958 = AXIS2_PLACEMENT_3D ( 'NONE', #855, #199, #1035 ) ;
#959 = DIRECTION ( 'NONE',  ( 0.000000000000000000, -1.000000000000000000, 0.000000000000000000 ) ) ;
#960 = EDGE_CURVE ( 'NONE', #823, #364, #887, .T. ) ;
#961 = FACE_OUTER_BOUND ( 'NONE', #1205, .T. ) ;
#962 = CIRCLE ( 'NONE', #177, 1.750000000000000666 ) ;
#963 = CARTESIAN_POINT ( 'NONE',  ( 15.23000000000000043, 0.000000000000000000, -143.7500000000000284 ) ) ;
#964 = CARTESIAN_POINT ( 'NONE',  ( 15.23000000000000043, 2.000000000000000000, -143.7500000000000284 ) ) ;
#965 = ADVANCED_FACE ( 'NONE', ( #529 ), #740, .F. ) ;
#966 = MANIFOLD_SOLID_BREP ( 'Verrundung3', #514 ) ;
#967 = CARTESIAN_POINT ( 'NONE',  ( 0.000000000000000000, 0.000000000000000000, 0.000000000000000000 ) ) ;
#968 = CARTESIAN_POINT ( 'NONE',  ( 239.0000000000000000, 0.000000000000000000, -147.0000000000000284 ) ) ;
#969 = DIRECTION ( 'NONE',  ( 0.000000000000000000, 0.000000000000000000, -1.000000000000000000 ) ) ;
#970 = EDGE_CURVE ( 'NONE', #915, #823, #41, .T. ) ;
#971 = DIRECTION ( 'NONE',  ( 0.000000000000000000, -1.000000000000000000, 0.000000000000000000 ) ) ;
#972 = CARTESIAN_POINT ( 'NONE',  ( 20.00000000000000000, 0.000000000000000000, -139.0000000000000000 ) ) ;
#973 = DIRECTION ( 'NONE',  ( 0.000000000000000000, 0.000000000000000000, 1.000000000000000000 ) ) ;
#974 = ADVANCED_FACE ( 'NONE', ( #903 ), #1183, .T. ) ;
#975 = VERTEX_POINT ( 'NONE', #820 ) ;
#976 = DIRECTION ( 'NONE',  ( 0.000000000000000000, 0.000000000000000000, 1.000000000000000000 ) ) ;
#977 = AXIS2_PLACEMENT_3D ( 'NONE', #580, #868, #680 ) ;
#978 = EDGE_CURVE ( 'NONE', #928, #38, #541, .T. ) ;
#979 = AXIS2_PLACEMENT_3D ( 'NONE', #1131, #270, #517 ) ;
#980 = UNCERTAINTY_MEASURE_WITH_UNIT (LENGTH_MEASURE( 1.000000000000000082E-05 ), #714, 'distance_accuracy_value', 'NONE');
#981 = LINE ( 'NONE', #116, #578 ) ;
#982 = VERTEX_POINT ( 'NONE', #561 ) ;
#983 = EDGE_LOOP ( 'NONE', ( #164, #215, #644, #1136 ) ) ;
#984 = FACE_BOUND ( 'NONE', #1227, .T. ) ;
#985 = CARTESIAN_POINT ( 'NONE',  ( 239.0000000000000000, 16.50000000000000000, -4.000000000000000000 ) ) ;
#986 = AXIS2_PLACEMENT_3D ( 'NONE', #639, #40, #134 ) ;
#987 = ORIENTED_EDGE ( 'NONE', *, *, #152, .T. ) ;
#988 = ORIENTED_EDGE ( 'NONE', *, *, #282, .F. ) ;
#989 = FACE_OUTER_BOUND ( 'NONE', #1139, .T. ) ;
#990 = CARTESIAN_POINT ( 'NONE',  ( 2.000000000000000000, 16.50000000000000000, -2.000000000000000000 ) ) ;
#991 = ORIENTED_EDGE ( 'NONE', *, *, #993, .T. ) ;
#992 = CARTESIAN_POINT ( 'NONE',  ( 15.22999999999999332, 2.000000000000000000, -9.000000000000001776 ) ) ;
#993 = EDGE_CURVE ( 'NONE', #13, #1118, #373, .T. ) ;
#994 = DIRECTION ( 'NONE',  ( 0.000000000000000000, 0.000000000000000000, 1.000000000000000000 ) ) ;
#995 = EDGE_LOOP ( 'NONE', ( #155, #795, #105, #528 ) ) ;
#996 = ORIENTED_EDGE ( 'NONE', *, *, #794, .T. ) ;
#997 = DIRECTION ( 'NONE',  ( 1.000000000000000000, 0.000000000000000000, 0.000000000000000000 ) ) ;
#998 = CARTESIAN_POINT ( 'NONE',  ( 233.3299999999999841, 0.000000000000000000, -9.000000000000001776 ) ) ;
#999 = VECTOR ( 'NONE', #555, 1000.000000000000000 ) ;
#1000 = ORIENTED_EDGE ( 'NONE', *, *, #604, .F. ) ;
#1001 = EDGE_LOOP ( 'NONE', ( #845, #1115 ) ) ;
#1002 = VERTEX_POINT ( 'NONE', #1146 ) ;
#1003 = DIRECTION ( 'NONE',  ( 0.000000000000000000, 0.000000000000000000, 1.000000000000000000 ) ) ;
#1004 = AXIS2_PLACEMENT_3D ( 'NONE', #293, #1142, #1241 ) ;
#1005 = AXIS2_PLACEMENT_3D ( 'NONE', #110, #1179, #688 ) ;
#1006 = DIRECTION ( 'NONE',  ( 0.000000000000000000, -1.000000000000000000, 0.000000000000000000 ) ) ;
#1007 = ORIENTED_EDGE ( 'NONE', *, *, #1008, .F. ) ;
#1008 = EDGE_CURVE ( 'NONE', #170, #223, #344, .T. ) ;
#1009 = VERTEX_POINT ( 'NONE', #934 ) ;
#1010 = ORIENTED_EDGE ( 'NONE', *, *, #157, .T. ) ;
#1011 = DIRECTION ( 'NONE',  ( 0.000000000000000000, -1.000000000000000000, 0.000000000000000000 ) ) ;
#1012 = FACE_OUTER_BOUND ( 'NONE', #727, .T. ) ;
#1013 = PLANE ( 'NONE',  #905 ) ;
#1014 = LINE ( 'NONE', #252, #1070 ) ;
#1015 = VERTEX_POINT ( 'NONE', #758 ) ;
#1016 = ORIENTED_EDGE ( 'NONE', *, *, #940, .F. ) ;
#1017 = ORIENTED_EDGE ( 'NONE', *, *, #494, .T. ) ;
#1018 = DIRECTION ( 'NONE',  ( 0.000000000000000000, 0.000000000000000000, -1.000000000000000000 ) ) ;
#1019 = CARTESIAN_POINT ( 'NONE',  ( 20.00000000000000000, 2.000000000000000000, -139.0000000000000000 ) ) ;
#1020 = EDGE_CURVE ( 'NONE', #636, #197, #243, .T. ) ;
#1021 = CARTESIAN_POINT ( 'NONE',  ( 2.000000000000000000, 2.000000000000000000, -2.000000000000000000 ) ) ;
#1022 = AXIS2_PLACEMENT_3D ( 'NONE', #214, #570, #1171 ) ;
#1023 = EDGE_LOOP ( 'NONE', ( #914, #358, #228, #1017 ) ) ;
#1024 = EDGE_CURVE ( 'NONE', #894, #612, #1066, .T. ) ;
#1025 = AXIS2_PLACEMENT_3D ( 'NONE', #49, #720, #242 ) ;
#1026 = ORIENTED_EDGE ( 'NONE', *, *, #794, .F. ) ;
#1027 = AXIS2_PLACEMENT_3D ( 'NONE', #17, #862, #591 ) ;
#1028 = DIRECTION ( 'NONE',  ( 0.000000000000000000, -1.000000000000000000, 0.000000000000000000 ) ) ;
#1029 = FACE_OUTER_BOUND ( 'NONE', #1176, .T. ) ;
#1030 = ORIENTED_EDGE ( 'NONE', *, *, #579, .F. ) ;
#1031 = AXIS2_PLACEMENT_3D ( 'NONE', #998, #741, #1207 ) ;
#1032 = ORIENTED_EDGE ( 'NONE', *, *, #927, .F. ) ;
#1033 = CARTESIAN_POINT ( 'NONE',  ( 15.22999999999999332, 0.000000000000000000, -10.75000000000000000 ) ) ;
#1034 = CARTESIAN_POINT ( 'NONE',  ( 223.0000000000000000, 0.000000000000000000, -14.00000000000000000 ) ) ;
#1035 = DIRECTION ( 'NONE',  ( 0.000000000000000000, 0.000000000000000000, 1.000000000000000000 ) ) ;
#1036 = DIRECTION ( 'NONE',  ( -0.000000000000000000, 1.000000000000000000, -0.000000000000000000 ) ) ;
#1037 = DIRECTION ( 'NONE',  ( 1.000000000000000000, 0.000000000000000000, 0.000000000000000000 ) ) ;
#1038 = EDGE_CURVE ( 'NONE', #130, #1015, #951, .T. ) ;
#1039 = VERTEX_POINT ( 'NONE', #99 ) ;
#1040 = EDGE_CURVE ( 'NONE', #1039, #80, #4, .T. ) ;
#1041 = DIRECTION ( 'NONE',  ( 0.000000000000000000, 0.000000000000000000, 1.000000000000000000 ) ) ;
#1042 = EDGE_CURVE ( 'NONE', #650, #454, #279, .T. ) ;
#1043 = CARTESIAN_POINT ( 'NONE',  ( 1.000000000000000000, 16.50000000000000000, 0.000000000000000000 ) ) ;
#1044 = CARTESIAN_POINT ( 'NONE',  ( 2.000000000000000000, 16.50000000000000000, -146.9999999999999716 ) ) ;
#1045 = CARTESIAN_POINT ( 'NONE',  ( 223.0000000000000000, 2.000000000000000000, -139.0000000000000000 ) ) ;
#1046 = CARTESIAN_POINT ( 'NONE',  ( 4.000000000000000000, 0.000000000000000000, -4.000000000000000000 ) ) ;
#1047 = VECTOR ( 'NONE', #872, 1000.000000000000000 ) ;
#1048 = DIRECTION ( 'NONE',  ( -0.000000000000000000, 1.000000000000000000, -0.000000000000000000 ) ) ;
#1049 = AXIS2_PLACEMENT_3D ( 'NONE', #415, #896, #419 ) ;
#1050 = CARTESIAN_POINT ( 'NONE',  ( 4.000000000000000000, 16.50000000000000000, -2.000000000000000000 ) ) ;
#1051 = ORIENTED_EDGE ( 'NONE', *, *, #574, .F. ) ;
#1052 = VECTOR ( 'NONE', #642, 1000.000000000000000 ) ;
#1053 = DIRECTION ( 'NONE',  ( 1.000000000000000000, -0.000000000000000000, 0.000000000000000000 ) ) ;
#1054 = AXIS2_PLACEMENT_3D ( 'NONE', #590, #393, #318 ) ;
#1055 = FACE_BOUND ( 'NONE', #503, .T. ) ;
#1056 = FACE_OUTER_BOUND ( 'NONE', #628, .T. ) ;
#1057 = FACE_BOUND ( 'NONE', #693, .T. ) ;
#1058 = VERTEX_POINT ( 'NONE', #473 ) ;
#1059 = EDGE_CURVE ( 'NONE', #130, #982, #700, .T. ) ;
#1060 = FACE_BOUND ( 'NONE', #269, .T. ) ;
#1061 = LINE ( 'NONE', #792, #689 ) ;
#1062 = EDGE_CURVE ( 'NONE', #749, #650, #461, .T. ) ;
#1063 = UNCERTAINTY_MEASURE_WITH_UNIT (LENGTH_MEASURE( 1.000000000000000082E-05 ), #1162, 'distance_accuracy_value', 'NONE');
#1064 = FACE_BOUND ( 'NONE', #378, .T. ) ;
#1065 = SHAPE_DEFINITION_REPRESENTATION ( #939, #935 ) ;
#1066 = CIRCLE ( 'NONE', #958, 1.750000000000001554 ) ;
#1067 = VECTOR ( 'NONE', #811, 1000.000000000000000 ) ;
#1068 = DIRECTION ( 'NONE',  ( 0.000000000000000000, 0.000000000000000000, -1.000000000000000000 ) ) ;
#1069 = CARTESIAN_POINT ( 'NONE',  ( 1.000000000000000000, 15.50000000000000000, -4.000000000000000000 ) ) ;
#1070 = VECTOR ( 'NONE', #430, 1000.000000000000000 ) ;
#1071 = VECTOR ( 'NONE', #923, 1000.000000000000000 ) ;
#1072 = APPLICATION_PROTOCOL_DEFINITION ( 'draft international standard', 'automotive_design', 1998, #331 ) ;
#1073 = LINE ( 'NONE', #577, #854 ) ;
#1074 = ADVANCED_FACE ( 'NONE', ( #457 ), #663, .F. ) ;
#1075 = EDGE_CURVE ( 'NONE', #830, #1197, #18, .T. ) ;
#1076 = CARTESIAN_POINT ( 'NONE',  ( 4.000000000000000000, 2.000000000000000000, 0.000000000000000000 ) ) ;
#1077 = ORIENTED_EDGE ( 'NONE', *, *, #489, .T. ) ;
#1078 = DIRECTION ( 'NONE',  ( -1.000000000000000000, 0.000000000000000000, 0.000000000000000000 ) ) ;
#1079 = CARTESIAN_POINT ( 'NONE',  ( 4.000000000000000000, 16.50000000000000000, -147.0000000000000284 ) ) ;
#1080 = ORIENTED_EDGE ( 'NONE', *, *, #993, .F. ) ;
#1081 = ORIENTED_EDGE ( 'NONE', *, *, #391, .T. ) ;
#1082 = DIRECTION ( 'NONE',  ( -0.000000000000000000, -0.000000000000000000, -1.000000000000000000 ) ) ;
#1083 = DIRECTION ( 'NONE',  ( 0.000000000000000000, 1.000000000000000000, 0.000000000000000000 ) ) ;
#1084 = AXIS2_PLACEMENT_3D ( 'NONE', #1229, #1048, #361 ) ;
#1085 = VECTOR ( 'NONE', #183, 1000.000000000000000 ) ;
#1086 = ORIENTED_EDGE ( 'NONE', *, *, #379, .F. ) ;
#1087 = AXIS2_PLACEMENT_3D ( 'NONE', #1127, #828, #146 ) ;
#1088 = ORIENTED_EDGE ( 'NONE', *, *, #313, .F. ) ;
#1089 = ORIENTED_EDGE ( 'NONE', *, *, #704, .F. ) ;
#1090 = LINE ( 'NONE', #510, #1151 ) ;
#1091 = CARTESIAN_POINT ( 'NONE',  ( 0.000000000000000000, 15.50000000000000000, -1.000000000000000000 ) ) ;
#1092 = EDGE_CURVE ( 'NONE', #30, #268, #859, .T. ) ;
#1093 = ORIENTED_EDGE ( 'NONE', *, *, #684, .F. ) ;
#1094 = VERTEX_POINT ( 'NONE', #1236 ) ;
#1095 = DIRECTION ( 'NONE',  ( 1.000000000000000000, 0.000000000000000000, 0.000000000000000000 ) ) ;
#1096 = LINE ( 'NONE', #633, #736 ) ;
#1097 = EDGE_LOOP ( 'NONE', ( #622, #558, #1117, #801 ) ) ;
#1098 = PRODUCT_DEFINITION_CONTEXT ( 'detailed design', #582, 'design' ) ;
#1099 = ORIENTED_EDGE ( 'NONE', *, *, #808, .T. ) ;
#1100 = EDGE_LOOP ( 'NONE', ( #786, #996, #1182, #1181 ) ) ;
#1101 = ORIENTED_EDGE ( 'NONE', *, *, #712, .T. ) ;
#1102 = DIRECTION ( 'NONE',  ( -1.000000000000000000, 0.000000000000000000, -0.000000000000000000 ) ) ;
#1103 = DIRECTION ( 'NONE',  ( 0.000000000000000000, 0.000000000000000000, 1.000000000000000000 ) ) ;
#1104 = CYLINDRICAL_SURFACE ( 'NONE', #7, 4.000000000000000000 ) ;
#1105 = AXIS2_PLACEMENT_3D ( 'NONE', #142, #522, #733 ) ;
#1106 = VERTEX_POINT ( 'NONE', #659 ) ;
#1107 = VECTOR ( 'NONE', #262, 1000.000000000000000 ) ;
#1108 = EDGE_LOOP ( 'NONE', ( #288, #1101, #630, #1234 ) ) ;
#1109 = CARTESIAN_POINT ( 'NONE',  ( 2.000000000000000000, 16.50000000000000000, -2.000000000000000000 ) ) ;
#1110 = ORIENTED_EDGE ( 'NONE', *, *, #374, .F. ) ;
#1111 = DIRECTION ( 'NONE',  ( 0.000000000000000000, 0.000000000000000000, 1.000000000000000000 ) ) ;
#1112 = AXIS2_PLACEMENT_3D ( 'NONE', #762, #573, #280 ) ;
#1113 = CIRCLE ( 'NONE', #789, 2.000000000000000000 ) ;
#1114 = DIRECTION ( 'NONE',  ( 0.000000000000000000, 0.000000000000000000, -1.000000000000000000 ) ) ;
#1115 = ORIENTED_EDGE ( 'NONE', *, *, #1024, .F. ) ;
#1116 = EDGE_CURVE ( 'NONE', #932, #915, #800, .T. ) ;
#1117 = ORIENTED_EDGE ( 'NONE', *, *, #586, .F. ) ;
#1118 = VERTEX_POINT ( 'NONE', #1132 ) ;
#1119 = EDGE_CURVE ( 'NONE', #1058, #834, #515, .T. ) ;
#1120 = CARTESIAN_POINT ( 'NONE',  ( 233.3299999999999841, 0.000000000000000000, -140.2500000000000000 ) ) ;
#1121 = SURFACE_SIDE_STYLE ('',( #55 ) ) ;
#1122 = DIRECTION ( 'NONE',  ( 0.000000000000000000, 1.000000000000000000, 0.000000000000000000 ) ) ;
#1123 = ORIENTED_EDGE ( 'NONE', *, *, #388, .T. ) ;
#1124 = FACE_OUTER_BOUND ( 'NONE', #438, .T. ) ;
#1125 = DIRECTION ( 'NONE',  ( 0.000000000000000000, 0.000000000000000000, 1.000000000000000000 ) ) ;
#1126 = ADVANCED_FACE ( 'NONE', ( #1056 ), #654, .T. ) ;
#1127 = CARTESIAN_POINT ( 'NONE',  ( 233.3299999999999841, 0.000000000000000000, -9.000000000000001776 ) ) ;
#1128 = ORIENTED_EDGE ( 'NONE', *, *, #482, .T. ) ;
#1129 = AXIS2_PLACEMENT_3D ( 'NONE', #1079, #387, #297 ) ;
#1130 = ORIENTED_EDGE ( 'NONE', *, *, #1116, .T. ) ;
#1131 = CARTESIAN_POINT ( 'NONE',  ( 2.000000000000000000, 16.50000000000000000, -2.000000000000000000 ) ) ;
#1132 = CARTESIAN_POINT ( 'NONE',  ( 1.000000000000000000, 16.50000000000000000, -4.000000000000000000 ) ) ;
#1133 = CARTESIAN_POINT ( 'NONE',  ( 233.3299999999999841, 0.000000000000000000, -142.0000000000000284 ) ) ;
#1134 = CIRCLE ( 'NONE', #272, 2.000000000000000000 ) ;
#1135 = CARTESIAN_POINT ( 'NONE',  ( 241.0000000000000000, 2.000000000000000000, -3.999999999999999112 ) ) ;
#1136 = ORIENTED_EDGE ( 'NONE', *, *, #442, .T. ) ;
#1137 = CIRCLE ( 'NONE', #603, 1.750000000000000666 ) ;
#1138 = EDGE_CURVE ( 'NONE', #560, #120, #726, .T. ) ;
#1139 = EDGE_LOOP ( 'NONE', ( #681, #425, #253, #900 ) ) ;
#1140 = LINE ( 'NONE', #1034, #667 ) ;
#1141 = DIRECTION ( 'NONE',  ( 0.000000000000000000, 0.000000000000000000, 1.000000000000000000 ) ) ;
#1142 = DIRECTION ( 'NONE',  ( 0.000000000000000000, -1.000000000000000000, 0.000000000000000000 ) ) ;
#1143 = CARTESIAN_POINT ( 'NONE',  ( 238.9999999999999432, 2.000000000000000000, -2.000000000000000000 ) ) ;
#1144 = CARTESIAN_POINT ( 'NONE',  ( 242.0000000000000000, 16.50000000000000000, 0.000000000000000000 ) ) ;
#1145 = CARTESIAN_POINT ( 'NONE',  ( 233.3299999999999841, 2.000000000000000000, -142.0000000000000284 ) ) ;
#1146 = CARTESIAN_POINT ( 'NONE',  ( 238.9999999999999432, 2.000000000000000000, -149.0000000000000284 ) ) ;
#1147 = CARTESIAN_POINT ( 'NONE',  ( 20.00000000000000000, 2.000000000000000000, -139.0000000000000000 ) ) ;
#1148 = CYLINDRICAL_SURFACE ( 'NONE', #683, 4.000000000000003553 ) ;
#1149 = DIRECTION ( 'NONE',  ( 0.000000000000000000, 0.000000000000000000, -1.000000000000000000 ) ) ;
#1150 = LINE ( 'NONE', #111, #289 ) ;
#1151 = VECTOR ( 'NONE', #884, 1000.000000000000000 ) ;
#1152 = EDGE_CURVE ( 'NONE', #454, #1094, #1150, .T. ) ;
#1153 = CARTESIAN_POINT ( 'NONE',  ( 239.0000000000000000, 2.000000000000000000, -4.000000000000000000 ) ) ;
#1154 = FACE_OUTER_BOUND ( 'NONE', #59, .T. ) ;
#1155 = AXIS2_PLACEMENT_3D ( 'NONE', #83, #462, #850 ) ;
#1156 = EDGE_CURVE ( 'NONE', #326, #697, #406, .T. ) ;
#1157 = DIRECTION ( 'NONE',  ( 0.000000000000000000, -1.000000000000000000, 0.000000000000000000 ) ) ;
#1158 = DIRECTION ( 'NONE',  ( 0.000000000000000000, 0.000000000000000000, 1.000000000000000000 ) ) ;
#1159 = PRODUCT_CONTEXT ( 'NONE', #331, 'mechanical' ) ;
#1160 = CARTESIAN_POINT ( 'NONE',  ( 4.000000000000000000, 16.50000000000000000, -150.0000000000000284 ) ) ;
#1161 = TOROIDAL_SURFACE ( 'NONE', #540, 3.000000000000000000, 1.000000000000000000 ) ;
#1162 =( LENGTH_UNIT ( ) NAMED_UNIT ( * ) SI_UNIT ( .MILLI., .METRE. ) );
#1163 = AXIS2_PLACEMENT_3D ( 'NONE', #658, #1215, #1041 ) ;
#1164 = ADVANCED_FACE ( 'NONE', ( #307 ), #104, .F. ) ;
#1165 = PLANE ( 'NONE',  #1005 ) ;
#1166 = EDGE_CURVE ( 'NONE', #527, #1197, #219, .T. ) ;
#1167 = ADVANCED_FACE ( 'NONE', ( #695 ), #783, .F. ) ;
#1168 = CIRCLE ( 'NONE', #626, 4.000000000000003553 ) ;
#1169 = DIRECTION ( 'NONE',  ( -0.000000000000000000, 1.000000000000000000, -0.000000000000000000 ) ) ;
#1170 = CIRCLE ( 'NONE', #986, 2.000000000000001776 ) ;
#1171 = DIRECTION ( 'NONE',  ( 0.000000000000000000, 0.000000000000000000, -1.000000000000000000 ) ) ;
#1172 = ORIENTED_EDGE ( 'NONE', *, *, #12, .F. ) ;
#1173 = CARTESIAN_POINT ( 'NONE',  ( 0.000000000000000000, 16.50000000000000000, 0.000000000000000000 ) ) ;
#1174 = FACE_OUTER_BOUND ( 'NONE', #1209, .T. ) ;
#1175 = CARTESIAN_POINT ( 'NONE',  ( 4.000000000000000000, 2.000000000000000000, -151.0000000000000284 ) ) ;
#1176 = EDGE_LOOP ( 'NONE', ( #227, #96, #370, #1007 ) ) ;
#1177 = ORIENTED_EDGE ( 'NONE', *, *, #285, .T. ) ;
#1178 = PLANE ( 'NONE',  #1235 ) ;
#1179 = DIRECTION ( 'NONE',  ( 0.000000000000000000, 0.000000000000000000, -1.000000000000000000 ) ) ;
#1180 = VERTEX_POINT ( 'NONE', #592 ) ;
#1181 = ORIENTED_EDGE ( 'NONE', *, *, #524, .T. ) ;
#1182 = ORIENTED_EDGE ( 'NONE', *, *, #725, .T. ) ;
#1183 = PLANE ( 'NONE',  #1025 ) ;
#1184 = AXIS2_PLACEMENT_3D ( 'NONE', #954, #1028, #1244 ) ;
#1185 = EDGE_CURVE ( 'NONE', #447, #238, #587, .T. ) ;
#1186 = ORIENTED_EDGE ( 'NONE', *, *, #1185, .F. ) ;
#1187 = AXIS2_PLACEMENT_3D ( 'NONE', #739, #549, #817 ) ;
#1188 = ORIENTED_EDGE ( 'NONE', *, *, #629, .F. ) ;
#1189 = VECTOR ( 'NONE', #907, 1000.000000000000000 ) ;
#1190 = ORIENTED_EDGE ( 'NONE', *, *, #157, .F. ) ;
#1191 = EDGE_CURVE ( 'NONE', #1197, #364, #981, .T. ) ;
#1192 = ORIENTED_EDGE ( 'NONE', *, *, #535, .T. ) ;
#1193 = DIRECTION ( 'NONE',  ( 0.000000000000000000, 0.000000000000000000, -1.000000000000000000 ) ) ;
#1194 =( NAMED_UNIT ( * ) SI_UNIT ( $, .STERADIAN. ) SOLID_ANGLE_UNIT ( ) );
#1195 = CARTESIAN_POINT ( 'NONE',  ( 4.000000000000000000, 0.000000000000000000, -147.0000000000000284 ) ) ;
#1196 = ORIENTED_EDGE ( 'NONE', *, *, #299, .F. ) ;
#1197 = VERTEX_POINT ( 'NONE', #399 ) ;
#1198 = ORIENTED_EDGE ( 'NONE', *, *, #31, .T. ) ;
#1199 = FACE_OUTER_BOUND ( 'NONE', #27, .T. ) ;
#1200 = VERTEX_POINT ( 'NONE', #484 ) ;
#1201 = VERTEX_POINT ( 'NONE', #478 ) ;
#1202 = DIRECTION ( 'NONE',  ( -0.000000000000000000, 1.000000000000000000, -0.000000000000000000 ) ) ;
#1203 = PLANE ( 'NONE',  #5 ) ;
#1204 = LINE ( 'NONE', #1120, #564 ) ;
#1205 = EDGE_LOOP ( 'NONE', ( #417, #274, #1089, #861, #67, #365, #620, #819 ) ) ;
#1206 = FILL_AREA_STYLE ('',( #897 ) ) ;
#1207 = DIRECTION ( 'NONE',  ( 0.000000000000000000, 0.000000000000000000, 1.000000000000000000 ) ) ;
#1208 = AXIS2_PLACEMENT_3D ( 'NONE', #181, #92, #930 ) ;
#1209 = EDGE_LOOP ( 'NONE', ( #902, #54, #719, #842 ) ) ;
#1210 = EDGE_CURVE ( 'NONE', #68, #159, #213, .T. ) ;
#1211 = AXIS2_PLACEMENT_3D ( 'NONE', #108, #971, #115 ) ;
#1212 = ORIENTED_EDGE ( 'NONE', *, *, #88, .F. ) ;
#1213 = ORIENTED_EDGE ( 'NONE', *, *, #702, .F. ) ;
#1214 = EDGE_CURVE ( 'NONE', #538, #328, #773, .T. ) ;
#1215 = DIRECTION ( 'NONE',  ( -1.000000000000000000, 0.000000000000000000, 0.000000000000000000 ) ) ;
#1216 = CARTESIAN_POINT ( 'NONE',  ( 239.0000000000000000, 15.50000000000000000, -150.0000000000000284 ) ) ;
#1217 = CIRCLE ( 'NONE', #124, 1.750000000000001554 ) ;
#1218 = VECTOR ( 'NONE', #493, 1000.000000000000000 ) ;
#1219 = CARTESIAN_POINT ( 'NONE',  ( 239.0000000000000000, 2.000000000000000000, 0.000000000000000000 ) ) ;
#1220 = ORIENTED_EDGE ( 'NONE', *, *, #239, .F. ) ;
#1221 = ORIENTED_EDGE ( 'NONE', *, *, #463, .F. ) ;
#1222 = ORIENTED_EDGE ( 'NONE', *, *, #1214, .F. ) ;
#1223 = DIRECTION ( 'NONE',  ( -0.000000000000000000, 1.000000000000000000, -0.000000000000000000 ) ) ;
#1224 = CYLINDRICAL_SURFACE ( 'NONE', #784, 2.000000000000000000 ) ;
#1225 = ORIENTED_EDGE ( 'NONE', *, *, #123, .T. ) ;
#1226 = DIRECTION ( 'NONE',  ( 0.000000000000000000, 0.000000000000000000, 1.000000000000000000 ) ) ;
#1227 = EDGE_LOOP ( 'NONE', ( #634, #858, #815, #434, #547, #705, #793, #1128 ) ) ;
#1228 = PLANE ( 'NONE',  #979 ) ;
#1229 = CARTESIAN_POINT ( 'NONE',  ( 233.3299999999999841, 0.000000000000000000, -142.0000000000000284 ) ) ;
#1230 = DIRECTION ( 'NONE',  ( -0.000000000000000000, 1.000000000000000000, -0.000000000000000000 ) ) ;
#1231 = EDGE_CURVE ( 'NONE', #323, #894, #880, .T. ) ;
#1232 = ORIENTED_EDGE ( 'NONE', *, *, #1092, .T. ) ;
#1233 = AXIS2_PLACEMENT_3D ( 'NONE', #468, #1240, #761 ) ;
#1234 = ORIENTED_EDGE ( 'NONE', *, *, #1214, .T. ) ;
#1235 = AXIS2_PLACEMENT_3D ( 'NONE', #324, #521, #1102 ) ;
#1236 = CARTESIAN_POINT ( 'NONE',  ( 223.0000000000000000, 0.000000000000000000, -14.00000000000000000 ) ) ;
#1237 = FACE_OUTER_BOUND ( 'NONE', #546, .T. ) ;
#1238 = AXIS2_PLACEMENT_3D ( 'NONE', #257, #640, #355 ) ;
#1239 = CARTESIAN_POINT ( 'NONE',  ( 233.3299999999999841, 0.000000000000000000, -10.75000000000001066 ) ) ;
#1240 = DIRECTION ( 'NONE',  ( -1.000000000000000000, 0.000000000000000000, 0.000000000000000000 ) ) ;
#1241 = DIRECTION ( 'NONE',  ( 0.000000000000000000, 0.000000000000000000, -1.000000000000000000 ) ) ;
#1242 = FACE_OUTER_BOUND ( 'NONE', #160, .T. ) ;
#1243 = DIRECTION ( 'NONE',  ( 0.000000000000000000, 0.000000000000000000, -1.000000000000000000 ) ) ;
#1244 = DIRECTION ( 'NONE',  ( 0.000000000000000000, 0.000000000000000000, -1.000000000000000000 ) ) ;
#1245 = FACE_OUTER_BOUND ( 'NONE', #983, .T. ) ;
ENDSEC;
END-ISO-10303-21;
