ISO-10303-21;
HEADER;
FILE_DESCRIPTION (( 'STEP AP214' ),
    '1' );
FILE_NAME ('Gehäuse_Guition_Abdeckung.STEP',
    '2026-09-30T06:13:29',
    ( '' ),
    ( '' ),
    'SwSTEP 2.0',
    'SolidWorks 2026',
    '' );
FILE_SCHEMA (( 'AUTOMOTIVE_DESIGN' ));
ENDSEC;

DATA;
#1 = EDGE_CURVE ( 'NONE', #453, #112, #221, .T. ) ;
#2 = FACE_OUTER_BOUND ( 'NONE', #15, .T. ) ;
#3 = VERTEX_POINT ( 'NONE', #396 ) ;
#4 = SURFACE_STYLE_USAGE ( .BOTH. , #316 ) ;
#5 = AXIS2_PLACEMENT_3D ( 'NONE', #193, #215, #326 ) ;
#6 = EDGE_CURVE ( 'NONE', #109, #112, #251, .T. ) ;
#7 = CARTESIAN_POINT ( 'NONE',  ( 0.000000000000000000, 0.000000000000000000, -39.50000000000000000 ) ) ;
#8 = CIRCLE ( 'NONE', #387, 1.500000000000001332 ) ;
#9 = DIRECTION ( 'NONE',  ( -0.000000000000000000, -1.000000000000000000, -0.000000000000000000 ) ) ;
#10 = FACE_OUTER_BOUND ( 'NONE', #137, .T. ) ;
#11 = ADVANCED_FACE ( 'NONE', ( #425 ), #196, .F. ) ;
#12 = LINE ( 'NONE', #17, #45 ) ;
#13 = DIRECTION ( 'NONE',  ( 0.000000000000000000, 0.000000000000000000, -1.000000000000000000 ) ) ;
#14 = DIRECTION ( 'NONE',  ( -0.000000000000000000, 1.000000000000000000, -0.000000000000000000 ) ) ;
#15 = EDGE_LOOP ( 'NONE', ( #74, #399, #179, #117, #277 ) ) ;
#16 = FACE_OUTER_BOUND ( 'NONE', #136, .T. ) ;
#17 = CARTESIAN_POINT ( 'NONE',  ( 39.00000000000000000, 2.000000000000000000, -1.000000000000000000 ) ) ;
#18 = DIRECTION ( 'NONE',  ( 1.000000000000000000, 0.000000000000000000, -0.000000000000000000 ) ) ;
#19 = AXIS2_PLACEMENT_3D ( 'NONE', #273, #232, #200 ) ;
#20 = ORIENTED_EDGE ( 'NONE', *, *, #125, .F. ) ;
#21 = DIRECTION ( 'NONE',  ( -1.000000000000000000, 0.000000000000000000, -0.000000000000000000 ) ) ;
#22 = DIRECTION ( 'NONE',  ( 0.000000000000000000, 0.000000000000000000, 1.000000000000000000 ) ) ;
#23 = EDGE_CURVE ( 'NONE', #48, #394, #12, .T. ) ;
#24 = DIRECTION ( 'NONE',  ( -1.000000000000000000, -0.000000000000000000, -0.000000000000000000 ) ) ;
#25 = AXIS2_PLACEMENT_3D ( 'NONE', #108, #443, #414 ) ;
#26 = EDGE_CURVE ( 'NONE', #112, #432, #159, .T. ) ;
#27 = AXIS2_PLACEMENT_3D ( 'NONE', #364, #52, #122 ) ;
#28 = DIRECTION ( 'NONE',  ( 0.000000000000000000, 0.000000000000000000, -1.000000000000000000 ) ) ;
#29 = ADVANCED_FACE ( 'NONE', ( #86, #223, #186 ), #53, .F. ) ;
#30 = DIRECTION ( 'NONE',  ( 0.000000000000000000, 1.000000000000000000, 0.000000000000000000 ) ) ;
#31 = CYLINDRICAL_SURFACE ( 'NONE', #296, 1.500000000000001332 ) ;
#32 = VECTOR ( 'NONE', #79, 1000.000000000000000 ) ;
#33 = ORIENTED_EDGE ( 'NONE', *, *, #6, .F. ) ;
#34 = ORIENTED_EDGE ( 'NONE', *, *, #440, .T. ) ;
#35 = DIRECTION ( 'NONE',  ( 0.000000000000000000, 0.000000000000000000, -1.000000000000000000 ) ) ;
#36 = ORIENTED_EDGE ( 'NONE', *, *, #1, .F. ) ;
#37 = CARTESIAN_POINT ( 'NONE',  ( 0.000000000000000000, 2.000000000000000000, -1.000000000000000000 ) ) ;
#38 = EDGE_LOOP ( 'NONE', ( #77, #281 ) ) ;
#39 = EDGE_CURVE ( 'NONE', #3, #384, #342, .T. ) ;
#40 = ORIENTED_EDGE ( 'NONE', *, *, #100, .F. ) ;
#41 = LINE ( 'NONE', #183, #395 ) ;
#42 = ORIENTED_EDGE ( 'NONE', *, *, #135, .F. ) ;
#43 = CIRCLE ( 'NONE', #101, 1.500000000000001332 ) ;
#44 = DIRECTION ( 'NONE',  ( 0.000000000000000000, 0.000000000000000000, -1.000000000000000000 ) ) ;
#45 = VECTOR ( 'NONE', #153, 1000.000000000000000 ) ;
#46 = VECTOR ( 'NONE', #298, 1000.000000000000000 ) ;
#47 = LINE ( 'NONE', #318, #32 ) ;
#48 = VERTEX_POINT ( 'NONE', #300 ) ;
#49 = CARTESIAN_POINT ( 'NONE',  ( 39.00000000000000000, 2.000000000000000000, -39.50000000000000000 ) ) ;
#50 = ORIENTED_EDGE ( 'NONE', *, *, #130, .F. ) ;
#51 = CARTESIAN_POINT ( 'NONE',  ( 38.00000000000000000, 0.000000000000000000, -1.000000000000000000 ) ) ;
#52 = DIRECTION ( 'NONE',  ( 0.000000000000000000, 1.000000000000000000, 0.000000000000000000 ) ) ;
#53 = PLANE ( 'NONE',  #91 ) ;
#54 = CARTESIAN_POINT ( 'NONE',  ( 3.000000000000000000, 2.000000000000000000, -38.00000000000000000 ) ) ;
#55 = DIRECTION ( 'NONE',  ( 0.000000000000000000, -0.000000000000000000, -1.000000000000000000 ) ) ;
#56 = CARTESIAN_POINT ( 'NONE',  ( 3.000000000000000000, -0.001000000000000132727, -38.00000000000000000 ) ) ;
#57 = AXIS2_PLACEMENT_3D ( 'NONE', #322, #398, #392 ) ;
#58 = EDGE_CURVE ( 'NONE', #294, #417, #167, .T. ) ;
#59 = DIRECTION ( 'NONE',  ( -0.000000000000000000, 1.000000000000000000, -0.000000000000000000 ) ) ;
#60 = PRODUCT_DEFINITION ( 'UNKNOWN', '', #133, #242 ) ;
#61 = LINE ( 'NONE', #95, #93 ) ;
#62 = EDGE_CURVE ( 'NONE', #48, #294, #61, .T. ) ;
#63 = CIRCLE ( 'NONE', #27, 1.500000000000001332 ) ;
#64 = PLANE ( 'NONE',  #411 ) ;
#65 = VECTOR ( 'NONE', #169, 1000.000000000000000 ) ;
#66 = ORIENTED_EDGE ( 'NONE', *, *, #382, .F. ) ;
#67 = VECTOR ( 'NONE', #87, 1000.000000000000000 ) ;
#68 = VECTOR ( 'NONE', #305, 1000.000000000000000 ) ;
#69 = ORIENTED_EDGE ( 'NONE', *, *, #23, .F. ) ;
#70 = ADVANCED_FACE ( 'NONE', ( #372 ), #202, .F. ) ;
#71 = DIRECTION ( 'NONE',  ( 0.000000000000000000, -1.000000000000000000, 0.000000000000000000 ) ) ;
#72 = ORIENTED_EDGE ( 'NONE', *, *, #249, .T. ) ;
#73 = FACE_BOUND ( 'NONE', #38, .T. ) ;
#74 = ORIENTED_EDGE ( 'NONE', *, *, #62, .F. ) ;
#75 =( GEOMETRIC_REPRESENTATION_CONTEXT ( 3 ) GLOBAL_UNCERTAINTY_ASSIGNED_CONTEXT ( ( #229 ) ) GLOBAL_UNIT_ASSIGNED_CONTEXT ( ( #389, #428, #147 ) ) REPRESENTATION_CONTEXT ( 'NONE', 'WORKASPACE' ) );
#76 = ORIENTED_EDGE ( 'NONE', *, *, #184, .T. ) ;
#77 = ORIENTED_EDGE ( 'NONE', *, *, #246, .T. ) ;
#78 = CYLINDRICAL_SURFACE ( 'NONE', #369, 1.000000000000000000 ) ;
#79 = DIRECTION ( 'NONE',  ( 0.000000000000000000, -1.000000000000000000, 0.000000000000000000 ) ) ;
#80 = ORIENTED_EDGE ( 'NONE', *, *, #266, .F. ) ;
#81 = FACE_OUTER_BOUND ( 'NONE', #353, .T. ) ;
#82 = VECTOR ( 'NONE', #433, 1000.000000000000000 ) ;
#83 = EDGE_LOOP ( 'NONE', ( #376, #211, #42, #20 ) ) ;
#84 = CARTESIAN_POINT ( 'NONE',  ( 38.00000000000000000, 1.500000000000000000, 0.000000000000000000 ) ) ;
#85 = DIRECTION ( 'NONE',  ( -1.000000000000000000, 0.000000000000000000, -0.000000000000000000 ) ) ;
#86 = FACE_BOUND ( 'NONE', #139, .T. ) ;
#87 = DIRECTION ( 'NONE',  ( -0.000000000000000000, 1.000000000000000000, -0.000000000000000000 ) ) ;
#88 = VERTEX_POINT ( 'NONE', #338 ) ;
#89 = LINE ( 'NONE', #56, #237 ) ;
#90 = EDGE_CURVE ( 'NONE', #422, #88, #407, .T. ) ;
#91 = AXIS2_PLACEMENT_3D ( 'NONE', #401, #367, #55 ) ;
#92 = FACE_OUTER_BOUND ( 'NONE', #352, .T. ) ;
#93 = VECTOR ( 'NONE', #268, 1000.000000000000000 ) ;
#94 = PRODUCT_RELATED_PRODUCT_CATEGORY ( 'part', '', ( #335 ) ) ;
#95 = CARTESIAN_POINT ( 'NONE',  ( 39.00000000000000000, 1.500000000000000000, -1.000000000000000000 ) ) ;
#96 = CARTESIAN_POINT ( 'NONE',  ( 0.000000000000000000, 2.000000000000000000, -1.000000000000000000 ) ) ;
#97 = APPLICATION_PROTOCOL_DEFINITION ( 'draft international standard', 'automotive_design', 1998, #175 ) ;
#98 = CARTESIAN_POINT ( 'NONE',  ( 0.000000000000000000, 0.000000000000000000, -1.000000000000000000 ) ) ;
#99 = CARTESIAN_POINT ( 'NONE',  ( 3.000000000000000000, -0.001000000000000132727, -36.50000000000000000 ) ) ;
#100 = EDGE_CURVE ( 'NONE', #206, #453, #271, .T. ) ;
#101 = AXIS2_PLACEMENT_3D ( 'NONE', #452, #204, #306 ) ;
#102 = ORIENTED_EDGE ( 'NONE', *, *, #393, .T. ) ;
#103 = CIRCLE ( 'NONE', #303, 1.000000000000000000 ) ;
#104 = ORIENTED_EDGE ( 'NONE', *, *, #58, .T. ) ;
#105 = EDGE_CURVE ( 'NONE', #384, #365, #304, .T. ) ;
#106 = LINE ( 'NONE', #307, #378 ) ;
#107 = ORIENTED_EDGE ( 'NONE', *, *, #1, .T. ) ;
#108 = CARTESIAN_POINT ( 'NONE',  ( 0.000000000000000000, 0.000000000000000000, 0.000000000000000000 ) ) ;
#109 = VERTEX_POINT ( 'NONE', #358 ) ;
#110 = CIRCLE ( 'NONE', #172, 1.500000000000001332 ) ;
#111 = DIRECTION ( 'NONE',  ( -1.000000000000000000, 0.000000000000000000, 0.000000000000000000 ) ) ;
#112 = VERTEX_POINT ( 'NONE', #7 ) ;
#113 = DIRECTION ( 'NONE',  ( 0.000000000000000000, 0.000000000000000000, -1.000000000000000000 ) ) ;
#114 = LINE ( 'NONE', #189, #345 ) ;
#115 = ORIENTED_EDGE ( 'NONE', *, *, #393, .F. ) ;
#116 = CARTESIAN_POINT ( 'NONE',  ( 1.000000000000000000, 2.000000000000000000, -1.000000000000000000 ) ) ;
#117 = ORIENTED_EDGE ( 'NONE', *, *, #329, .F. ) ;
#118 = CYLINDRICAL_SURFACE ( 'NONE', #339, 1.500000000000001332 ) ;
#119 = PLANE ( 'NONE',  #258 ) ;
#120 = CARTESIAN_POINT ( 'NONE',  ( 0.000000000000000000, 0.000000000000000000, 0.000000000000000000 ) ) ;
#121 = CARTESIAN_POINT ( 'NONE',  ( 39.00000000000000000, 2.000000000000000000, -39.50000000000000000 ) ) ;
#122 = DIRECTION ( 'NONE',  ( 0.000000000000000000, 0.000000000000000000, 1.000000000000000000 ) ) ;
#123 = ORIENTED_EDGE ( 'NONE', *, *, #134, .F. ) ;
#124 = PLANE ( 'NONE',  #302 ) ;
#125 = EDGE_CURVE ( 'NONE', #346, #446, #47, .T. ) ;
#126 = FACE_OUTER_BOUND ( 'NONE', #146, .T. ) ;
#127 = CIRCLE ( 'NONE', #449, 1.500000000000001332 ) ;
#128 = DIRECTION ( 'NONE',  ( 0.000000000000000000, -1.000000000000000000, 0.000000000000000000 ) ) ;
#129 = VECTOR ( 'NONE', #340, 1000.000000000000000 ) ;
#130 = EDGE_CURVE ( 'NONE', #346, #310, #114, .T. ) ;
#131 = DIRECTION ( 'NONE',  ( 0.000000000000000000, 0.000000000000000000, 1.000000000000000000 ) ) ;
#132 = PRODUCT_CONTEXT ( 'NONE', #175, 'mechanical' ) ;
#133 = PRODUCT_DEFINITION_FORMATION_WITH_SPECIFIED_SOURCE ( 'ANY', '', #335, .NOT_KNOWN. ) ;
#134 = EDGE_CURVE ( 'NONE', #88, #313, #8, .T. ) ;
#135 = EDGE_CURVE ( 'NONE', #446, #432, #269, .T. ) ;
#136 = EDGE_LOOP ( 'NONE', ( #225, #143, #278, #308 ) ) ;
#137 = EDGE_LOOP ( 'NONE', ( #104, #209, #217, #279 ) ) ;
#138 = EDGE_CURVE ( 'NONE', #413, #313, #311, .T. ) ;
#139 = EDGE_LOOP ( 'NONE', ( #123, #355 ) ) ;
#140 = AXIS2_PLACEMENT_3D ( 'NONE', #361, #14, #356 ) ;
#141 = EDGE_LOOP ( 'NONE', ( #180, #150, #177, #33, #66, #450 ) ) ;
#142 = CARTESIAN_POINT ( 'NONE',  ( 0.000000000000000000, 2.000000000000000000, 0.000000000000000000 ) ) ;
#143 = ORIENTED_EDGE ( 'NONE', *, *, #138, .T. ) ;
#144 = MANIFOLD_SOLID_BREP ( 'Verrundung1', #441 ) ;
#145 =( NAMED_UNIT ( * ) PLANE_ANGLE_UNIT ( ) SI_UNIT ( $, .RADIAN. ) );
#146 = EDGE_LOOP ( 'NONE', ( #241, #286, #80, #69 ) ) ;
#147 =( NAMED_UNIT ( * ) SI_UNIT ( $, .STERADIAN. ) SOLID_ANGLE_UNIT ( ) );
#148 = STYLED_ITEM ( 'NONE', ( #188 ), #144 ) ;
#149 = DIRECTION ( 'NONE',  ( 1.000000000000000000, 0.000000000000000000, 0.000000000000000000 ) ) ;
#150 = ORIENTED_EDGE ( 'NONE', *, *, #135, .T. ) ;
#151 = CARTESIAN_POINT ( 'NONE',  ( 0.000000000000000000, 1.500000000000000000, -1.000000000000000000 ) ) ;
#152 = ADVANCED_FACE ( 'NONE', ( #81 ), #418, .F. ) ;
#153 = DIRECTION ( 'NONE',  ( 0.000000000000000000, -1.000000000000000000, 0.000000000000000000 ) ) ;
#154 = CARTESIAN_POINT ( 'NONE',  ( 39.00000000000000000, 2.000000000000000000, -1.000000000000000000 ) ) ;
#155 = FILL_AREA_STYLE ('',( #252 ) ) ;
#156 = DIRECTION ( 'NONE',  ( -0.000000000000000000, -0.000000000000000000, 1.000000000000000000 ) ) ;
#157 = CARTESIAN_POINT ( 'NONE',  ( 36.00000000000000000, -0.001000000000000132727, -36.50000000000000000 ) ) ;
#158 = CARTESIAN_POINT ( 'NONE',  ( 36.00000000000000000, 0.000000000000000000, -36.50000000000000000 ) ) ;
#159 = LINE ( 'NONE', #120, #317 ) ;
#160 = CARTESIAN_POINT ( 'NONE',  ( 36.00000000000000000, 2.000000000000000000, -38.00000000000000000 ) ) ;
#161 = VECTOR ( 'NONE', #351, 1000.000000000000000 ) ;
#162 = CARTESIAN_POINT ( 'NONE',  ( 0.000000000000000000, 2.000000000000000000, -39.50000000000000000 ) ) ;
#163 = DIRECTION ( 'NONE',  ( -0.000000000000000000, 1.000000000000000000, -0.000000000000000000 ) ) ;
#164 = CARTESIAN_POINT ( 'NONE',  ( 3.000000000000000000, 0.000000000000000000, -36.50000000000000000 ) ) ;
#165 = UNCERTAINTY_MEASURE_WITH_UNIT (LENGTH_MEASURE( 1.000000000000000082E-05 ), #445, 'distance_accuracy_value', 'NONE');
#166 = AXIS2_PLACEMENT_3D ( 'NONE', #409, #30, #131 ) ;
#167 = LINE ( 'NONE', #96, #65 ) ;
#168 = AXIS2_PLACEMENT_3D ( 'NONE', #404, #201, #397 ) ;
#169 = DIRECTION ( 'NONE',  ( -1.000000000000000000, -0.000000000000000000, -0.000000000000000000 ) ) ;
#170 = DIRECTION ( 'NONE',  ( -0.000000000000000000, 1.000000000000000000, -0.000000000000000000 ) ) ;
#171 = ADVANCED_FACE ( 'NONE', ( #248 ), #78, .T. ) ;
#172 = AXIS2_PLACEMENT_3D ( 'NONE', #158, #328, #113 ) ;
#173 = CARTESIAN_POINT ( 'NONE',  ( 38.00000000000000000, 0.000000000000000000, 0.000000000000000000 ) ) ;
#174 = EDGE_CURVE ( 'NONE', #413, #422, #110, .T. ) ;
#175 = APPLICATION_CONTEXT ( 'automotive_design' ) ;
#176 = ORIENTED_EDGE ( 'NONE', *, *, #349, .T. ) ;
#177 = ORIENTED_EDGE ( 'NONE', *, *, #26, .F. ) ;
#178 = EDGE_CURVE ( 'NONE', #275, #346, #437, .T. ) ;
#179 = ORIENTED_EDGE ( 'NONE', *, *, #382, .T. ) ;
#180 = ORIENTED_EDGE ( 'NONE', *, *, #332, .F. ) ;
#181 = EDGE_LOOP ( 'NONE', ( #347, #191, #381, #410 ) ) ;
#182 = ORIENTED_EDGE ( 'NONE', *, *, #214, .T. ) ;
#183 = CARTESIAN_POINT ( 'NONE',  ( 39.00000000000000000, 2.000000000000000000, 0.000000000000000000 ) ) ;
#184 = EDGE_CURVE ( 'NONE', #48, #275, #216, .T. ) ;
#185 = VECTOR ( 'NONE', #163, 1000.000000000000000 ) ;
#186 = FACE_OUTER_BOUND ( 'NONE', #256, .T. ) ;
#187 = AXIS2_PLACEMENT_3D ( 'NONE', #51, #324, #197 ) ;
#188 = PRESENTATION_STYLE_ASSIGNMENT (( #4 ) ) ;
#189 = CARTESIAN_POINT ( 'NONE',  ( 0.000000000000000000, 1.500000000000000000, 0.000000000000000000 ) ) ;
#190 = PRODUCT_DEFINITION_SHAPE ( 'NONE', 'NONE',  #60 ) ;
#191 = ORIENTED_EDGE ( 'NONE', *, *, #192, .F. ) ;
#192 = EDGE_CURVE ( 'NONE', #422, #413, #267, .T. ) ;
#193 = CARTESIAN_POINT ( 'NONE',  ( 36.00000000000000000, -0.001000000000000132727, -36.50000000000000000 ) ) ;
#194 = DIRECTION ( 'NONE',  ( 0.000000000000000000, 0.000000000000000000, 1.000000000000000000 ) ) ;
#195 = CARTESIAN_POINT ( 'NONE',  ( 0.000000000000000000, 1.500000000000000000, -1.000000000000000000 ) ) ;
#196 = CYLINDRICAL_SURFACE ( 'NONE', #5, 1.500000000000001332 ) ;
#197 = DIRECTION ( 'NONE',  ( 0.000000000000000000, 0.000000000000000000, -1.000000000000000000 ) ) ;
#198 = CARTESIAN_POINT ( 'NONE',  ( 3.000000000000000000, 0.000000000000000000, -36.50000000000000000 ) ) ;
#199 = CARTESIAN_POINT ( 'NONE',  ( 0.000000000000000000, 1.500000000000000000, -1.000000000000000000 ) ) ;
#200 = DIRECTION ( 'NONE',  ( 1.000000000000000000, 0.000000000000000000, 0.000000000000000000 ) ) ;
#201 = DIRECTION ( 'NONE',  ( 0.000000000000000000, -1.000000000000000000, 0.000000000000000000 ) ) ;
#202 = PLANE ( 'NONE',  #227 ) ;
#203 = CARTESIAN_POINT ( 'NONE',  ( 3.000000000000000000, 0.000000000000000000, -34.99999999999999289 ) ) ;
#204 = DIRECTION ( 'NONE',  ( 0.000000000000000000, 1.000000000000000000, 0.000000000000000000 ) ) ;
#205 = VECTOR ( 'NONE', #362, 1000.000000000000000 ) ;
#206 = VERTEX_POINT ( 'NONE', #49 ) ;
#207 = MECHANICAL_DESIGN_GEOMETRIC_PRESENTATION_REPRESENTATION (  '', ( #148 ), #75 ) ;
#208 = ORIENTED_EDGE ( 'NONE', *, *, #6, .T. ) ;
#209 = ORIENTED_EDGE ( 'NONE', *, *, #249, .F. ) ;
#210 = FACE_OUTER_BOUND ( 'NONE', #284, .T. ) ;
#211 = ORIENTED_EDGE ( 'NONE', *, *, #270, .F. ) ;
#212 = ORIENTED_EDGE ( 'NONE', *, *, #371, .T. ) ;
#213 = DIRECTION ( 'NONE',  ( 0.000000000000000000, -1.000000000000000000, 0.000000000000000000 ) ) ;
#214 = EDGE_CURVE ( 'NONE', #310, #48, #103, .T. ) ;
#215 = DIRECTION ( 'NONE',  ( -0.000000000000000000, 1.000000000000000000, -0.000000000000000000 ) ) ;
#216 = LINE ( 'NONE', #195, #319 ) ;
#217 = ORIENTED_EDGE ( 'NONE', *, *, #184, .F. ) ;
#218 = AXIS2_PLACEMENT_3D ( 'NONE', #354, #293, #219 ) ;
#219 = DIRECTION ( 'NONE',  ( 0.000000000000000000, 0.000000000000000000, -1.000000000000000000 ) ) ;
#220 = ADVANCED_FACE ( 'NONE', ( #10 ), #119, .F. ) ;
#221 = LINE ( 'NONE', #162, #419 ) ;
#222 = CARTESIAN_POINT ( 'NONE',  ( 0.000000000000000000, 0.000000000000000000, 0.000000000000000000 ) ) ;
#223 = FACE_BOUND ( 'NONE', #239, .T. ) ;
#224 = CARTESIAN_POINT ( 'NONE',  ( 0.000000000000000000, 2.000000000000000000, -1.000000000000000000 ) ) ;
#225 = ORIENTED_EDGE ( 'NONE', *, *, #174, .F. ) ;
#226 = CYLINDRICAL_SURFACE ( 'NONE', #168, 1.000000000000000000 ) ;
#227 = AXIS2_PLACEMENT_3D ( 'NONE', #406, #128, #230 ) ;
#228 = CARTESIAN_POINT ( 'NONE',  ( 3.000000000000000000, -0.001000000000000132727, -36.50000000000000000 ) ) ;
#229 = UNCERTAINTY_MEASURE_WITH_UNIT (LENGTH_MEASURE( 1.000000000000000082E-05 ), #389, 'distance_accuracy_value', 'NONE');
#230 = DIRECTION ( 'NONE',  ( 0.000000000000000000, -0.000000000000000000, -1.000000000000000000 ) ) ;
#231 = EDGE_CURVE ( 'NONE', #313, #88, #63, .T. ) ;
#232 = DIRECTION ( 'NONE',  ( 0.000000000000000000, 0.000000000000000000, 1.000000000000000000 ) ) ;
#233 = EDGE_CURVE ( 'NONE', #294, #206, #41, .T. ) ;
#234 = CARTESIAN_POINT ( 'NONE',  ( 36.00000000000000000, 0.000000000000000000, -38.00000000000000000 ) ) ;
#235 = CARTESIAN_POINT ( 'NONE',  ( 1.000000000000000000, 0.000000000000000000, 0.000000000000000000 ) ) ;
#236 = EDGE_LOOP ( 'NONE', ( #388, #212, #102, #360 ) ) ;
#237 = VECTOR ( 'NONE', #434, 1000.000000000000000 ) ;
#238 = ORIENTED_EDGE ( 'NONE', *, *, #375, .F. ) ;
#239 = EDGE_LOOP ( 'NONE', ( #238, #115 ) ) ;
#240 = CARTESIAN_POINT ( 'NONE',  ( 39.00000000000000000, 2.000000000000000000, 0.000000000000000000 ) ) ;
#241 = ORIENTED_EDGE ( 'NONE', *, *, #214, .F. ) ;
#242 = PRODUCT_DEFINITION_CONTEXT ( 'detailed design', #390, 'design' ) ;
#243 = DIRECTION ( 'NONE',  ( 0.000000000000000000, 0.000000000000000000, 1.000000000000000000 ) ) ;
#244 = LINE ( 'NONE', #142, #161 ) ;
#245 = ORIENTED_EDGE ( 'NONE', *, *, #233, .T. ) ;
#246 = EDGE_CURVE ( 'NONE', #384, #3, #127, .T. ) ;
#247 = VECTOR ( 'NONE', #24, 1000.000000000000000 ) ;
#248 = FACE_OUTER_BOUND ( 'NONE', #83, .T. ) ;
#249 = EDGE_CURVE ( 'NONE', #275, #417, #327, .T. ) ;
#250 = DIRECTION ( 'NONE',  ( 0.000000000000000000, 0.000000000000000000, 1.000000000000000000 ) ) ;
#251 = LINE ( 'NONE', #323, #205 ) ;
#252 = FILL_AREA_STYLE_COLOUR ( '', #420 ) ;
#253 = DIRECTION ( 'NONE',  ( 0.000000000000000000, 1.000000000000000000, 0.000000000000000000 ) ) ;
#254 = EDGE_LOOP ( 'NONE', ( #429, #320 ) ) ;
#255 = ADVANCED_FACE ( 'NONE', ( #16 ), #257, .F. ) ;
#256 = EDGE_LOOP ( 'NONE', ( #348, #245, #276, #34 ) ) ;
#257 = CYLINDRICAL_SURFACE ( 'NONE', #359, 1.500000000000001332 ) ;
#258 = AXIS2_PLACEMENT_3D ( 'NONE', #151, #259, #85 ) ;
#259 = DIRECTION ( 'NONE',  ( 0.000000000000000000, 0.000000000000000000, -1.000000000000000000 ) ) ;
#260 = ORIENTED_EDGE ( 'NONE', *, *, #105, .T. ) ;
#261 = CARTESIAN_POINT ( 'NONE',  ( 1.000000000000000000, 1.500000000000000000, 0.000000000000000000 ) ) ;
#262 = DIRECTION ( 'NONE',  ( 0.000000000000000000, 0.000000000000000000, -1.000000000000000000 ) ) ;
#263 = EDGE_LOOP ( 'NONE', ( #76, #447, #391, #182 ) ) ;
#264 = LINE ( 'NONE', #334, #185 ) ;
#265 = LINE ( 'NONE', #224, #46 ) ;
#266 = EDGE_CURVE ( 'NONE', #394, #448, #380, .T. ) ;
#267 = CIRCLE ( 'NONE', #140, 1.500000000000001332 ) ;
#268 = DIRECTION ( 'NONE',  ( -0.000000000000000000, 1.000000000000000000, -0.000000000000000000 ) ) ;
#269 = CIRCLE ( 'NONE', #321, 1.000000000000000000 ) ;
#270 = EDGE_CURVE ( 'NONE', #432, #275, #265, .T. ) ;
#271 = LINE ( 'NONE', #373, #247 ) ;
#272 = ADVANCED_FACE ( 'NONE', ( #126 ), #226, .T. ) ;
#273 = CARTESIAN_POINT ( 'NONE',  ( 0.000000000000000000, 0.000000000000000000, 0.000000000000000000 ) ) ;
#274 = CARTESIAN_POINT ( 'NONE',  ( 36.00000000000000000, 0.000000000000000000, -34.99999999999999289 ) ) ;
#275 = VERTEX_POINT ( 'NONE', #301 ) ;
#276 = ORIENTED_EDGE ( 'NONE', *, *, #100, .T. ) ;
#277 = ORIENTED_EDGE ( 'NONE', *, *, #233, .F. ) ;
#278 = ORIENTED_EDGE ( 'NONE', *, *, #231, .T. ) ;
#279 = ORIENTED_EDGE ( 'NONE', *, *, #62, .T. ) ;
#280 = FACE_OUTER_BOUND ( 'NONE', #141, .T. ) ;
#281 = ORIENTED_EDGE ( 'NONE', *, *, #39, .T. ) ;
#282 = SURFACE_STYLE_FILL_AREA ( #155 ) ;
#283 =( NAMED_UNIT ( * ) SI_UNIT ( $, .STERADIAN. ) SOLID_ANGLE_UNIT ( ) );
#284 = EDGE_LOOP ( 'NONE', ( #291, #386, #260, #315 ) ) ;
#285 = DIRECTION ( 'NONE',  ( 0.000000000000000000, 0.000000000000000000, -1.000000000000000000 ) ) ;
#286 = ORIENTED_EDGE ( 'NONE', *, *, #349, .F. ) ;
#287 = DIRECTION ( 'NONE',  ( -0.000000000000000000, 1.000000000000000000, -0.000000000000000000 ) ) ;
#288 = ORIENTED_EDGE ( 'NONE', *, *, #332, .T. ) ;
#289 = FACE_OUTER_BOUND ( 'NONE', #312, .T. ) ;
#290 = CARTESIAN_POINT ( 'NONE',  ( 38.00000000000000000, 1.500000000000000000, -1.000000000000000000 ) ) ;
#291 = ORIENTED_EDGE ( 'NONE', *, *, #371, .F. ) ;
#292 = DIRECTION ( 'NONE',  ( -0.000000000000000000, 1.000000000000000000, -0.000000000000000000 ) ) ;
#293 = DIRECTION ( 'NONE',  ( -0.000000000000000000, 1.000000000000000000, -0.000000000000000000 ) ) ;
#294 = VERTEX_POINT ( 'NONE', #154 ) ;
#295 = LINE ( 'NONE', #121, #82 ) ;
#296 = AXIS2_PLACEMENT_3D ( 'NONE', #99, #170, #250 ) ;
#297 = ORIENTED_EDGE ( 'NONE', *, *, #440, .F. ) ;
#298 = DIRECTION ( 'NONE',  ( 0.000000000000000000, 1.000000000000000000, -0.000000000000000000 ) ) ;
#299 = ADVANCED_FACE ( 'NONE', ( #92 ), #370, .F. ) ;
#300 = CARTESIAN_POINT ( 'NONE',  ( 39.00000000000000000, 1.500000000000000000, -1.000000000000000000 ) ) ;
#301 = CARTESIAN_POINT ( 'NONE',  ( 0.000000000000000000, 1.500000000000000000, -1.000000000000000000 ) ) ;
#302 = AXIS2_PLACEMENT_3D ( 'NONE', #366, #368, #21 ) ;
#303 = AXIS2_PLACEMENT_3D ( 'NONE', #290, #431, #44 ) ;
#304 = LINE ( 'NONE', #438, #129 ) ;
#305 = DIRECTION ( 'NONE',  ( -0.000000000000000000, 1.000000000000000000, -0.000000000000000000 ) ) ;
#306 = DIRECTION ( 'NONE',  ( 0.000000000000000000, 0.000000000000000000, 1.000000000000000000 ) ) ;
#307 = CARTESIAN_POINT ( 'NONE',  ( 39.00000000000000000, 0.000000000000000000, 0.000000000000000000 ) ) ;
#308 = ORIENTED_EDGE ( 'NONE', *, *, #90, .F. ) ;
#309 = ADVANCED_FACE ( 'NONE', ( #430 ), #118, .F. ) ;
#310 = VERTEX_POINT ( 'NONE', #84 ) ;
#311 = LINE ( 'NONE', #385, #444 ) ;
#312 = EDGE_LOOP ( 'NONE', ( #50, #330, #288, #176 ) ) ;
#313 = VERTEX_POINT ( 'NONE', #160 ) ;
#314 = CARTESIAN_POINT ( 'NONE',  ( 39.00000000000000000, 0.000000000000000000, -1.000000000000000000 ) ) ;
#315 = ORIENTED_EDGE ( 'NONE', *, *, #375, .T. ) ;
#316 = SURFACE_SIDE_STYLE ('',( #282 ) ) ;
#317 = VECTOR ( 'NONE', #156, 1000.000000000000000 ) ;
#318 = CARTESIAN_POINT ( 'NONE',  ( 1.000000000000000000, 2.000000000000000000, 0.000000000000000000 ) ) ;
#319 = VECTOR ( 'NONE', #325, 1000.000000000000000 ) ;
#320 = ORIENTED_EDGE ( 'NONE', *, *, #174, .T. ) ;
#321 = AXIS2_PLACEMENT_3D ( 'NONE', #383, #71, #35 ) ;
#322 = CARTESIAN_POINT ( 'NONE',  ( 0.000000000000000000, 2.000000000000000000, 0.000000000000000000 ) ) ;
#323 = CARTESIAN_POINT ( 'NONE',  ( 0.000000000000000000, 0.000000000000000000, -39.50000000000000000 ) ) ;
#324 = DIRECTION ( 'NONE',  ( 0.000000000000000000, -1.000000000000000000, 0.000000000000000000 ) ) ;
#325 = DIRECTION ( 'NONE',  ( -1.000000000000000000, -0.000000000000000000, -0.000000000000000000 ) ) ;
#326 = DIRECTION ( 'NONE',  ( 0.000000000000000000, 0.000000000000000000, 1.000000000000000000 ) ) ;
#327 = LINE ( 'NONE', #199, #67 ) ;
#328 = DIRECTION ( 'NONE',  ( -0.000000000000000000, 1.000000000000000000, -0.000000000000000000 ) ) ;
#329 = EDGE_CURVE ( 'NONE', #206, #109, #295, .T. ) ;
#330 = ORIENTED_EDGE ( 'NONE', *, *, #125, .T. ) ;
#331 = CARTESIAN_POINT ( 'NONE',  ( 0.000000000000000000, 2.000000000000000000, -39.50000000000000000 ) ) ;
#332 = EDGE_CURVE ( 'NONE', #446, #448, #337, .T. ) ;
#333 = DIRECTION ( 'NONE',  ( -0.000000000000000000, 1.000000000000000000, -0.000000000000000000 ) ) ;
#334 = CARTESIAN_POINT ( 'NONE',  ( 38.00000000000000000, 2.000000000000000000, 0.000000000000000000 ) ) ;
#335 = PRODUCT ( 'Geh\X2\00e4\X0\use_Guition_Abdeckung', 'Geh\X2\00e4\X0\use_Guition_Abdeckung', '', ( #132 ) ) ;
#336 =( GEOMETRIC_REPRESENTATION_CONTEXT ( 3 ) GLOBAL_UNCERTAINTY_ASSIGNED_CONTEXT ( ( #165 ) ) GLOBAL_UNIT_ASSIGNED_CONTEXT ( ( #445, #145, #283 ) ) REPRESENTATION_CONTEXT ( 'NONE', 'WORKASPACE' ) );
#337 = LINE ( 'NONE', #222, #436 ) ;
#338 = CARTESIAN_POINT ( 'NONE',  ( 36.00000000000000000, 2.000000000000000000, -34.99999999999999289 ) ) ;
#339 = AXIS2_PLACEMENT_3D ( 'NONE', #228, #59, #22 ) ;
#340 = DIRECTION ( 'NONE',  ( -0.000000000000000000, 1.000000000000000000, -0.000000000000000000 ) ) ;
#341 = DIRECTION ( 'NONE',  ( 0.000000000000000000, 0.000000000000000000, -1.000000000000000000 ) ) ;
#342 = CIRCLE ( 'NONE', #403, 1.500000000000001332 ) ;
#343 = PLANE ( 'NONE',  #25 ) ;
#344 = ADVANCED_FACE ( 'NONE', ( #289 ), #124, .F. ) ;
#345 = VECTOR ( 'NONE', #149, 1000.000000000000000 ) ;
#346 = VERTEX_POINT ( 'NONE', #261 ) ;
#347 = ORIENTED_EDGE ( 'NONE', *, *, #138, .F. ) ;
#348 = ORIENTED_EDGE ( 'NONE', *, *, #58, .F. ) ;
#349 = EDGE_CURVE ( 'NONE', #448, #310, #264, .T. ) ;
#350 = VERTEX_POINT ( 'NONE', #54 ) ;
#351 = DIRECTION ( 'NONE',  ( -0.000000000000000000, -0.000000000000000000, 1.000000000000000000 ) ) ;
#352 = EDGE_LOOP ( 'NONE', ( #208, #36, #40, #377 ) ) ;
#353 = EDGE_LOOP ( 'NONE', ( #415, #426, #72, #297, #107 ) ) ;
#354 = CARTESIAN_POINT ( 'NONE',  ( 1.000000000000000000, 1.500000000000000000, -1.000000000000000000 ) ) ;
#355 = ORIENTED_EDGE ( 'NONE', *, *, #231, .F. ) ;
#356 = DIRECTION ( 'NONE',  ( 0.000000000000000000, 0.000000000000000000, -1.000000000000000000 ) ) ;
#357 = CIRCLE ( 'NONE', #166, 1.500000000000001332 ) ;
#358 = CARTESIAN_POINT ( 'NONE',  ( 39.00000000000000000, 0.000000000000000000, -39.50000000000000000 ) ) ;
#359 = AXIS2_PLACEMENT_3D ( 'NONE', #157, #292, #427 ) ;
#360 = ORIENTED_EDGE ( 'NONE', *, *, #105, .F. ) ;
#361 = CARTESIAN_POINT ( 'NONE',  ( 36.00000000000000000, 0.000000000000000000, -36.50000000000000000 ) ) ;
#362 = DIRECTION ( 'NONE',  ( -1.000000000000000000, -0.000000000000000000, -0.000000000000000000 ) ) ;
#363 = DIRECTION ( 'NONE',  ( 1.000000000000000000, 0.000000000000000000, 0.000000000000000000 ) ) ;
#364 = CARTESIAN_POINT ( 'NONE',  ( 36.00000000000000000, 2.000000000000000000, -36.50000000000000000 ) ) ;
#365 = VERTEX_POINT ( 'NONE', #402 ) ;
#366 = CARTESIAN_POINT ( 'NONE',  ( 0.000000000000000000, 2.000000000000000000, 0.000000000000000000 ) ) ;
#367 = DIRECTION ( 'NONE',  ( 0.000000000000000000, -1.000000000000000000, 0.000000000000000000 ) ) ;
#368 = DIRECTION ( 'NONE',  ( 0.000000000000000000, 0.000000000000000000, -1.000000000000000000 ) ) ;
#369 = AXIS2_PLACEMENT_3D ( 'NONE', #116, #213, #262 ) ;
#370 = PLANE ( 'NONE',  #412 ) ;
#371 = EDGE_CURVE ( 'NONE', #3, #350, #89, .T. ) ;
#372 = FACE_OUTER_BOUND ( 'NONE', #263, .T. ) ;
#373 = CARTESIAN_POINT ( 'NONE',  ( 0.000000000000000000, 2.000000000000000000, -39.50000000000000000 ) ) ;
#374 = CARTESIAN_POINT ( 'NONE',  ( 0.000000000000000000, 2.000000000000000000, -39.50000000000000000 ) ) ;
#375 = EDGE_CURVE ( 'NONE', #365, #350, #43, .T. ) ;
#376 = ORIENTED_EDGE ( 'NONE', *, *, #178, .F. ) ;
#377 = ORIENTED_EDGE ( 'NONE', *, *, #329, .T. ) ;
#378 = VECTOR ( 'NONE', #341, 1000.000000000000000 ) ;
#379 = ADVANCED_FACE ( 'NONE', ( #73, #416, #280 ), #343, .T. ) ;
#380 = CIRCLE ( 'NONE', #187, 1.000000000000000000 ) ;
#381 = ORIENTED_EDGE ( 'NONE', *, *, #90, .T. ) ;
#382 = EDGE_CURVE ( 'NONE', #394, #109, #106, .T. ) ;
#383 = CARTESIAN_POINT ( 'NONE',  ( 1.000000000000000000, 0.000000000000000000, -1.000000000000000000 ) ) ;
#384 = VERTEX_POINT ( 'NONE', #203 ) ;
#385 = CARTESIAN_POINT ( 'NONE',  ( 36.00000000000000000, -0.001000000000000132727, -38.00000000000000000 ) ) ;
#386 = ORIENTED_EDGE ( 'NONE', *, *, #246, .F. ) ;
#387 = AXIS2_PLACEMENT_3D ( 'NONE', #424, #253, #243 ) ;
#388 = ORIENTED_EDGE ( 'NONE', *, *, #39, .F. ) ;
#389 =( LENGTH_UNIT ( ) NAMED_UNIT ( * ) SI_UNIT ( .MILLI., .METRE. ) );
#390 = APPLICATION_CONTEXT ( 'automotive_design' ) ;
#391 = ORIENTED_EDGE ( 'NONE', *, *, #130, .T. ) ;
#392 = DIRECTION ( 'NONE',  ( 0.000000000000000000, 0.000000000000000000, -1.000000000000000000 ) ) ;
#393 = EDGE_CURVE ( 'NONE', #350, #365, #357, .T. ) ;
#394 = VERTEX_POINT ( 'NONE', #314 ) ;
#395 = VECTOR ( 'NONE', #285, 1000.000000000000000 ) ;
#396 = CARTESIAN_POINT ( 'NONE',  ( 3.000000000000000000, 0.000000000000000000, -38.00000000000000000 ) ) ;
#397 = DIRECTION ( 'NONE',  ( 0.000000000000000000, 0.000000000000000000, -1.000000000000000000 ) ) ;
#398 = DIRECTION ( 'NONE',  ( 1.000000000000000000, -0.000000000000000000, 0.000000000000000000 ) ) ;
#399 = ORIENTED_EDGE ( 'NONE', *, *, #23, .T. ) ;
#400 = DIRECTION ( 'NONE',  ( -0.000000000000000000, 1.000000000000000000, -0.000000000000000000 ) ) ;
#401 = CARTESIAN_POINT ( 'NONE',  ( 0.000000000000000000, 2.000000000000000000, 0.000000000000000000 ) ) ;
#402 = CARTESIAN_POINT ( 'NONE',  ( 3.000000000000000000, 2.000000000000000000, -34.99999999999999289 ) ) ;
#403 = AXIS2_PLACEMENT_3D ( 'NONE', #198, #333, #28 ) ;
#404 = CARTESIAN_POINT ( 'NONE',  ( 38.00000000000000000, 2.000000000000000000, -1.000000000000000000 ) ) ;
#405 = PRESENTATION_LAYER_ASSIGNMENT (  '', '', ( #148 ) ) ;
#406 = CARTESIAN_POINT ( 'NONE',  ( 0.000000000000000000, 1.500000000000000000, 0.000000000000000000 ) ) ;
#407 = LINE ( 'NONE', #435, #68 ) ;
#408 = ADVANCED_FACE ( 'NONE', ( #2 ), #64, .F. ) ;
#409 = CARTESIAN_POINT ( 'NONE',  ( 3.000000000000000000, 2.000000000000000000, -36.50000000000000000 ) ) ;
#410 = ORIENTED_EDGE ( 'NONE', *, *, #134, .T. ) ;
#411 = AXIS2_PLACEMENT_3D ( 'NONE', #240, #111, #421 ) ;
#412 = AXIS2_PLACEMENT_3D ( 'NONE', #331, #194, #18 ) ;
#413 = VERTEX_POINT ( 'NONE', #234 ) ;
#414 = DIRECTION ( 'NONE',  ( 0.000000000000000000, -0.000000000000000000, -1.000000000000000000 ) ) ;
#415 = ORIENTED_EDGE ( 'NONE', *, *, #26, .T. ) ;
#416 = FACE_BOUND ( 'NONE', #254, .T. ) ;
#417 = VERTEX_POINT ( 'NONE', #37 ) ;
#418 = PLANE ( 'NONE',  #57 ) ;
#419 = VECTOR ( 'NONE', #9, 1000.000000000000000 ) ;
#420 = COLOUR_RGB ( '',0.7921568627450980005, 0.8196078431372548767, 0.9333333333333333481 ) ;
#421 = DIRECTION ( 'NONE',  ( 0.000000000000000000, 0.000000000000000000, 1.000000000000000000 ) ) ;
#422 = VERTEX_POINT ( 'NONE', #274 ) ;
#423 = ADVANCED_FACE ( 'NONE', ( #210 ), #31, .F. ) ;
#424 = CARTESIAN_POINT ( 'NONE',  ( 36.00000000000000000, 2.000000000000000000, -36.50000000000000000 ) ) ;
#425 = FACE_OUTER_BOUND ( 'NONE', #181, .T. ) ;
#426 = ORIENTED_EDGE ( 'NONE', *, *, #270, .T. ) ;
#427 = DIRECTION ( 'NONE',  ( 0.000000000000000000, 0.000000000000000000, 1.000000000000000000 ) ) ;
#428 =( NAMED_UNIT ( * ) PLANE_ANGLE_UNIT ( ) SI_UNIT ( $, .RADIAN. ) );
#429 = ORIENTED_EDGE ( 'NONE', *, *, #192, .T. ) ;
#430 = FACE_OUTER_BOUND ( 'NONE', #236, .T. ) ;
#431 = DIRECTION ( 'NONE',  ( -0.000000000000000000, 1.000000000000000000, -0.000000000000000000 ) ) ;
#432 = VERTEX_POINT ( 'NONE', #98 ) ;
#433 = DIRECTION ( 'NONE',  ( -0.000000000000000000, -1.000000000000000000, -0.000000000000000000 ) ) ;
#434 = DIRECTION ( 'NONE',  ( -0.000000000000000000, 1.000000000000000000, -0.000000000000000000 ) ) ;
#435 = CARTESIAN_POINT ( 'NONE',  ( 36.00000000000000000, -0.001000000000000132727, -34.99999999999999289 ) ) ;
#436 = VECTOR ( 'NONE', #363, 1000.000000000000000 ) ;
#437 = CIRCLE ( 'NONE', #218, 1.000000000000000000 ) ;
#438 = CARTESIAN_POINT ( 'NONE',  ( 3.000000000000000000, -0.001000000000000132727, -34.99999999999999289 ) ) ;
#439 = APPLICATION_PROTOCOL_DEFINITION ( 'draft international standard', 'automotive_design', 1998, #390 ) ;
#440 = EDGE_CURVE ( 'NONE', #453, #417, #244, .T. ) ;
#441 = CLOSED_SHELL ( 'NONE', ( #309, #255, #344, #408, #29, #152, #299, #379, #11, #423, #220, #70, #171, #272 ) ) ;
#442 = SHAPE_DEFINITION_REPRESENTATION ( #190, #451 ) ;
#443 = DIRECTION ( 'NONE',  ( 0.000000000000000000, -1.000000000000000000, 0.000000000000000000 ) ) ;
#444 = VECTOR ( 'NONE', #287, 1000.000000000000000 ) ;
#445 =( LENGTH_UNIT ( ) NAMED_UNIT ( * ) SI_UNIT ( .MILLI., .METRE. ) );
#446 = VERTEX_POINT ( 'NONE', #235 ) ;
#447 = ORIENTED_EDGE ( 'NONE', *, *, #178, .T. ) ;
#448 = VERTEX_POINT ( 'NONE', #173 ) ;
#449 = AXIS2_PLACEMENT_3D ( 'NONE', #164, #400, #13 ) ;
#450 = ORIENTED_EDGE ( 'NONE', *, *, #266, .T. ) ;
#451 = ADVANCED_BREP_SHAPE_REPRESENTATION ( 'Geh\X2\00e4\X0\use_Guition_Abdeckung', ( #144, #19 ), #336 ) ;
#452 = CARTESIAN_POINT ( 'NONE',  ( 3.000000000000000000, 2.000000000000000000, -36.50000000000000000 ) ) ;
#453 = VERTEX_POINT ( 'NONE', #374 ) ;
ENDSEC;
END-ISO-10303-21;
