ISO-10303-21;
HEADER;
FILE_DESCRIPTION (( 'STEP AP214' ),
    '1' );
FILE_NAME ('Gehäuse_Waveshare_Sockel_Deckel.STEP',
    '2026-09-03T05:20:00',
    ( '' ),
    ( '' ),
    'SwSTEP 2.0',
    'SolidWorks 2026',
    '' );
FILE_SCHEMA (( 'AUTOMOTIVE_DESIGN' ));
ENDSEC;

DATA;
#1 = PLANE ( 'NONE',  #70 ) ;
#2 = DIRECTION ( 'NONE',  ( 0.000000000000000000, 0.000000000000000000, -1.000000000000000000 ) ) ;
#3 = AXIS2_PLACEMENT_3D ( 'NONE', #200, #172, #309 ) ;
#4 = VERTEX_POINT ( 'NONE', #105 ) ;
#5 = CIRCLE ( 'NONE', #87, 1.000000000000000888 ) ;
#6 = CARTESIAN_POINT ( 'NONE',  ( 1.000000000000000000, 0.000000000000000000, 0.000000000000000000 ) ) ;
#7 = LINE ( 'NONE', #419, #298 ) ;
#8 = ORIENTED_EDGE ( 'NONE', *, *, #84, .F. ) ;
#9 = DIRECTION ( 'NONE',  ( 0.000000000000000000, 0.000000000000000000, 1.000000000000000000 ) ) ;
#10 = EDGE_CURVE ( 'NONE', #421, #33, #435, .T. ) ;
#11 = VECTOR ( 'NONE', #272, 1000.000000000000000 ) ;
#12 = DIRECTION ( 'NONE',  ( -0.000000000000000000, 1.000000000000000000, -0.000000000000000000 ) ) ;
#13 = CARTESIAN_POINT ( 'NONE',  ( 39.50000000000000000, 2.000000000000000000, 0.000000000000000000 ) ) ;
#14 = ORIENTED_EDGE ( 'NONE', *, *, #47, .F. ) ;
#15 = FACE_OUTER_BOUND ( 'NONE', #90, .T. ) ;
#16 = ORIENTED_EDGE ( 'NONE', *, *, #273, .T. ) ;
#17 = AXIS2_PLACEMENT_3D ( 'NONE', #117, #215, #2 ) ;
#18 = LINE ( 'NONE', #13, #25 ) ;
#19 = ORIENTED_EDGE ( 'NONE', *, *, #422, .F. ) ;
#20 = CARTESIAN_POINT ( 'NONE',  ( 36.50000000000000711, 2.000000000000000000, 36.00000000000000000 ) ) ;
#21 = ORIENTED_EDGE ( 'NONE', *, *, #231, .T. ) ;
#22 = EDGE_LOOP ( 'NONE', ( #296, #264, #339, #199 ) ) ;
#23 = AXIS2_PLACEMENT_3D ( 'NONE', #40, #427, #393 ) ;
#24 = APPLICATION_PROTOCOL_DEFINITION ( 'draft international standard', 'automotive_design', 1998, #58 ) ;
#25 = VECTOR ( 'NONE', #335, 1000.000000000000000 ) ;
#26 = LINE ( 'NONE', #68, #101 ) ;
#27 = CARTESIAN_POINT ( 'NONE',  ( 1.000000000000000000, 0.000000000000000000, 38.00000000000000000 ) ) ;
#28 = DIRECTION ( 'NONE',  ( 0.000000000000000000, 0.000000000000000000, 1.000000000000000000 ) ) ;
#29 = DIRECTION ( 'NONE',  ( 0.000000000000000000, 0.000000000000000000, 1.000000000000000000 ) ) ;
#30 = CARTESIAN_POINT ( 'NONE',  ( 1.000000000000000000, 1.500000000000000000, 1.000000000000000000 ) ) ;
#31 = DIRECTION ( 'NONE',  ( -1.000000000000000000, 0.000000000000000000, -0.000000000000000000 ) ) ;
#32 = VECTOR ( 'NONE', #37, 1000.000000000000000 ) ;
#33 = VERTEX_POINT ( 'NONE', #317 ) ;
#34 = AXIS2_PLACEMENT_3D ( 'NONE', #235, #376, #169 ) ;
#35 = DIRECTION ( 'NONE',  ( -0.000000000000000000, 1.000000000000000000, -0.000000000000000000 ) ) ;
#36 = ADVANCED_FACE ( 'NONE', ( #241 ), #102, .F. ) ;
#37 = DIRECTION ( 'NONE',  ( -0.000000000000000000, -1.000000000000000000, -0.000000000000000000 ) ) ;
#38 = CARTESIAN_POINT ( 'NONE',  ( 1.000000000000002442, 2.000000000000000000, 39.00000000000000000 ) ) ;
#39 = ORIENTED_EDGE ( 'NONE', *, *, #297, .T. ) ;
#40 = CARTESIAN_POINT ( 'NONE',  ( 1.000000000000000000, 2.000000000000000000, 38.00000000000000000 ) ) ;
#41 = CARTESIAN_POINT ( 'NONE',  ( 0.000000000000000000, 0.000000000000000000, 39.00000000000000000 ) ) ;
#42 = EDGE_CURVE ( 'NONE', #100, #354, #385, .T. ) ;
#43 = CARTESIAN_POINT ( 'NONE',  ( 36.50000000000000711, 2.000000000000000000, 4.499999999999994671 ) ) ;
#44 = VERTEX_POINT ( 'NONE', #246 ) ;
#45 = PRODUCT ( 'Geh\X2\00e4\X0\use_Waveshare_Sockel_Deckel', 'Geh\X2\00e4\X0\use_Waveshare_Sockel_Deckel', '', ( #198 ) ) ;
#46 = ORIENTED_EDGE ( 'NONE', *, *, #130, .F. ) ;
#47 = EDGE_CURVE ( 'NONE', #168, #403, #380, .T. ) ;
#48 = CYLINDRICAL_SURFACE ( 'NONE', #178, 1.000000000000000000 ) ;
#49 = VERTEX_POINT ( 'NONE', #142 ) ;
#50 = LINE ( 'NONE', #303, #262 ) ;
#51 = VERTEX_POINT ( 'NONE', #340 ) ;
#52 = AXIS2_PLACEMENT_3D ( 'NONE', #448, #207, #137 ) ;
#53 = AXIS2_PLACEMENT_3D ( 'NONE', #379, #99, #31 ) ;
#54 = FACE_OUTER_BOUND ( 'NONE', #22, .T. ) ;
#55 = EDGE_LOOP ( 'NONE', ( #46, #153, #16, #356, #323 ) ) ;
#56 = EDGE_CURVE ( 'NONE', #286, #44, #26, .T. ) ;
#57 = ORIENTED_EDGE ( 'NONE', *, *, #66, .T. ) ;
#58 = APPLICATION_CONTEXT ( 'automotive_design' ) ;
#59 = CYLINDRICAL_SURFACE ( 'NONE', #147, 1.499999999999994449 ) ;
#60 = EDGE_CURVE ( 'NONE', #225, #49, #239, .T. ) ;
#61 = PLANE ( 'NONE',  #3 ) ;
#62 = FACE_OUTER_BOUND ( 'NONE', #320, .T. ) ;
#63 = CARTESIAN_POINT ( 'NONE',  ( 1.000000000000000000, 0.000000000000000000, 39.00000000000000000 ) ) ;
#64 = CARTESIAN_POINT ( 'NONE',  ( 1.000000000000000000, 1.500000000000000000, 38.00000000000000000 ) ) ;
#65 = DIRECTION ( 'NONE',  ( 0.000000000000000000, 0.000000000000000000, 1.000000000000000000 ) ) ;
#66 = EDGE_CURVE ( 'NONE', #304, #51, #386, .T. ) ;
#67 = FACE_OUTER_BOUND ( 'NONE', #428, .T. ) ;
#68 = CARTESIAN_POINT ( 'NONE',  ( 36.50000000000000711, 2.000000000000000000, 1.500000000000005773 ) ) ;
#69 = ADVANCED_FACE ( 'NONE', ( #213, #311, #351 ), #61, .F. ) ;
#70 = AXIS2_PLACEMENT_3D ( 'NONE', #252, #355, #146 ) ;
#71 = DIRECTION ( 'NONE',  ( -0.000000000000000000, 1.000000000000000000, -0.000000000000000000 ) ) ;
#72 = CIRCLE ( 'NONE', #363, 1.500000000000001332 ) ;
#73 = LINE ( 'NONE', #41, #155 ) ;
#74 = ORIENTED_EDGE ( 'NONE', *, *, #238, .T. ) ;
#75 = DIRECTION ( 'NONE',  ( 0.000000000000000000, -1.000000000000000000, 0.000000000000000000 ) ) ;
#76 = CARTESIAN_POINT ( 'NONE',  ( 36.50000000000000711, 0.000000000000000000, 37.50000000000000000 ) ) ;
#77 = MECHANICAL_DESIGN_GEOMETRIC_PRESENTATION_REPRESENTATION (  '', ( #190 ), #342 ) ;
#78 = EDGE_LOOP ( 'NONE', ( #374, #369 ) ) ;
#79 = CARTESIAN_POINT ( 'NONE',  ( 39.50000000000000711, 2.000000000000000000, 39.00000000000000000 ) ) ;
#80 = ORIENTED_EDGE ( 'NONE', *, *, #130, .T. ) ;
#81 = CARTESIAN_POINT ( 'NONE',  ( 0.000000000000000000, 1.500000000000000000, 0.000000000000000000 ) ) ;
#82 = ORIENTED_EDGE ( 'NONE', *, *, #325, .F. ) ;
#83 = DIRECTION ( 'NONE',  ( -0.000000000000000000, 1.000000000000000000, -0.000000000000000000 ) ) ;
#84 = EDGE_CURVE ( 'NONE', #4, #434, #383, .T. ) ;
#85 = ORIENTED_EDGE ( 'NONE', *, *, #409, .F. ) ;
#86 = VECTOR ( 'NONE', #75, 1000.000000000000000 ) ;
#87 = AXIS2_PLACEMENT_3D ( 'NONE', #64, #447, #240 ) ;
#88 = LINE ( 'NONE', #293, #123 ) ;
#89 = EDGE_CURVE ( 'NONE', #366, #421, #274, .T. ) ;
#90 = EDGE_LOOP ( 'NONE', ( #210, #182, #370, #336 ) ) ;
#91 = CARTESIAN_POINT ( 'NONE',  ( 36.50000000000000711, 2.000000000000000000, 37.49999999999999289 ) ) ;
#92 = VERTEX_POINT ( 'NONE', #63 ) ;
#93 =( NAMED_UNIT ( * ) PLANE_ANGLE_UNIT ( ) SI_UNIT ( $, .RADIAN. ) );
#94 = ORIENTED_EDGE ( 'NONE', *, *, #371, .T. ) ;
#95 = VECTOR ( 'NONE', #106, 1000.000000000000000 ) ;
#96 = CYLINDRICAL_SURFACE ( 'NONE', #109, 1.499999999999994449 ) ;
#97 = ORIENTED_EDGE ( 'NONE', *, *, #244, .F. ) ;
#98 = CARTESIAN_POINT ( 'NONE',  ( 0.000000000000000000, 2.000000000000000000, 0.000000000000000000 ) ) ;
#99 = DIRECTION ( 'NONE',  ( 0.000000000000000000, 0.000000000000000000, -1.000000000000000000 ) ) ;
#100 = VERTEX_POINT ( 'NONE', #205 ) ;
#101 = VECTOR ( 'NONE', #281, 1000.000000000000000 ) ;
#102 = PLANE ( 'NONE',  #211 ) ;
#103 = EDGE_CURVE ( 'NONE', #354, #4, #449, .T. ) ;
#104 = DIRECTION ( 'NONE',  ( 0.000000000000000000, 0.000000000000000000, 1.000000000000000000 ) ) ;
#105 = CARTESIAN_POINT ( 'NONE',  ( 0.000000000000000000, 1.500000000000000000, 1.000000000000000000 ) ) ;
#106 = DIRECTION ( 'NONE',  ( -1.779203565104417621E-16, -0.000000000000000000, -1.000000000000000000 ) ) ;
#107 = VECTOR ( 'NONE', #319, 1000.000000000000000 ) ;
#108 = DIRECTION ( 'NONE',  ( 1.000000000000000000, 0.000000000000000000, 0.000000000000000000 ) ) ;
#109 = AXIS2_PLACEMENT_3D ( 'NONE', #361, #189, #328 ) ;
#110 = UNCERTAINTY_MEASURE_WITH_UNIT (LENGTH_MEASURE( 1.000000000000000082E-05 ), #337, 'distance_accuracy_value', 'NONE');
#111 = CARTESIAN_POINT ( 'NONE',  ( 36.50000000000000711, 0.000000000000000000, 1.499999999999998668 ) ) ;
#112 = FACE_OUTER_BOUND ( 'NONE', #426, .T. ) ;
#113 = EDGE_CURVE ( 'NONE', #33, #421, #321, .T. ) ;
#114 = DIRECTION ( 'NONE',  ( -0.000000000000000000, 1.000000000000000000, -0.000000000000000000 ) ) ;
#115 = AXIS2_PLACEMENT_3D ( 'NONE', #444, #179, #412 ) ;
#116 = ORIENTED_EDGE ( 'NONE', *, *, #120, .F. ) ;
#117 = CARTESIAN_POINT ( 'NONE',  ( 0.000000000000000000, 2.000000000000000000, 0.000000000000000000 ) ) ;
#118 = SURFACE_SIDE_STYLE ('',( #165 ) ) ;
#119 = VERTEX_POINT ( 'NONE', #276 ) ;
#120 = EDGE_CURVE ( 'NONE', #286, #119, #145, .T. ) ;
#121 = DIRECTION ( 'NONE',  ( 0.000000000000000000, 0.000000000000000000, 1.000000000000000000 ) ) ;
#122 = ORIENTED_EDGE ( 'NONE', *, *, #56, .T. ) ;
#123 = VECTOR ( 'NONE', #333, 1000.000000000000000 ) ;
#124 = FILL_AREA_STYLE ('',( #229 ) ) ;
#125 = ORIENTED_EDGE ( 'NONE', *, *, #343, .T. ) ;
#126 = DIRECTION ( 'NONE',  ( 0.000000000000000000, -1.000000000000000000, 0.000000000000000000 ) ) ;
#127 = ORIENTED_EDGE ( 'NONE', *, *, #42, .F. ) ;
#128 = DIRECTION ( 'NONE',  ( -0.000000000000000000, 1.000000000000000000, -0.000000000000000000 ) ) ;
#129 = ORIENTED_EDGE ( 'NONE', *, *, #216, .F. ) ;
#130 = EDGE_CURVE ( 'NONE', #100, #185, #318, .T. ) ;
#131 = VECTOR ( 'NONE', #243, 1000.000000000000000 ) ;
#132 = PRODUCT_DEFINITION_FORMATION_WITH_SPECIFIED_SOURCE ( 'ANY', '', #45, .NOT_KNOWN. ) ;
#133 = DIRECTION ( 'NONE',  ( 1.000000000000000000, 0.000000000000000000, -0.000000000000000000 ) ) ;
#134 = DIRECTION ( 'NONE',  ( 0.000000000000000000, 0.000000000000000000, 1.000000000000000000 ) ) ;
#135 = CARTESIAN_POINT ( 'NONE',  ( 0.000000000000000000, 2.000000000000000000, 1.000000000000000000 ) ) ;
#136 = DIRECTION ( 'NONE',  ( -0.000000000000000000, 1.000000000000000000, -0.000000000000000000 ) ) ;
#137 = DIRECTION ( 'NONE',  ( 0.000000000000000000, 0.000000000000000000, 1.000000000000000000 ) ) ;
#138 = VECTOR ( 'NONE', #71, 1000.000000000000000 ) ;
#139 = APPLICATION_PROTOCOL_DEFINITION ( 'draft international standard', 'automotive_design', 1998, #265 ) ;
#140 = CARTESIAN_POINT ( 'NONE',  ( 0.000000000000000000, 2.000000000000000000, 38.00000000000000000 ) ) ;
#141 =( NAMED_UNIT ( * ) SI_UNIT ( $, .STERADIAN. ) SOLID_ANGLE_UNIT ( ) );
#142 = CARTESIAN_POINT ( 'NONE',  ( 39.50000000000000000, 2.000000000000000000, 0.000000000000000000 ) ) ;
#143 = ADVANCED_FACE ( 'NONE', ( #112 ), #180, .F. ) ;
#144 = CARTESIAN_POINT ( 'NONE',  ( 36.50000000000000711, 0.000000000000000000, 36.00000000000000000 ) ) ;
#145 = CIRCLE ( 'NONE', #234, 1.500000000000001332 ) ;
#146 = DIRECTION ( 'NONE',  ( 0.000000000000000000, -0.000000000000000000, 1.000000000000000000 ) ) ;
#147 = AXIS2_PLACEMENT_3D ( 'NONE', #346, #136, #406 ) ;
#148 = ORIENTED_EDGE ( 'NONE', *, *, #120, .T. ) ;
#149 = PLANE ( 'NONE',  #248 ) ;
#150 = ORIENTED_EDGE ( 'NONE', *, *, #10, .T. ) ;
#151 = PRODUCT_DEFINITION ( 'UNKNOWN', '', #132, #237 ) ;
#152 = FACE_OUTER_BOUND ( 'NONE', #424, .T. ) ;
#153 = ORIENTED_EDGE ( 'NONE', *, *, #292, .T. ) ;
#154 = DIRECTION ( 'NONE',  ( 1.000000000000000000, 0.000000000000000000, 0.000000000000000000 ) ) ;
#155 = VECTOR ( 'NONE', #154, 1000.000000000000000 ) ;
#156 = CARTESIAN_POINT ( 'NONE',  ( 36.50000000000000711, 0.000000000000000000, 36.00000000000000000 ) ) ;
#157 = ORIENTED_EDGE ( 'NONE', *, *, #325, .T. ) ;
#158 = EDGE_CURVE ( 'NONE', #403, #195, #425, .T. ) ;
#159 = CARTESIAN_POINT ( 'NONE',  ( 1.000000000000000000, 2.000000000000000000, 1.000000000000000000 ) ) ;
#160 = EDGE_LOOP ( 'NONE', ( #329, #97 ) ) ;
#161 = PLANE ( 'NONE',  #411 ) ;
#162 = EDGE_LOOP ( 'NONE', ( #256, #82, #129, #8 ) ) ;
#163 = VECTOR ( 'NONE', #83, 1000.000000000000000 ) ;
#164 = CIRCLE ( 'NONE', #284, 1.000000000000000888 ) ;
#165 = SURFACE_STYLE_FILL_AREA ( #124 ) ;
#166 = ORIENTED_EDGE ( 'NONE', *, *, #89, .T. ) ;
#167 = LINE ( 'NONE', #43, #341 ) ;
#168 = VERTEX_POINT ( 'NONE', #326 ) ;
#169 = DIRECTION ( 'NONE',  ( 1.000000000000000000, 0.000000000000000000, 0.000000000000000000 ) ) ;
#170 = ORIENTED_EDGE ( 'NONE', *, *, #388, .F. ) ;
#171 = CIRCLE ( 'NONE', #362, 1.499999999999987566 ) ;
#172 = DIRECTION ( 'NONE',  ( 0.000000000000000000, 1.000000000000000000, 0.000000000000000000 ) ) ;
#173 = EDGE_CURVE ( 'NONE', #225, #168, #291, .T. ) ;
#174 = CARTESIAN_POINT ( 'NONE',  ( 36.50000000000000711, 2.000000000000000000, 3.000000000000000000 ) ) ;
#175 = CARTESIAN_POINT ( 'NONE',  ( 39.50000000000000000, 0.000000000000000000, 0.000000000000000000 ) ) ;
#176 = CARTESIAN_POINT ( 'NONE',  ( 0.000000000000000000, 0.000000000000000000, 0.000000000000000000 ) ) ;
#177 = CARTESIAN_POINT ( 'NONE',  ( 36.50000000000000711, 0.000000000000000000, 3.000000000000000000 ) ) ;
#178 = AXIS2_PLACEMENT_3D ( 'NONE', #159, #126, #396 ) ;
#179 = DIRECTION ( 'NONE',  ( -0.000000000000000000, 1.000000000000000000, -0.000000000000000000 ) ) ;
#180 = PLANE ( 'NONE',  #17 ) ;
#181 = CARTESIAN_POINT ( 'NONE',  ( 0.000000000000000000, 2.000000000000000000, 0.000000000000000000 ) ) ;
#182 = ORIENTED_EDGE ( 'NONE', *, *, #371, .F. ) ;
#183 =( GEOMETRIC_REPRESENTATION_CONTEXT ( 3 ) GLOBAL_UNCERTAINTY_ASSIGNED_CONTEXT ( ( #110 ) ) GLOBAL_UNIT_ASSIGNED_CONTEXT ( ( #337, #451, #141 ) ) REPRESENTATION_CONTEXT ( 'NONE', 'WORKASPACE' ) );
#184 = CARTESIAN_POINT ( 'NONE',  ( 1.000000000000000000, 0.000000000000000000, 1.000000000000000000 ) ) ;
#185 = VERTEX_POINT ( 'NONE', #38 ) ;
#186 = ADVANCED_FACE ( 'NONE', ( #430, #391, #255 ), #1, .T. ) ;
#187 = CYLINDRICAL_SURFACE ( 'NONE', #23, 1.000000000000000888 ) ;
#188 = CARTESIAN_POINT ( 'NONE',  ( 1.000000000000004885, 1.500000000000000000, 39.00000000000000000 ) ) ;
#189 = DIRECTION ( 'NONE',  ( -0.000000000000000000, 1.000000000000000000, -0.000000000000000000 ) ) ;
#190 = STYLED_ITEM ( 'NONE', ( #266 ), #367 ) ;
#191 = VERTEX_POINT ( 'NONE', #76 ) ;
#192 = ORIENTED_EDGE ( 'NONE', *, *, #244, .T. ) ;
#193 = ORIENTED_EDGE ( 'NONE', *, *, #310, .F. ) ;
#194 = CARTESIAN_POINT ( 'NONE',  ( 39.50000000000000000, 2.000000000000000000, 0.000000000000000000 ) ) ;
#195 = VERTEX_POINT ( 'NONE', #6 ) ;
#196 = CYLINDRICAL_SURFACE ( 'NONE', #290, 1.499999999999994449 ) ;
#197 = ORIENTED_EDGE ( 'NONE', *, *, #10, .F. ) ;
#198 = PRODUCT_CONTEXT ( 'NONE', #58, 'mechanical' ) ;
#199 = ORIENTED_EDGE ( 'NONE', *, *, #113, .T. ) ;
#200 = CARTESIAN_POINT ( 'NONE',  ( 0.000000000000000000, 0.000000000000000000, 0.000000000000000000 ) ) ;
#201 = PRODUCT_RELATED_PRODUCT_CATEGORY ( 'part', '', ( #45 ) ) ;
#202 = VECTOR ( 'NONE', #450, 1000.000000000000000 ) ;
#203 = PRODUCT_DEFINITION_SHAPE ( 'NONE', 'NONE',  #151 ) ;
#204 = CARTESIAN_POINT ( 'NONE',  ( 0.000000000000000000, 1.500000000000000000, 0.000000000000000000 ) ) ;
#205 = CARTESIAN_POINT ( 'NONE',  ( 1.000000000000004885, 1.500000000000000000, 39.00000000000000000 ) ) ;
#206 = CARTESIAN_POINT ( 'NONE',  ( 36.50000000000000711, 2.000000000000001332, 34.50000000000000711 ) ) ;
#207 = DIRECTION ( 'NONE',  ( -0.000000000000000000, 1.000000000000000000, -0.000000000000000000 ) ) ;
#208 = EDGE_CURVE ( 'NONE', #185, #225, #258, .T. ) ;
#209 = LINE ( 'NONE', #204, #373 ) ;
#210 = ORIENTED_EDGE ( 'NONE', *, *, #47, .T. ) ;
#211 = AXIS2_PLACEMENT_3D ( 'NONE', #98, #65, #133 ) ;
#212 = EDGE_CURVE ( 'NONE', #49, #400, #358, .T. ) ;
#213 = FACE_BOUND ( 'NONE', #332, .T. ) ;
#214 = DIRECTION ( 'NONE',  ( 0.000000000000000000, 0.000000000000000000, 1.000000000000000000 ) ) ;
#215 = DIRECTION ( 'NONE',  ( 1.000000000000000000, 0.000000000000000000, 0.000000000000000000 ) ) ;
#216 = EDGE_CURVE ( 'NONE', #434, #195, #283, .T. ) ;
#217 = COLOUR_RGB ( '',0.7921568627450980005, 0.8196078431372548767, 0.9333333333333333481 ) ;
#218 = CARTESIAN_POINT ( 'NONE',  ( 0.000000000000000000, 2.000000000000000000, 39.00000000000000000 ) ) ;
#219 = DIRECTION ( 'NONE',  ( 0.000000000000000000, 0.000000000000000000, 1.000000000000000000 ) ) ;
#220 = ORIENTED_EDGE ( 'NONE', *, *, #60, .T. ) ;
#221 = DIRECTION ( 'NONE',  ( -1.000000000000000000, -0.000000000000000000, -0.000000000000000000 ) ) ;
#222 = EDGE_CURVE ( 'NONE', #191, #366, #387, .T. ) ;
#223 = PLANE ( 'NONE',  #357 ) ;
#224 = AXIS2_PLACEMENT_3D ( 'NONE', #30, #345, #28 ) ;
#225 = VERTEX_POINT ( 'NONE', #79 ) ;
#226 = DIRECTION ( 'NONE',  ( 1.779203565104417621E-16, 0.000000000000000000, 1.000000000000000000 ) ) ;
#227 = ORIENTED_EDGE ( 'NONE', *, *, #409, .T. ) ;
#228 = ADVANCED_FACE ( 'NONE', ( #152 ), #187, .T. ) ;
#229 = FILL_AREA_STYLE_COLOUR ( '', #217 ) ;
#230 = ORIENTED_EDGE ( 'NONE', *, *, #103, .T. ) ;
#231 = EDGE_CURVE ( 'NONE', #185, #400, #7, .T. ) ;
#232 =( NAMED_UNIT ( * ) SI_UNIT ( $, .STERADIAN. ) SOLID_ANGLE_UNIT ( ) );
#233 = ORIENTED_EDGE ( 'NONE', *, *, #353, .F. ) ;
#234 = AXIS2_PLACEMENT_3D ( 'NONE', #177, #313, #279 ) ;
#235 = CARTESIAN_POINT ( 'NONE',  ( 0.000000000000000000, 0.000000000000000000, 0.000000000000000000 ) ) ;
#236 = ORIENTED_EDGE ( 'NONE', *, *, #208, .T. ) ;
#237 = PRODUCT_DEFINITION_CONTEXT ( 'detailed design', #265, 'design' ) ;
#238 = EDGE_CURVE ( 'NONE', #452, #44, #372, .T. ) ;
#239 = LINE ( 'NONE', #378, #11 ) ;
#240 = DIRECTION ( 'NONE',  ( 0.000000000000000000, 0.000000000000000000, 1.000000000000000000 ) ) ;
#241 = FACE_OUTER_BOUND ( 'NONE', #407, .T. ) ;
#242 = AXIS2_PLACEMENT_3D ( 'NONE', #144, #35, #214 ) ;
#243 = DIRECTION ( 'NONE',  ( 0.000000000000000000, -1.000000000000000000, 0.000000000000000000 ) ) ;
#244 = EDGE_CURVE ( 'NONE', #44, #452, #171, .T. ) ;
#245 = FACE_OUTER_BOUND ( 'NONE', #55, .T. ) ;
#246 = CARTESIAN_POINT ( 'NONE',  ( 36.50000000000000711, 2.000000000000001332, 1.500000000000012657 ) ) ;
#247 = ORIENTED_EDGE ( 'NONE', *, *, #113, .F. ) ;
#248 = AXIS2_PLACEMENT_3D ( 'NONE', #81, #287, #389 ) ;
#249 = CARTESIAN_POINT ( 'NONE',  ( 36.50000000000000711, 2.000000000000001332, 3.000000000000000000 ) ) ;
#250 = LINE ( 'NONE', #390, #86 ) ;
#251 = ORIENTED_EDGE ( 'NONE', *, *, #292, .F. ) ;
#252 = CARTESIAN_POINT ( 'NONE',  ( 0.000000000000000000, 2.000000000000000000, 0.000000000000000000 ) ) ;
#253 = EDGE_LOOP ( 'NONE', ( #300, #230, #270, #306 ) ) ;
#254 = VECTOR ( 'NONE', #114, 1000.000000000000000 ) ;
#255 = FACE_BOUND ( 'NONE', #442, .T. ) ;
#256 = ORIENTED_EDGE ( 'NONE', *, *, #103, .F. ) ;
#257 = ADVANCED_FACE ( 'NONE', ( #359 ), #149, .T. ) ;
#258 = LINE ( 'NONE', #218, #327 ) ;
#259 = ORIENTED_EDGE ( 'NONE', *, *, #216, .T. ) ;
#260 = DIRECTION ( 'NONE',  ( 1.000000000000000000, 0.000000000000000000, -1.223202451009287022E-16 ) ) ;
#261 = ORIENTED_EDGE ( 'NONE', *, *, #158, .T. ) ;
#262 = VECTOR ( 'NONE', #301, 1000.000000000000000 ) ;
#263 = DIRECTION ( 'NONE',  ( -1.000000000000000000, 0.000000000000000000, 1.779203565104417621E-16 ) ) ;
#264 = ORIENTED_EDGE ( 'NONE', *, *, #222, .F. ) ;
#265 = APPLICATION_CONTEXT ( 'automotive_design' ) ;
#266 = PRESENTATION_STYLE_ASSIGNMENT (( #364 ) ) ;
#267 = ORIENTED_EDGE ( 'NONE', *, *, #84, .T. ) ;
#268 = EDGE_LOOP ( 'NONE', ( #193, #166, #150, #233 ) ) ;
#269 = DIRECTION ( 'NONE',  ( 0.000000000000000000, 0.000000000000000000, 1.000000000000000000 ) ) ;
#270 = ORIENTED_EDGE ( 'NONE', *, *, #388, .T. ) ;
#271 = AXIS2_PLACEMENT_3D ( 'NONE', #156, #299, #121 ) ;
#272 = DIRECTION ( 'NONE',  ( -1.779203565104417621E-16, -0.000000000000000000, -1.000000000000000000 ) ) ;
#273 = EDGE_CURVE ( 'NONE', #92, #168, #73, .T. ) ;
#274 = LINE ( 'NONE', #347, #307 ) ;
#275 = CARTESIAN_POINT ( 'NONE',  ( 36.50000000000000711, 2.000000000000001332, 4.499999999999987566 ) ) ;
#276 = CARTESIAN_POINT ( 'NONE',  ( 36.50000000000000711, 0.000000000000000000, 4.500000000000001776 ) ) ;
#277 = PRESENTATION_LAYER_ASSIGNMENT (  '', '', ( #190 ) ) ;
#278 = LINE ( 'NONE', #176, #443 ) ;
#279 = DIRECTION ( 'NONE',  ( 0.000000000000000000, 0.000000000000000000, 1.000000000000000000 ) ) ;
#280 = DIRECTION ( 'NONE',  ( -0.000000000000000000, -1.000000000000000000, -0.000000000000000000 ) ) ;
#281 = DIRECTION ( 'NONE',  ( -0.000000000000000000, 1.000000000000000000, -0.000000000000000000 ) ) ;
#282 = CARTESIAN_POINT ( 'NONE',  ( 0.000000000000000000, 0.000000000000000000, 0.000000000000000000 ) ) ;
#283 = CIRCLE ( 'NONE', #314, 1.000000000000000000 ) ;
#284 = AXIS2_PLACEMENT_3D ( 'NONE', #27, #280, #104 ) ;
#285 = DIRECTION ( 'NONE',  ( -0.000000000000000000, -1.000000000000000000, -0.000000000000000000 ) ) ;
#286 = VERTEX_POINT ( 'NONE', #111 ) ;
#287 = DIRECTION ( 'NONE',  ( 0.000000000000000000, 1.000000000000000000, 0.000000000000000000 ) ) ;
#288 = CARTESIAN_POINT ( 'NONE',  ( 36.50000000000000711, 2.000000000000001332, 3.000000000000000000 ) ) ;
#289 = ADVANCED_BREP_SHAPE_REPRESENTATION ( 'Geh\X2\00e4\X0\use_Waveshare_Sockel_Deckel', ( #367, #34 ), #183 ) ;
#290 = AXIS2_PLACEMENT_3D ( 'NONE', #20, #128, #269 ) ;
#291 = LINE ( 'NONE', #324, #32 ) ;
#292 = EDGE_CURVE ( 'NONE', #100, #92, #250, .T. ) ;
#293 = CARTESIAN_POINT ( 'NONE',  ( 1.000000000000000000, 1.500000000000000000, 0.000000000000000000 ) ) ;
#294 = ORIENTED_EDGE ( 'NONE', *, *, #66, .F. ) ;
#295 = DIRECTION ( 'NONE',  ( -1.223202451009287022E-16, 0.000000000000000000, -1.000000000000000000 ) ) ;
#296 = ORIENTED_EDGE ( 'NONE', *, *, #89, .F. ) ;
#297 = EDGE_CURVE ( 'NONE', #119, #452, #167, .T. ) ;
#298 = VECTOR ( 'NONE', #394, 1000.000000000000000 ) ;
#299 = DIRECTION ( 'NONE',  ( -0.000000000000000000, 1.000000000000000000, -0.000000000000000000 ) ) ;
#300 = ORIENTED_EDGE ( 'NONE', *, *, #42, .T. ) ;
#301 = DIRECTION ( 'NONE',  ( -0.000000000000000000, 1.000000000000000000, -0.000000000000000000 ) ) ;
#302 = EDGE_LOOP ( 'NONE', ( #21, #330, #127, #80 ) ) ;
#303 = CARTESIAN_POINT ( 'NONE',  ( 1.000000000000000000, 2.000000000000000000, 0.000000000000000000 ) ) ;
#304 = VERTEX_POINT ( 'NONE', #433 ) ;
#305 = SHAPE_DEFINITION_REPRESENTATION ( #203, #289 ) ;
#306 = ORIENTED_EDGE ( 'NONE', *, *, #415, .T. ) ;
#307 = VECTOR ( 'NONE', #410, 1000.000000000000000 ) ;
#308 = CARTESIAN_POINT ( 'NONE',  ( 39.50000000000000000, 0.000000000000000000, 0.000000000000000000 ) ) ;
#309 = DIRECTION ( 'NONE',  ( 0.000000000000000000, -0.000000000000000000, 1.000000000000000000 ) ) ;
#310 = EDGE_CURVE ( 'NONE', #366, #191, #429, .T. ) ;
#311 = FACE_BOUND ( 'NONE', #78, .T. ) ;
#312 = DIRECTION ( 'NONE',  ( 0.000000000000000000, 0.000000000000000000, 1.000000000000000000 ) ) ;
#313 = DIRECTION ( 'NONE',  ( -0.000000000000000000, 1.000000000000000000, -0.000000000000000000 ) ) ;
#314 = AXIS2_PLACEMENT_3D ( 'NONE', #184, #285, #322 ) ;
#315 = AXIS2_PLACEMENT_3D ( 'NONE', #174, #416, #312 ) ;
#316 = CYLINDRICAL_SURFACE ( 'NONE', #315, 1.499999999999994449 ) ;
#317 = CARTESIAN_POINT ( 'NONE',  ( 36.50000000000000711, 2.000000000000001332, 37.49999999999998579 ) ) ;
#318 = LINE ( 'NONE', #188, #254 ) ;
#319 = DIRECTION ( 'NONE',  ( -1.000000000000000000, -0.000000000000000000, -0.000000000000000000 ) ) ;
#320 = EDGE_LOOP ( 'NONE', ( #116, #122, #192, #405 ) ) ;
#321 = CIRCLE ( 'NONE', #52, 1.499999999999987566 ) ;
#322 = DIRECTION ( 'NONE',  ( 0.000000000000000000, 0.000000000000000000, 1.000000000000000000 ) ) ;
#323 = ORIENTED_EDGE ( 'NONE', *, *, #208, .F. ) ;
#324 = CARTESIAN_POINT ( 'NONE',  ( 39.50000000000000711, 2.000000000000000000, 39.00000000000000000 ) ) ;
#325 = EDGE_CURVE ( 'NONE', #195, #354, #50, .T. ) ;
#326 = CARTESIAN_POINT ( 'NONE',  ( 39.50000000000000711, 0.000000000000000000, 39.00000000000000000 ) ) ;
#327 = VECTOR ( 'NONE', #108, 1000.000000000000000 ) ;
#328 = DIRECTION ( 'NONE',  ( 0.000000000000000000, 0.000000000000000000, 1.000000000000000000 ) ) ;
#329 = ORIENTED_EDGE ( 'NONE', *, *, #238, .F. ) ;
#330 = ORIENTED_EDGE ( 'NONE', *, *, #343, .F. ) ;
#331 = UNCERTAINTY_MEASURE_WITH_UNIT (LENGTH_MEASURE( 1.000000000000000082E-05 ), #368, 'distance_accuracy_value', 'NONE');
#332 = EDGE_LOOP ( 'NONE', ( #432, #148 ) ) ;
#333 = DIRECTION ( 'NONE',  ( -0.000000000000000000, 1.000000000000000000, -0.000000000000000000 ) ) ;
#334 = ORIENTED_EDGE ( 'NONE', *, *, #212, .T. ) ;
#335 = DIRECTION ( 'NONE',  ( -0.000000000000000000, -1.000000000000000000, -0.000000000000000000 ) ) ;
#336 = ORIENTED_EDGE ( 'NONE', *, *, #173, .T. ) ;
#337 =( LENGTH_UNIT ( ) NAMED_UNIT ( * ) SI_UNIT ( .MILLI., .METRE. ) );
#338 = ADVANCED_FACE ( 'NONE', ( #436 ), #48, .T. ) ;
#339 = ORIENTED_EDGE ( 'NONE', *, *, #353, .T. ) ;
#340 = CARTESIAN_POINT ( 'NONE',  ( 0.000000000000000000, 1.500000000000000000, 38.00000000000000000 ) ) ;
#341 = VECTOR ( 'NONE', #12, 1000.000000000000000 ) ;
#342 =( GEOMETRIC_REPRESENTATION_CONTEXT ( 3 ) GLOBAL_UNCERTAINTY_ASSIGNED_CONTEXT ( ( #331 ) ) GLOBAL_UNIT_ASSIGNED_CONTEXT ( ( #368, #93, #232 ) ) REPRESENTATION_CONTEXT ( 'NONE', 'WORKASPACE' ) );
#343 = EDGE_CURVE ( 'NONE', #354, #400, #88, .T. ) ;
#344 = DIRECTION ( 'NONE',  ( -0.000000000000000000, 1.000000000000000000, -0.000000000000000000 ) ) ;
#345 = DIRECTION ( 'NONE',  ( 0.000000000000000000, 1.000000000000000000, 0.000000000000000000 ) ) ;
#346 = CARTESIAN_POINT ( 'NONE',  ( 36.50000000000000711, 2.000000000000000000, 3.000000000000000000 ) ) ;
#347 = CARTESIAN_POINT ( 'NONE',  ( 36.50000000000000711, 2.000000000000000000, 34.50000000000000000 ) ) ;
#348 = CARTESIAN_POINT ( 'NONE',  ( 0.000000000000000000, 0.000000000000000000, 1.000000000000000000 ) ) ;
#349 = ORIENTED_EDGE ( 'NONE', *, *, #418, .F. ) ;
#350 = ADVANCED_FACE ( 'NONE', ( #15 ), #223, .F. ) ;
#351 = FACE_OUTER_BOUND ( 'NONE', #397, .T. ) ;
#352 = DIRECTION ( 'NONE',  ( -0.000000000000000000, 1.000000000000000000, -0.000000000000000000 ) ) ;
#353 = EDGE_CURVE ( 'NONE', #191, #33, #441, .T. ) ;
#354 = VERTEX_POINT ( 'NONE', #399 ) ;
#355 = DIRECTION ( 'NONE',  ( 0.000000000000000000, 1.000000000000000000, 0.000000000000000000 ) ) ;
#356 = ORIENTED_EDGE ( 'NONE', *, *, #173, .F. ) ;
#357 = AXIS2_PLACEMENT_3D ( 'NONE', #194, #263, #226 ) ;
#358 = LINE ( 'NONE', #181, #420 ) ;
#359 = FACE_OUTER_BOUND ( 'NONE', #253, .T. ) ;
#360 = ORIENTED_EDGE ( 'NONE', *, *, #158, .F. ) ;
#361 = CARTESIAN_POINT ( 'NONE',  ( 36.50000000000000711, 2.000000000000000000, 36.00000000000000000 ) ) ;
#362 = AXIS2_PLACEMENT_3D ( 'NONE', #288, #352, #219 ) ;
#363 = AXIS2_PLACEMENT_3D ( 'NONE', #413, #344, #29 ) ;
#364 = SURFACE_STYLE_USAGE ( .BOTH. , #118 ) ;
#365 = ADVANCED_FACE ( 'NONE', ( #438 ), #161, .F. ) ;
#366 = VERTEX_POINT ( 'NONE', #402 ) ;
#367 = MANIFOLD_SOLID_BREP ( 'Verrundung1', #398 ) ;
#368 =( LENGTH_UNIT ( ) NAMED_UNIT ( * ) SI_UNIT ( .MILLI., .METRE. ) );
#369 = ORIENTED_EDGE ( 'NONE', *, *, #310, .T. ) ;
#370 = ORIENTED_EDGE ( 'NONE', *, *, #60, .F. ) ;
#371 = EDGE_CURVE ( 'NONE', #49, #403, #18, .T. ) ;
#372 = CIRCLE ( 'NONE', #392, 1.499999999999987566 ) ;
#373 = VECTOR ( 'NONE', #408, 1000.000000000000000 ) ;
#374 = ORIENTED_EDGE ( 'NONE', *, *, #222, .T. ) ;
#375 = ADVANCED_FACE ( 'NONE', ( #54 ), #196, .F. ) ;
#376 = DIRECTION ( 'NONE',  ( 0.000000000000000000, 0.000000000000000000, 1.000000000000000000 ) ) ;
#377 = ORIENTED_EDGE ( 'NONE', *, *, #273, .F. ) ;
#378 = CARTESIAN_POINT ( 'NONE',  ( 39.50000000000000000, 2.000000000000000000, 0.000000000000000000 ) ) ;
#379 = CARTESIAN_POINT ( 'NONE',  ( 0.000000000000000000, 2.000000000000000000, 39.00000000000000000 ) ) ;
#380 = LINE ( 'NONE', #175, #95 ) ;
#381 = ADVANCED_FACE ( 'NONE', ( #404 ), #96, .F. ) ;
#382 = CARTESIAN_POINT ( 'NONE',  ( 1.000000000000000000, 2.000000000000000000, 0.000000000000000000 ) ) ;
#383 = LINE ( 'NONE', #135, #131 ) ;
#384 = PLANE ( 'NONE',  #53 ) ;
#385 = LINE ( 'NONE', #417, #202 ) ;
#386 = LINE ( 'NONE', #140, #138 ) ;
#387 = CIRCLE ( 'NONE', #242, 1.500000000000001332 ) ;
#388 = EDGE_CURVE ( 'NONE', #4, #51, #209, .T. ) ;
#389 = DIRECTION ( 'NONE',  ( 0.000000000000000000, -0.000000000000000000, 1.000000000000000000 ) ) ;
#390 = CARTESIAN_POINT ( 'NONE',  ( 1.000000000000000000, 2.000000000000000000, 39.00000000000000000 ) ) ;
#391 = FACE_BOUND ( 'NONE', #160, .T. ) ;
#392 = AXIS2_PLACEMENT_3D ( 'NONE', #249, #423, #9 ) ;
#393 = DIRECTION ( 'NONE',  ( 0.000000000000000000, 0.000000000000000000, -1.000000000000000000 ) ) ;
#394 = DIRECTION ( 'NONE',  ( -1.223202451009287022E-16, -0.000000000000000000, -1.000000000000000000 ) ) ;
#395 = ORIENTED_EDGE ( 'NONE', *, *, #56, .F. ) ;
#396 = DIRECTION ( 'NONE',  ( 0.000000000000000000, 0.000000000000000000, -1.000000000000000000 ) ) ;
#397 = EDGE_LOOP ( 'NONE', ( #349, #259, #360, #14, #377, #227 ) ) ;
#398 = CLOSED_SHELL ( 'NONE', ( #453, #381, #143, #445, #350, #36, #186, #69, #375, #439, #365, #257, #338, #228 ) ) ;
#399 = CARTESIAN_POINT ( 'NONE',  ( 1.000000000000000000, 1.500000000000000000, 0.000000000000000000 ) ) ;
#400 = VERTEX_POINT ( 'NONE', #382 ) ;
#401 = ORIENTED_EDGE ( 'NONE', *, *, #415, .F. ) ;
#402 = CARTESIAN_POINT ( 'NONE',  ( 36.50000000000000711, 0.000000000000000000, 34.49999999999999289 ) ) ;
#403 = VERTEX_POINT ( 'NONE', #308 ) ;
#404 = FACE_OUTER_BOUND ( 'NONE', #268, .T. ) ;
#405 = ORIENTED_EDGE ( 'NONE', *, *, #297, .F. ) ;
#406 = DIRECTION ( 'NONE',  ( 0.000000000000000000, 0.000000000000000000, 1.000000000000000000 ) ) ;
#407 = EDGE_LOOP ( 'NONE', ( #261, #157, #125, #437, #94 ) ) ;
#408 = DIRECTION ( 'NONE',  ( 0.000000000000000000, 0.000000000000000000, 1.000000000000000000 ) ) ;
#409 = EDGE_CURVE ( 'NONE', #92, #304, #164, .T. ) ;
#410 = DIRECTION ( 'NONE',  ( -0.000000000000000000, 1.000000000000000000, -0.000000000000000000 ) ) ;
#411 = AXIS2_PLACEMENT_3D ( 'NONE', #431, #260, #295 ) ;
#412 = DIRECTION ( 'NONE',  ( 0.000000000000000000, 0.000000000000000000, 1.000000000000000000 ) ) ;
#413 = CARTESIAN_POINT ( 'NONE',  ( 36.50000000000000711, 0.000000000000000000, 3.000000000000000000 ) ) ;
#414 = ORIENTED_EDGE ( 'NONE', *, *, #231, .F. ) ;
#415 = EDGE_CURVE ( 'NONE', #51, #100, #5, .T. ) ;
#416 = DIRECTION ( 'NONE',  ( -0.000000000000000000, 1.000000000000000000, -0.000000000000000000 ) ) ;
#417 = CARTESIAN_POINT ( 'NONE',  ( 1.000000000000000000, 1.500000000000000000, 0.000000000000000000 ) ) ;
#418 = EDGE_CURVE ( 'NONE', #434, #304, #278, .T. ) ;
#419 = CARTESIAN_POINT ( 'NONE',  ( 1.000000000000000000, 2.000000000000000000, 0.000000000000000000 ) ) ;
#420 = VECTOR ( 'NONE', #221, 1000.000000000000000 ) ;
#421 = VERTEX_POINT ( 'NONE', #206 ) ;
#422 = EDGE_CURVE ( 'NONE', #119, #286, #72, .T. ) ;
#423 = DIRECTION ( 'NONE',  ( -0.000000000000000000, 1.000000000000000000, -0.000000000000000000 ) ) ;
#424 = EDGE_LOOP ( 'NONE', ( #401, #294, #85, #251 ) ) ;
#425 = LINE ( 'NONE', #282, #107 ) ;
#426 = EDGE_LOOP ( 'NONE', ( #170, #267, #446, #57 ) ) ;
#427 = DIRECTION ( 'NONE',  ( 0.000000000000000000, -1.000000000000000000, 0.000000000000000000 ) ) ;
#428 = EDGE_LOOP ( 'NONE', ( #395, #19, #39, #74 ) ) ;
#429 = CIRCLE ( 'NONE', #271, 1.500000000000001332 ) ;
#430 = FACE_OUTER_BOUND ( 'NONE', #440, .T. ) ;
#431 = CARTESIAN_POINT ( 'NONE',  ( 1.000000000000000000, 1.500000000000000000, 0.000000000000000000 ) ) ;
#432 = ORIENTED_EDGE ( 'NONE', *, *, #422, .T. ) ;
#433 = CARTESIAN_POINT ( 'NONE',  ( 0.000000000000000000, 0.000000000000000000, 38.00000000000000000 ) ) ;
#434 = VERTEX_POINT ( 'NONE', #348 ) ;
#435 = CIRCLE ( 'NONE', #115, 1.499999999999987566 ) ;
#436 = FACE_OUTER_BOUND ( 'NONE', #162, .T. ) ;
#437 = ORIENTED_EDGE ( 'NONE', *, *, #212, .F. ) ;
#438 = FACE_OUTER_BOUND ( 'NONE', #302, .T. ) ;
#439 = ADVANCED_FACE ( 'NONE', ( #67 ), #59, .F. ) ;
#440 = EDGE_LOOP ( 'NONE', ( #414, #236, #220, #334 ) ) ;
#441 = LINE ( 'NONE', #91, #163 ) ;
#442 = EDGE_LOOP ( 'NONE', ( #247, #197 ) ) ;
#443 = VECTOR ( 'NONE', #134, 1000.000000000000000 ) ;
#444 = CARTESIAN_POINT ( 'NONE',  ( 36.50000000000000711, 2.000000000000001332, 36.00000000000000000 ) ) ;
#445 = ADVANCED_FACE ( 'NONE', ( #245 ), #384, .F. ) ;
#446 = ORIENTED_EDGE ( 'NONE', *, *, #418, .T. ) ;
#447 = DIRECTION ( 'NONE',  ( 0.000000000000000000, 1.000000000000000000, 0.000000000000000000 ) ) ;
#448 = CARTESIAN_POINT ( 'NONE',  ( 36.50000000000000711, 2.000000000000001332, 36.00000000000000000 ) ) ;
#449 = CIRCLE ( 'NONE', #224, 1.000000000000000000 ) ;
#450 = DIRECTION ( 'NONE',  ( -1.223202451009287022E-16, -0.000000000000000000, -1.000000000000000000 ) ) ;
#451 =( NAMED_UNIT ( * ) PLANE_ANGLE_UNIT ( ) SI_UNIT ( $, .RADIAN. ) );
#452 = VERTEX_POINT ( 'NONE', #275 ) ;
#453 = ADVANCED_FACE ( 'NONE', ( #62 ), #316, .F. ) ;
ENDSEC;
END-ISO-10303-21;
